<svg xmlns="http://www.w3.org/2000/svg" xmlns:xlink="http://www.w3.org/1999/xlink" width="1920" height="1492" viewBox="0 0 1920 1492">
  <defs>
    <clipPath id="clip-Web_1920_1">
      <rect width="1920" height="1492"/>
    </clipPath>
  </defs>
  <g id="Web_1920_1" data-name="Web 1920 – 1" clip-path="url(#clip-Web_1920_1)">
    <rect width="1920" height="1492" fill="#fff"/>
    <path id="Path_1238" data-name="Path 1238" d="M770.472,318.6c146.179,0,264.68,118.5,264.68,264.68s-118.5,264.68-264.68,264.68-264.68-118.5-264.68-264.68,118.5-264.68,264.68-264.68" transform="translate(193 43)" fill="#0ebc5e"/>
    <path id="Path_1239" data-name="Path 1239" d="M770.472,332.481c138.512,0,250.8,112.286,250.8,250.8s-112.287,250.8-250.8,250.8-250.8-112.287-250.8-250.8,112.286-250.8,250.8-250.8" transform="translate(193.326 42.519)" fill="#0ebc5e"/>
    <circle id="Ellipse_60" data-name="Ellipse 60" cx="250.798" cy="250.798" r="250.798" transform="translate(712.674 375.481)" fill="none" stroke="#49e390" stroke-width="30"/>
    <path id="Path_1240" data-name="Path 1240" d="M1327.23,31.123c112.112,0,203,90.885,203,203s-90.885,203-203,203-203-90.885-203-203,90.885-203,203-203" transform="translate(258 43)" fill="#0ebc5e"/>
    <path id="Path_1241" data-name="Path 1241" d="M1327.23,41.77c106.232,0,192.35,86.118,192.35,192.35s-86.118,192.35-192.35,192.35-192.35-86.118-192.35-192.35S1221,41.77,1327.23,41.77" transform="translate(258 43)" fill="#0ebc5e"/>
    <circle id="Ellipse_61" data-name="Ellipse 61" cx="192.35" cy="192.35" r="192.35" transform="translate(1392.88 84.77)" fill="none" stroke="#49e390" stroke-width="30"/>
    <text id="Investors" transform="translate(1483.327 238.993)" fill="#fff" font-size="44" font-family="Poppins-Bold, Poppins" font-weight="700"><tspan x="0" y="0">Investors</tspan></text>
    <text id="Decision" transform="translate(1483.327 291.792)" fill="#fff" font-size="44" font-family="Poppins-Bold, Poppins" font-weight="700"><tspan x="0" y="0">Decision</tspan></text>
    <text id="Making" transform="translate(1483.327 344.593)" fill="#fff" font-size="44" font-family="Poppins-Bold, Poppins" font-weight="700"><tspan x="0" y="0">Making</tspan></text>
    <path id="Path_1242" data-name="Path 1242" d="M214.434,3.963C98.193,3.963,3.961,98.195,3.961,214.436S98.193,424.909,214.434,424.909s210.473-94.232,210.473-210.473S330.675,3.963,214.434,3.963" transform="translate(81.53 70.16)" fill="#0ebc5e"/>
    <path id="Path_1243" data-name="Path 1243" d="M214.434,15C104.289,15,15,104.292,15,214.436s89.289,199.435,199.434,199.435,199.434-89.29,199.434-199.435S324.579,15,214.434,15" transform="translate(81.53 70.16)" fill="#0ebc5e"/>
    <circle id="Ellipse_62" data-name="Ellipse 62" cx="199.434" cy="199.434" r="199.434" transform="translate(96.53 85.162)" fill="none" stroke="#49e390" stroke-width="30"/>
    <text id="Supply_Chain" data-name="Supply Chain" transform="translate(160.966 263.62)" fill="#fff" font-size="40" font-family="Poppins-Bold, Poppins" font-weight="700"><tspan x="0" y="0">Supply Chain</tspan></text>
    <text id="Management" transform="translate(160.966 316.42)" fill="#fff" font-size="40" font-family="Poppins-Bold, Poppins" font-weight="700"><tspan x="0" y="0">Management</tspan></text>
    <text id="Redwoods_Agentic_AI_Framework" data-name="Redwoods Agentic
AI Framework" transform="translate(776 614)" fill="#fff" font-size="40" font-family="Poppins-Bold, Poppins" font-weight="700"><tspan x="0" y="0">Redwoods Agentic</tspan><tspan x="0" y="52.8">AI Framework</tspan></text>
    <g id="Group_2081" data-name="Group 2081">
      <path id="Path_1244" data-name="Path 1244" d="M782.761,1028.41A184.092,184.092,0,0,0,598.669,1212.5c0,101.672,82.421,184.093,184.092,184.093s184.092-82.421,184.092-184.093A184.092,184.092,0,0,0,782.761,1028.41" transform="translate(177.239 43)" fill="#0ebc5e"/>
      <path id="Path_1245" data-name="Path 1245" d="M782.761,1038.065A174.438,174.438,0,1,0,957.2,1212.5a174.437,174.437,0,0,0-174.437-174.437" transform="translate(177.239 43)" fill="#0ebc5e"/>
      <circle id="Ellipse_63" data-name="Ellipse 63" cx="174.437" cy="174.437" r="174.437" transform="translate(785.562 1081.065)" fill="none" stroke="#49e390" stroke-width="30"/>
      <text id="Regulatory" transform="translate(821.38 1234.526)" fill="#fff" font-size="44" font-family="Poppins-Bold, Poppins" font-weight="700"><tspan x="0" y="0">Regulatory</tspan></text>
      <text id="Complaince" transform="translate(821.38 1287.326)" fill="#fff" font-size="44" font-family="Poppins-Bold, Poppins" font-weight="700"><tspan x="0" y="0">Complaince</tspan></text>
    </g>
    <path id="Path_1246" data-name="Path 1246" d="M1310.846,1045.346a170.441,170.441,0,1,0-170.441-170.441,170.441,170.441,0,0,0,170.441,170.441" transform="translate(233 71.27)" fill="#0ebc5e"/>
    <path id="Path_1247" data-name="Path 1247" d="M1310.846,1036.407a161.5,161.5,0,1,0-161.5-161.5,161.5,161.5,0,0,0,161.5,161.5" transform="translate(233 71.27)" fill="#0ebc5e"/>
    <circle id="Ellipse_64" data-name="Ellipse 64" cx="161.502" cy="161.502" r="161.502" transform="translate(1382.344 784.673)" fill="none" stroke="#49e390" stroke-width="30"/>
    <text id="Reporting" transform="translate(1435.025 937.084)" fill="#fff" font-size="44" font-family="Poppins-Bold, Poppins" font-weight="700"><tspan x="0" y="0">Reporting</tspan></text>
    <text id="Standards" transform="translate(1435.025 989.884)" fill="#fff" font-size="44" font-family="Poppins-Bold, Poppins" font-weight="700"><tspan x="0" y="0">Standards</tspan></text>
    <path id="Path_1248" data-name="Path 1248" d="M264.466,1138.691A170.441,170.441,0,1,1,434.907,968.25a170.441,170.441,0,0,1-170.441,170.441" transform="translate(135 -22.136)" fill="#0ebc5e"/>
    <path id="Path_1249" data-name="Path 1249" d="M264.466,1129.752a161.5,161.5,0,1,1,161.5-161.5,161.5,161.5,0,0,1-161.5,161.5" transform="translate(135 -22.075)" fill="#0ebc5e"/>
    <circle id="Ellipse_65" data-name="Ellipse 65" cx="161.502" cy="161.502" r="161.502" transform="translate(237.964 784.173)" fill="none" stroke="#49e390" stroke-width="30"/>
    <text id="Enterprises" transform="translate(271.891 961.673)" fill="#fff" font-size="44" font-family="Poppins-Bold, Poppins" font-weight="700"><tspan x="0" y="0">Enterprises</tspan></text>
    <g id="Group_2078" data-name="Group 2078">
      <path id="Path_1255" data-name="Path 1255" d="M496.793,276.292h295.62l83.615,95.9" transform="translate(0 0.208)" fill="none" stroke="#49e390" stroke-linecap="round" stroke-linejoin="round" stroke-width="9" stroke-dasharray="20"/>
      <g id="Rectangle_1082" data-name="Rectangle 1082" transform="translate(613 238)" fill="#0a2f50" stroke="#49e390" stroke-width="3">
        <rect width="200" height="81" rx="40.5" stroke="none"/>
        <rect x="1.5" y="1.5" width="197" height="78" rx="39" fill="none"/>
      </g>
      <text id="AI_Agent" data-name="AI Agent" transform="translate(649 289)" fill="#fff" font-size="30" font-family="Poppins-SemiBold, Poppins" font-weight="600"><tspan x="0" y="0">AI Agent</tspan></text>
    </g>
    <g id="Group_2080" data-name="Group 2080" transform="translate(496.793 850.704)">
      <path id="Path_1255-2" data-name="Path 1255" d="M562.266,372.194H792.413l83.615-95.9" transform="translate(-496.793 -276.292)" fill="none" stroke="#49e390" stroke-linecap="round" stroke-linejoin="round" stroke-width="9" stroke-dasharray="20"/>
      <g id="Rectangle_1082-2" data-name="Rectangle 1082" transform="translate(116.207 53.402)" fill="#0a2f50" stroke="#49e390" stroke-width="3">
        <rect width="200" height="81" rx="40.5" stroke="none"/>
        <rect x="1.5" y="1.5" width="197" height="78" rx="39" fill="none"/>
      </g>
      <text id="AI_Agent-2" data-name="AI Agent" transform="translate(152.207 104.401)" fill="#fff" font-size="30" font-family="Poppins-SemiBold, Poppins" font-weight="600"><tspan x="0" y="0">AI Agent</tspan></text>
    </g>
    <g id="Group_2079" data-name="Group 2079" transform="translate(1050.793 238)">
      <path id="Path_1255-3" data-name="Path 1255" d="M845.571,276.292H580.408l-83.615,95.9" transform="translate(-496.793 -237.792)" fill="none" stroke="#49e390" stroke-linecap="round" stroke-linejoin="round" stroke-width="9" stroke-dasharray="20"/>
      <g id="Rectangle_1082-3" data-name="Rectangle 1082" transform="translate(63.028)" fill="#0a2f50" stroke="#49e390" stroke-width="3">
        <rect width="200" height="81" rx="40.5" stroke="none"/>
        <rect x="1.5" y="1.5" width="197" height="78" rx="39" fill="none"/>
      </g>
      <text id="AI_Agent-3" data-name="AI Agent" transform="translate(98.028 51)" fill="#fff" font-size="30" font-family="Poppins-SemiBold, Poppins" font-weight="600"><tspan x="0" y="0">AI Agent</tspan></text>
    </g>
    <path id="Path_1255-4" data-name="Path 1255" d="M831.068,372.194H580.408l-83.615-95.9" transform="translate(554 574.412)" fill="none" stroke="#49e390" stroke-linecap="round" stroke-linejoin="round" stroke-width="9" stroke-dasharray="20"/>
    <path id="Path_1278" data-name="Path 1278" d="M787.343,372.194H580.408" transform="translate(1332.694 300.868) rotate(90)" fill="none" stroke="#49e390" stroke-linecap="round" stroke-linejoin="round" stroke-width="9" stroke-dasharray="20"/>
    <g id="Rectangle_1082-4" data-name="Rectangle 1082" transform="translate(1113.821 904.106)" fill="#0a2f50" stroke="#49e390" stroke-width="3">
      <rect width="200" height="81" rx="40.5" stroke="none"/>
      <rect x="1.5" y="1.5" width="197" height="78" rx="39" fill="none"/>
    </g>
    <text id="AI_Agent-4" data-name="AI Agent" transform="translate(1148.821 955.106)" fill="#fff" font-size="30" font-family="Poppins-SemiBold, Poppins" font-weight="600"><tspan x="0" y="0">AI Agent</tspan></text>
    <g id="Group_2082" data-name="Group 2082" transform="translate(-10.913)">
      <g id="Rectangle_1085" data-name="Rectangle 1085" transform="translate(870.821 952.673)" fill="#0a2f50" stroke="#49e390" stroke-width="3">
        <rect width="200" height="81" rx="40.5" stroke="none"/>
        <rect x="1.5" y="1.5" width="197" height="78" rx="39" fill="none"/>
      </g>
      <text id="AI_Agent-5" data-name="AI Agent" transform="translate(905.821 1003.673)" fill="#fff" font-size="30" font-family="Poppins-SemiBold, Poppins" font-weight="600"><tspan x="0" y="0">AI Agent</tspan></text>
    </g>
  </g>
</svg>
