<svg xmlns="http://www.w3.org/2000/svg" width="34" height="34" viewBox="0 0 34 34"><g transform="translate(105.498 -598)"><rect width="34" height="34" rx="6.48" transform="translate(-105.498 598)" fill="#0b86ca"></rect><path d="M8.037,12.855H11.57v11.4H8.037Zm1.8-5.665a2.049,2.049,0,1,1-1.453.6,2.049,2.049,0,0,1,1.453-.6" transform="translate(-104.114 599.278)" fill="#fff"></path><path d="M12.922,12.043h3.4V13.6a3.722,3.722,0,0,1,3.356-1.837c3.533,0,4.251,2.355,4.251,5.429v6.254H20.4V17.932c0-1.319,0-3.027-1.837-3.027s-2.12,1.437-2.12,2.921v5.641H12.91Z" transform="translate(-103.204 600.089)" fill="#fff"></path></g></svg> 