<?xml version="1.0" encoding="UTF-8"?>
<svg id="Layer_1" data-name="Layer 1" xmlns="http://www.w3.org/2000/svg" viewBox="0 0 32 32">
  <defs>
    <style>
      .cls-1 {
        fill: #00af42;
        stroke-width: 0px;
      }
    </style>
  </defs>
  <path class="cls-1" d="M30.99,15.13v1.78l-.02.08-.06.2s-.07.22-.08.3c-.18,1.21-.66,2.35-1.42,3.42-.85,1.18-1.92,2.1-3.2,2.72-.94.46-1.93.73-3.03.83-1.71.16-3.34-.2-4.84-1.06-.38-.22-.72-.48-1.05-.73-.06-.04-.12-.09-.18-.13.12-.17.23-.34.34-.49.13-.19.25-.37.36-.54,0,0,0,0,0,0,.07-.09.65-.84.83-1.4.11-.2.2-.38.29-.55.11-.21.2-.41.27-.58.79.82,1.69,1.29,2.76,1.43,1.19.15,2.27-.18,3.33-1,.82-.64,1.34-1.48,1.53-2.5.26-1.37-.02-2.58-.82-3.63-.69-.89-1.59-1.44-2.67-1.64-1.3-.24-2.46.01-3.45.75-.92.69-1.51,1.6-1.75,2.71-.07.31-.08.64-.09.99v.18c-.1,1.89-.66,3.48-1.72,4.85-.91,1.17-2.06,2.07-3.4,2.67-.92.41-1.79.62-2.66.67-.11,0-.22.01-.34.02-.2.01-.42.03-.64.03h-.06c-.98-.02-1.97-.24-3.03-.67-1.16-.48-2.18-1.22-3.04-2.2-.97-1.1-1.62-2.4-1.95-3.85-.19-.82-.24-1.69-.16-2.58.14-1.56.68-3,1.63-4.28.88-1.18,1.98-2.08,3.27-2.66.89-.4,1.65-.62,2.38-.68h.09c.64-.06,1.29-.11,1.96-.05,1.48.14,2.83.64,4.02,1.49.21.15.4.3.6.46t0,0c-.07.05-1.04.88-1.78,2.84l-.09.18c-.08.25-.15.48-.19.68-.67-.81-1.48-1.31-2.48-1.51-1.16-.23-2.17-.09-3.11.45-1.15.66-1.86,1.62-2.15,2.95-.29,1.29,0,2.51.83,3.63.64.86,1.54,1.42,2.66,1.65,1.33.27,2.52-.04,3.65-.94.86-.69,1.37-1.54,1.53-2.54.05-.33.09-.7.1-1.11.08-1.78.63-3.38,1.64-4.77.86-1.18,1.96-2.09,3.26-2.7.81-.38,1.65-.62,2.5-.71,2.24-.25,4.27.24,6.03,1.47,1.04.72,1.89,1.67,2.53,2.8.37.65.65,1.39.89,2.35.06.21.09.42.14.62.02.09.03.18.05.27v.06s0,0,0,0Z"/>
</svg>