<svg width="110" height="110" viewBox="0 0 110 110" fill="none" xmlns="http://www.w3.org/2000/svg">
<g clip-path="url(#clip0_3115_1924)">
<path d="M59.5834 61.8756H27.5C20.8144 61.8756 14.4025 59.2198 9.67504 54.4923C4.94756 49.7648 2.29169 43.353 2.29169 36.6673C2.29169 29.9817 4.94756 23.5698 9.67504 18.8423C14.4025 14.1149 20.8144 11.459 27.5 11.459H59.5834C66.269 11.459 72.6809 14.1149 77.4083 18.8423C82.1358 23.5698 84.7917 29.9817 84.7917 36.6673" stroke="#343A40" stroke-width="5" stroke-linecap="round" stroke-linejoin="round"/>
<path d="M59.5834 52.7083H27.5C23.2455 52.7083 19.1653 51.0182 16.1569 48.0098C13.1485 45.0014 11.4584 40.9212 11.4584 36.6667C11.4584 32.4122 13.1485 28.3319 16.1569 25.3235C19.1653 22.3151 23.2455 20.625 27.5 20.625H59.5834C61.69 20.625 63.776 21.0399 65.7222 21.8461C67.6685 22.6523 69.4369 23.8339 70.9265 25.3235C72.4161 26.8131 73.5978 28.5815 74.4039 30.5278C75.2101 32.474 75.625 34.56 75.625 36.6667" stroke="#343A40" stroke-width="5" stroke-linecap="round" stroke-linejoin="round"/>
<path d="M62.3438 38.6055C63.9834 38.6055 65.3125 36.944 65.3125 34.8945C65.3125 32.845 63.9834 31.1836 62.3438 31.1836C60.7042 31.1836 59.3751 32.845 59.3751 34.8945C59.3751 36.944 60.7042 38.6055 62.3438 38.6055Z" fill="#343A40"/>
<path d="M24.7396 38.6055C26.3792 38.6055 27.7084 36.944 27.7084 34.8945C27.7084 32.845 26.3792 31.1836 24.7396 31.1836C23.1 31.1836 21.7709 32.845 21.7709 34.8945C21.7709 36.944 23.1 38.6055 24.7396 38.6055Z" fill="#343A40"/>
<path d="M33.6459 37.0781C34.8249 38.5747 36.328 39.7844 38.042 40.6161C39.7561 41.4479 41.6365 41.88 43.5417 41.88C45.4469 41.88 47.3273 41.4479 49.0414 40.6161C50.7554 39.7844 52.2585 38.5747 53.4375 37.0781" stroke="#343A40" stroke-width="5" stroke-linecap="round" stroke-linejoin="round"/>
<path d="M107.529 64.2976C109.019 53.006 101.074 42.6441 89.7819 41.1537C78.4903 39.6633 68.1284 47.6088 66.638 58.9004C65.1476 70.192 73.0931 80.5539 84.3847 82.0443C95.6763 83.5347 106.038 75.5893 107.529 64.2976Z" stroke="#343A40" stroke-width="5" stroke-miterlimit="10"/>
<path d="M76.3889 79.4453L68.75 93.1953" stroke="#343A40" stroke-width="5" stroke-linecap="round" stroke-linejoin="round"/>
<path d="M43.5417 2.29102V11.4577" stroke="#343A40" stroke-width="5" stroke-linecap="round" stroke-linejoin="round"/>
<path d="M13.75 91.6667H62.5671C64.6769 91.6238 66.7243 92.3837 68.2954 93.7925C69.8664 95.2014 70.844 97.1542 71.0304 99.2562C71.089 100.344 70.9252 101.433 70.5491 102.456C70.1731 103.478 69.5926 104.414 68.8431 105.204C68.0935 105.995 67.1907 106.625 66.1897 107.056C65.1887 107.486 64.1105 107.708 63.0209 107.708H13.75C12.2453 107.708 10.7553 107.412 9.36511 106.836C7.97492 106.26 6.71176 105.416 5.64776 104.352C3.4989 102.203 2.29169 99.2889 2.29169 96.25V73.3333C2.29169 70.2944 3.4989 67.3799 5.64776 65.2311C7.79661 63.0822 10.7111 61.875 13.75 61.875H36.6667" stroke="#343A40" stroke-width="5" stroke-linecap="round" stroke-linejoin="round"/>
<path d="M36.6666 71.041H18.3333V80.2077H36.6666V71.041Z" stroke="#343A40" stroke-width="5" stroke-linecap="round" stroke-linejoin="round"/>
<path d="M55 91.666V107.708" stroke="#343A40" stroke-width="5" stroke-linecap="round" stroke-linejoin="round"/>
</g>
<defs>
<clipPath id="clip0_3115_1924">
<rect width="110" height="110" fill="white"/>
</clipPath>
</defs>
</svg>
