<svg width="108" height="108" viewBox="0 0 108 108" fill="none" xmlns="http://www.w3.org/2000/svg">
<g clip-path="url(#clip0_3115_1974)">
<path d="M70.875 104.625H37.125L40.5 91.125H67.5L70.875 104.625Z" stroke="#343A40" stroke-width="5" stroke-linecap="round" stroke-linejoin="round"/>
<path d="M27 104.625H81" stroke="#343A40" stroke-width="5" stroke-linecap="round" stroke-linejoin="round"/>
<path d="M3.375 77.625H104.625" stroke="#343A40" stroke-width="5" stroke-linecap="round" stroke-linejoin="round"/>
<path d="M104.625 64.125V77.625C104.625 81.2054 103.203 84.6392 100.671 87.1709C98.1392 89.7027 94.7054 91.125 91.125 91.125H16.875C13.2946 91.125 9.8608 89.7027 7.32906 87.1709C4.79732 84.6392 3.375 81.2054 3.375 77.625V30.375C3.375 26.7946 4.79732 23.3608 7.32906 20.8291C9.8608 18.2973 13.2946 16.875 16.875 16.875H37.125" stroke="#343A40" stroke-width="5" stroke-linecap="round" stroke-linejoin="round"/>
<path d="M77.625 40.5C81.3529 40.5 84.375 37.4779 84.375 33.75C84.375 30.0221 81.3529 27 77.625 27C73.8971 27 70.875 30.0221 70.875 33.75C70.875 37.4779 73.8971 40.5 77.625 40.5Z" stroke="#343A40" stroke-width="5" stroke-linecap="round" stroke-linejoin="round"/>
<path d="M83.358 7.6494L85.347 14.1879C85.6752 15.2731 86.4033 16.1932 87.3841 16.7621C88.3648 17.331 89.525 17.5063 90.63 17.2524L97.254 15.7179C98.5095 15.435 99.8226 15.5614 101.001 16.0788C102.179 16.5962 103.161 17.4773 103.803 18.5931C104.444 19.7088 104.711 21.0007 104.565 22.2793C104.419 23.558 103.868 24.7564 102.991 25.6989L98.352 30.6849C97.5777 31.5175 97.1472 32.6124 97.1472 33.7494C97.1472 34.8864 97.5777 35.9813 98.352 36.8139L102.991 41.8134C103.868 42.7559 104.419 43.9543 104.565 45.233C104.711 46.5116 104.444 47.8035 103.803 48.9192C103.161 50.035 102.179 50.9161 101.001 51.4335C99.8226 51.9509 98.5095 52.0773 97.254 51.7944L90.63 50.2599C89.525 50.006 88.3648 50.1813 87.3841 50.7502C86.4033 51.3191 85.6752 52.2392 85.347 53.3244L83.358 59.8494C82.9883 61.0826 82.2309 62.1637 81.1982 62.9323C80.1654 63.7009 78.9124 64.116 77.625 64.116C76.3376 64.116 75.0845 63.7009 74.0518 62.9323C73.019 62.1637 72.2616 61.0826 71.892 59.8494L69.903 53.3109C69.5747 52.2257 68.8466 51.3056 67.8659 50.7367C66.8852 50.1678 65.725 49.9925 64.62 50.2464L57.996 51.7809C56.7405 52.0638 55.4274 51.9374 54.249 51.42C53.0705 50.9026 52.0887 50.0215 51.4474 48.9057C50.806 47.79 50.5387 46.4981 50.6846 45.2195C50.8306 43.9408 51.3821 42.7424 52.2585 41.7999L56.898 36.8004C57.6723 35.9678 58.1027 34.8729 58.1027 33.7359C58.1027 32.5989 57.6723 31.504 56.898 30.6714L52.2585 25.6854C51.3821 24.7429 50.8306 23.5445 50.6846 22.2658C50.5387 20.9872 50.806 19.6953 51.4474 18.5796C52.0887 17.4638 53.0705 16.5827 54.249 16.0653C55.4274 15.5479 56.7405 15.4215 57.996 15.7044L64.62 17.2389C65.725 17.4928 66.8852 17.3175 67.8659 16.7486C68.8466 16.1797 69.5747 15.2596 69.903 14.1744L71.892 7.6494C72.2616 6.41623 73.019 5.33511 74.0518 4.56652C75.0845 3.79792 76.3376 3.38281 77.625 3.38281C78.9124 3.38281 80.1654 3.79792 81.1982 4.56652C82.2309 5.33511 82.9883 6.41623 83.358 7.6494Z" stroke="#343A40" stroke-width="5" stroke-linecap="round" stroke-linejoin="round"/>
</g>
<defs>
<clipPath id="clip0_3115_1974">
<rect width="108" height="108" fill="white"/>
</clipPath>
</defs>
</svg>
