<svg width="121" height="121" viewBox="0 0 121 121" fill="none" xmlns="http://www.w3.org/2000/svg">
<path d="M28.81 114.14C28.7 114.14 28.6 114.14 28.49 114.12C27.8 114.04 27.19 113.69 26.76 113.14L14.07 96.8897C13.19 95.7597 13.39 94.1297 14.52 93.2397L21.99 87.4097C23.12 86.5297 24.76 86.7297 25.64 87.8597L38.33 104.11C39.21 105.24 39.01 106.87 37.88 107.76L30.41 113.59C29.95 113.95 29.39 114.14 28.82 114.14H28.81ZM16.68 95.3597L28.87 110.98L35.71 105.64L23.52 90.0197L16.69 95.3597H16.68Z" fill="#343A40" stroke="#343A40" stroke-miterlimit="10"/>
<path d="M67.23 105.221C67.06 105.221 66.88 105.211 66.71 105.191L43.96 102.451C42.83 102.321 41.82 101.751 41.12 100.871L30.23 87.2507C29.48 86.3207 29.16 85.1007 29.34 83.9207C29.52 82.7407 30.19 81.6807 31.18 81.0107L44.73 71.8107C45.51 71.2807 46.45 71.0207 47.39 71.0807L71.04 72.4307C73.31 72.5607 75.09 74.4407 75.09 76.7207V79.8807C75.09 82.2507 73.16 84.1807 70.79 84.1807H54.35C53.63 84.1807 53.05 84.7607 53.05 85.4807C53.05 86.2007 53.63 86.7807 54.35 86.7807H72.02C72.19 86.7807 72.34 86.7507 72.5 86.6907C73.96 86.1207 77.47 84.3607 78.55 80.4007C78.95 78.9207 80.03 77.7807 81.45 77.3407L92.51 73.9207C94.58 73.2807 96.81 74.2907 97.7 76.2607L98.89 78.9007C99.72 80.7407 99.14 82.9407 97.51 84.1407L69.79 104.401C69.05 104.941 68.17 105.231 67.26 105.231L67.23 105.221ZM47.13 74.0607C46.87 74.0607 46.61 74.1407 46.4 74.2807L32.84 83.4807C32.54 83.6907 32.34 84.0007 32.29 84.3607C32.24 84.7207 32.33 85.0807 32.56 85.3607L43.45 98.9807C43.66 99.2507 43.97 99.4207 44.31 99.4607L67.06 102.201C67.39 102.241 67.72 102.151 67.98 101.961L95.7 81.7007C96.19 81.3407 96.37 80.6707 96.12 80.1207L94.93 77.4807C94.66 76.8807 93.98 76.5807 93.36 76.7707L82.3 80.1907C81.88 80.3207 81.55 80.6907 81.41 81.1707C79.98 86.4407 75.45 88.7307 73.56 89.4607C73.06 89.6607 72.53 89.7607 71.99 89.7607H54.32C51.95 89.7607 50.02 87.8307 50.02 85.4607C50.02 83.0907 51.95 81.1607 54.32 81.1607H70.76C71.48 81.1607 72.06 80.5807 72.06 79.8607V76.7007C72.06 76.0107 71.52 75.4407 70.84 75.4007L47.19 74.0507C47.19 74.0507 47.14 74.0507 47.12 74.0507L47.13 74.0607Z" fill="#343A40" stroke="#343A40" stroke-miterlimit="10"/>
<path d="M81.01 73.4901L75.99 69.6101C74.22 69.5401 68.95 69.3501 62.4 69.0901C61.35 69.3901 59.97 69.3301 58.12 69.2001C57.34 69.1401 56.46 69.0801 56.06 69.1201C52.59 69.4901 49.24 68.6001 47.07 66.7401C46.91 66.5901 46.9 66.5801 46.85 66.5401L46.35 66.0701L46.02 65.6601C45.24 64.6601 44.78 63.5301 44.67 62.3701C44.22 57.9901 48.5 54.0701 54.43 53.4501C55.49 53.3401 56.53 53.3501 57.55 53.4701C58.98 50.6501 62.45 48.4901 66.59 48.0501C67.61 47.9501 68.6 47.9501 69.55 48.0501L73.82 45.3301L85.08 53.3701C89.56 53.2701 93.29 55.2001 94.68 58.2201C98.09 59.2601 100.41 61.6301 100.7 64.4901C100.75 64.9601 100.74 65.4201 100.67 65.8801L100.5 66.7601L100.22 67.9001L96.55 68.9001L81.01 73.4801V73.4901ZM61.74 65.0301L62.17 65.0801C70.45 65.4101 76.77 65.6401 76.77 65.6401L77.41 65.6601L81.83 69.0701L96.7 64.7201C96.44 63.4201 94.89 62.3001 92.76 61.8601L91.5 61.6001L91.21 60.3401C90.84 58.7201 88.23 57.1301 84.64 57.4001L83.92 57.4501L73.7 50.1501L70.43 52.2301L69.67 52.1001C68.84 51.9601 67.95 51.9301 67.01 52.0201C63.48 52.3901 61.11 54.3501 60.88 56.0301L60.64 57.7501H58.64L58.37 57.6801C57.26 57.3801 56.09 57.2901 54.87 57.4201C50.98 57.8201 48.48 60.1401 48.67 61.9601C48.71 62.3701 48.89 62.7901 49.18 63.1601L49.4 63.4201C49.51 63.5101 49.54 63.5301 49.76 63.7401C51.02 64.8201 53.31 65.3801 55.65 65.1201C56.4 65.0401 57.38 65.1201 58.42 65.1801C59.27 65.2401 60.85 65.3501 61.29 65.2201L61.75 64.9901L61.74 65.0301Z" fill="#343A40"/>
<path d="M69.01 50.8705C71.2 45.5305 72.7 39.4105 71.64 33.6205C71.22 31.6805 72.29 30.7205 70.97 29.0605C78.18 34.6105 75.49 40.4705 74.64 48.8205L69.01 50.8605V50.8705Z" fill="#343A40"/>
<path d="M74.78 37.7296L72.73 37.5696C72.47 37.5496 47.13 35.3296 48.09 9.86957L48.16 7.99957L50.03 7.94957C50.47 7.92957 61 7.72957 68.3 15.1596C73.07 20.0196 75.29 26.9196 74.88 35.6696L74.79 37.7296H74.78ZM52.07 12.0596C52.5 28.1396 65.66 32.2696 70.92 33.2796C70.85 26.7596 69.02 21.6196 65.47 17.9896C61.11 13.5296 55.11 12.3596 52.07 12.0596Z" fill="#343A40"/>
<path d="M70.61 37.1691L70.52 35.1091C70.12 26.3591 72.33 19.4491 77.1 14.5991C84.39 7.16907 94.92 7.37907 95.37 7.38907L97.24 7.43907L97.31 9.30907C98.27 34.7691 72.92 36.9891 72.67 37.0091L70.62 37.1691H70.61ZM93.32 11.4991C90.28 11.7991 84.29 12.9691 79.92 17.4291C76.37 21.0591 74.54 26.1991 74.47 32.7191C79.73 31.7091 92.89 27.5791 93.32 11.4991Z" fill="#343A40"/>
</svg>
