<svg width="108" height="108" viewBox="0 0 108 108" fill="none" xmlns="http://www.w3.org/2000/svg">
<g clip-path="url(#clip0_3135_1935)">
<path d="M106.99 65.31C106.99 64.29 106.51 63.65 105.5 63.42V63.47C104.27 63.19 103.06 62.88 101.84 62.65C101.41 62.57 101.2 62.39 101.05 62.01C100.62 60.88 99.74 59.73 99.85 58.66C99.95 57.58 101.02 56.61 101.67 55.58C101.81 55.36 101.96 55.15 102.08 54.92C102.54 54.12 102.46 53.36 101.82 52.7C100.46 51.31 99.09 49.94 97.69 48.57C97.04 47.93 96.26 47.85 95.47 48.33C94.71 48.78 93.92 49.21 93.25 49.77C92.23 50.64 91.33 50.5 90.1 50.06C88.31 49.44 87.58 48.42 87.31 46.59C86.8 43.39 86.7 43.37 83.4 43.42C82.52 43.42 82.24 43.26 82.24 42.31C82.29 31.66 82.27 21.04 82.27 10.4C82.27 4.72 78.55 1 72.89 1H35.13C34.54 1 33.94 1 33.37 1.09C28.79 1.84 25.75 5.39 25.75 10.08V45.95C25.75 46.65 25.72 47.06 24.84 46.9C21.86 46.33 19.78 44.69 18.95 41.76C18.13 38.84 19.03 36.33 21.34 34.34C21.6 34.13 21.89 33.94 22.1 33.7C22.76 32.97 22.82 32.17 22.21 31.41C21.63 30.68 20.84 30.57 20.03 30.96C19.64 31.16 19.29 31.44 18.95 31.72C15.53 34.8 14.38 38.57 15.62 42.99C16.78 47.05 20.54 50.06 24.85 50.39C25.67 50.45 25.77 50.73 25.77 51.43C25.73 54.3 25.77 57.17 25.73 60.03C25.73 60.4 26.11 61.02 25.22 61.07C24.47 61.1 24.09 60.94 23.97 60.12C23.83 59.15 23.55 58.19 23.36 57.22C23.2 56.35 22.69 55.87 21.87 55.65C20.26 55.23 18.74 54.59 17.31 53.75C16.52 53.28 15.79 53.37 15.05 53.86C14.17 54.45 13.25 55 12.36 55.58C12.11 55.73 11.89 55.99 11.6 55.68C10.99 55.06 10.18 54.5 9.85 53.74C9.64 53.27 10.43 52.64 10.74 52.08C11.05 51.58 11.35 51.06 11.69 50.59C12.28 49.79 12.3 48.98 11.78 48.13C10.99 46.81 10.36 45.39 10 43.87C9.77 42.93 9.22 42.32 8.22 42.17C7.72 42.09 7.22 41.94 6.72 41.83C4.5 41.36 4.53 41.36 4.51 39.11C4.51 38.41 4.79 38.25 5.35 38.14C6.32 37.94 7.28 37.68 8.25 37.52C9.21 37.35 9.74 36.8 9.97 35.89C10.35 34.34 10.97 32.9 11.78 31.54C12.27 30.74 12.27 29.96 11.72 29.17C11.43 28.74 11.16 28.3 10.88 27.88C9.57 25.86 9.59 25.86 11.35 24.23C11.7 23.9 11.95 23.83 12.37 24.12C13.27 24.76 14.23 25.31 15.15 25.9C15.84 26.33 16.52 26.4 17.24 25.98C18.73 25.1 20.32 24.44 21.99 23.99C22.74 23.79 23.18 23.3 23.33 22.54C23.7 20.82 24.09 19.11 24.43 17.37C24.66 16.19 24.06 15.31 23.04 15.12C22.09 14.96 21.28 15.55 21.01 16.69C20.72 17.86 20.46 19.05 20.23 20.25C20.16 20.66 20 20.92 19.59 21.04C18.45 21.36 17.39 22.36 16.35 22.27C15.28 22.18 14.29 21.13 13.25 20.49C13.07 20.37 12.87 20.26 12.69 20.14C11.75 19.52 10.91 19.62 10.12 20.43C8.86 21.72 7.57 22.98 6.32 24.28C5.44 25.19 5.38 25.83 6.08 26.94C6.66 27.88 7.26 28.79 7.86 29.72C8.42 30.61 7.04 34.13 6.02 34.37C4.85 34.66 3.66 34.92 2.47 35.19C1.47 35.42 1 36.07 1 37.09V40.95C1 44.27 1 44.34 4.3 44.91C5.93 45.19 7.23 45.62 7.51 47.51C7.55 47.85 7.75 48.2 7.96 48.51C8.31 49.04 8.28 49.47 7.9 49.98C7.22 50.94 6.62 51.96 5.99 52.95C5.44 53.81 5.52 54.62 6.23 55.35C7.55 56.69 8.89 58.01 10.21 59.33C10.94 60.05 11.73 60.17 12.61 59.62C13.27 59.21 13.98 58.88 14.56 58.38C15.69 57.39 16.67 57.49 18.09 58.01C19.81 58.63 20.38 59.62 20.67 61.26C21.25 64.59 21.34 64.62 24.7 64.56C25.58 64.56 25.77 64.81 25.77 65.64C25.73 76.24 25.75 86.83 25.75 97.43C25.75 103.3 29.43 106.96 35.33 106.98H72.65C78.62 106.98 82.27 103.33 82.27 97.37V62.04C82.27 61.39 82.23 60.93 83.16 61.07C85.94 61.48 88.39 63.48 89.07 66.17C89.83 69.12 88.99 71.62 86.7 73.61C86.45 73.82 86.17 74 85.94 74.25C85.34 74.89 85.25 75.61 85.71 76.38C86.15 77.09 86.82 77.3 87.61 77.17C88.1 77.07 88.46 76.74 88.83 76.44C92.26 73.73 93.66 69.29 92.41 65.05C91.21 60.96 87.49 57.92 83.12 57.57C82.4 57.51 82.24 57.31 82.24 56.63C82.27 53.68 82.29 50.74 82.24 47.79C82.24 47.05 82.46 46.88 83.16 46.9C83.67 46.9 83.87 47.08 83.96 47.55C84.14 48.52 84.4 49.48 84.55 50.47C84.74 51.55 85.31 52.17 86.36 52.42C87.81 52.75 89.16 53.33 90.41 54.1C91.33 54.67 92.19 54.7 93.07 54.04C93.45 53.75 93.87 53.53 94.27 53.27C96.24 52.01 96.23 52.02 97.84 53.71C98.22 54.1 98.28 54.36 97.95 54.82C97.32 55.68 96.79 56.61 96.21 57.49C95.76 58.21 95.68 58.91 96.12 59.67C96.99 61.13 97.63 62.68 98.07 64.32C98.28 65.11 98.77 65.58 99.57 65.73C100.12 65.84 100.64 65.99 101.19 66.1C103.56 66.61 103.53 66.61 103.47 68.99C103.47 69.49 103.31 69.69 102.83 69.78C101.82 69.97 100.82 70.25 99.82 70.42C98.83 70.6 98.24 71.11 98.01 72.09C97.63 73.64 97.01 75.08 96.2 76.44C95.71 77.24 95.73 78.03 96.29 78.81C96.59 79.23 96.85 79.67 97.13 80.1C98.43 82.12 98.42 82.11 96.64 83.75C96.26 84.08 96.03 84.11 95.62 83.82C94.72 83.2 93.77 82.62 92.84 82.05C92.16 81.62 91.47 81.57 90.76 81.98C89.3 82.84 87.75 83.51 86.1 83.93C85.31 84.14 84.84 84.6 84.68 85.42C84.33 87.11 83.93 88.8 83.6 90.48C83.35 91.7 83.87 92.57 84.87 92.79C85.85 93.02 86.71 92.41 87 91.23C87.29 90.06 87.55 88.87 87.78 87.67C87.85 87.24 88.04 87.03 88.42 86.88C89.54 86.45 90.7 85.57 91.76 85.68C92.84 85.79 93.81 86.85 94.85 87.5C95 87.59 95.17 87.7 95.32 87.79C96.26 88.43 97.11 88.28 97.89 87.49C99.15 86.2 100.43 84.92 101.7 83.64C102.49 82.85 102.6 82.02 101.98 81.06C101.31 80.04 100.65 79.02 100 78C99.82 77.73 99.7 77.5 99.85 77.1C101.17 73.7 101.15 73.7 104.79 72.92C105.05 72.86 105.29 72.8 105.53 72.74C106.49 72.51 106.98 71.89 106.99 70.93C107.01 69.06 106.99 67.18 106.99 65.31ZM78.73 97.57C78.73 101.37 76.6 103.48 72.77 103.48H35.24C31.36 103.48 29.28 101.37 29.28 97.46V10.68C29.28 6.61 31.31 4.56 35.34 4.56H72.77C76.6 4.56 78.73 6.66 78.73 10.47V97.57Z" fill="#343A40"/>
<path d="M106.99 65.31C106.99 64.29 106.51 63.65 105.5 63.42V63.47C104.27 63.19 103.06 62.88 101.84 62.65C101.41 62.57 101.2 62.39 101.05 62.01C100.62 60.88 99.74 59.73 99.85 58.66C99.95 57.58 101.02 56.61 101.67 55.58C101.81 55.36 101.96 55.15 102.08 54.92C102.54 54.12 102.46 53.36 101.82 52.7C100.46 51.31 99.09 49.94 97.69 48.57C97.04 47.93 96.26 47.85 95.47 48.33C94.71 48.78 93.92 49.21 93.25 49.77C92.23 50.64 91.33 50.5 90.1 50.06C88.31 49.44 87.58 48.42 87.31 46.59C86.8 43.39 86.7 43.37 83.4 43.42C82.52 43.42 82.24 43.26 82.24 42.31C82.29 31.66 82.27 21.04 82.27 10.4C82.27 4.72 78.55 1 72.89 1H35.13C34.54 1 33.94 1 33.37 1.09C28.79 1.84 25.75 5.39 25.75 10.08V45.95C25.75 46.65 25.72 47.06 24.84 46.9C21.86 46.33 19.78 44.69 18.95 41.76C18.13 38.84 19.03 36.33 21.34 34.34C21.6 34.13 21.89 33.94 22.1 33.7C22.76 32.97 22.82 32.17 22.21 31.41C21.63 30.68 20.84 30.57 20.03 30.96C19.64 31.16 19.29 31.44 18.95 31.72C15.53 34.8 14.38 38.57 15.62 42.99C16.78 47.05 20.54 50.06 24.85 50.39C25.67 50.45 25.77 50.73 25.77 51.43C25.73 54.3 25.77 57.17 25.73 60.03C25.73 60.4 26.11 61.02 25.22 61.07C24.47 61.1 24.09 60.94 23.97 60.12C23.83 59.15 23.55 58.19 23.36 57.22C23.2 56.35 22.69 55.87 21.87 55.65C20.26 55.23 18.74 54.59 17.31 53.75C16.52 53.28 15.79 53.37 15.05 53.86C14.17 54.45 13.25 55 12.36 55.58C12.11 55.73 11.89 55.99 11.6 55.68C10.99 55.06 10.18 54.5 9.85 53.74C9.64 53.27 10.43 52.64 10.74 52.08C11.05 51.58 11.35 51.06 11.69 50.59C12.28 49.79 12.3 48.98 11.78 48.13C10.99 46.81 10.36 45.39 10 43.87C9.77 42.93 9.22 42.32 8.22 42.17C7.72 42.09 7.22 41.94 6.72 41.83C4.5 41.36 4.53 41.36 4.51 39.11C4.51 38.41 4.79 38.25 5.35 38.14C6.32 37.94 7.28 37.68 8.25 37.52C9.21 37.35 9.74 36.8 9.97 35.89C10.35 34.34 10.97 32.9 11.78 31.54C12.27 30.74 12.27 29.96 11.72 29.17C11.43 28.74 11.16 28.3 10.88 27.88C9.57 25.86 9.59 25.86 11.35 24.23C11.7 23.9 11.95 23.83 12.37 24.12C13.27 24.76 14.23 25.31 15.15 25.9C15.84 26.33 16.52 26.4 17.24 25.98C18.73 25.1 20.32 24.44 21.99 23.99C22.74 23.79 23.18 23.3 23.33 22.54C23.7 20.82 24.09 19.11 24.43 17.37C24.66 16.19 24.06 15.31 23.04 15.12C22.09 14.96 21.28 15.55 21.01 16.69C20.72 17.86 20.46 19.05 20.23 20.25C20.16 20.66 20 20.92 19.59 21.04C18.45 21.36 17.39 22.36 16.35 22.27C15.28 22.18 14.29 21.13 13.25 20.49C13.07 20.37 12.87 20.26 12.69 20.14C11.75 19.52 10.91 19.62 10.12 20.43C8.86 21.72 7.57 22.98 6.32 24.28C5.44 25.19 5.38 25.83 6.08 26.94C6.66 27.88 7.26 28.79 7.86 29.72C8.42 30.61 7.04 34.13 6.02 34.37C4.85 34.66 3.66 34.92 2.47 35.19C1.47 35.42 1 36.07 1 37.09V40.95C1 44.27 1 44.34 4.3 44.91C5.93 45.19 7.23 45.62 7.51 47.51C7.55 47.85 7.75 48.2 7.96 48.51C8.31 49.04 8.28 49.47 7.9 49.98C7.22 50.94 6.62 51.96 5.99 52.95C5.44 53.81 5.52 54.62 6.23 55.35C7.55 56.69 8.89 58.01 10.21 59.33C10.94 60.05 11.73 60.17 12.61 59.62C13.27 59.21 13.98 58.88 14.56 58.38C15.69 57.39 16.67 57.49 18.09 58.01C19.81 58.63 20.38 59.62 20.67 61.26C21.25 64.59 21.34 64.62 24.7 64.56C25.58 64.56 25.77 64.81 25.77 65.64C25.73 76.24 25.75 86.83 25.75 97.43C25.75 103.3 29.43 106.96 35.33 106.98H72.65C78.62 106.98 82.27 103.33 82.27 97.37V62.04C82.27 61.39 82.23 60.93 83.16 61.07C85.94 61.48 88.39 63.48 89.07 66.17C89.83 69.12 88.99 71.62 86.7 73.61C86.45 73.82 86.17 74 85.94 74.25C85.34 74.89 85.25 75.61 85.71 76.38C86.15 77.09 86.82 77.3 87.61 77.17C88.1 77.07 88.46 76.74 88.83 76.44C92.26 73.73 93.66 69.29 92.41 65.05C91.21 60.96 87.49 57.92 83.12 57.57C82.4 57.51 82.24 57.31 82.24 56.63C82.27 53.68 82.29 50.74 82.24 47.79C82.24 47.05 82.46 46.88 83.16 46.9C83.67 46.9 83.87 47.08 83.96 47.55C84.14 48.52 84.4 49.48 84.55 50.47C84.74 51.55 85.31 52.17 86.36 52.42C87.81 52.75 89.16 53.33 90.41 54.1C91.33 54.67 92.19 54.7 93.07 54.04C93.45 53.75 93.87 53.53 94.27 53.27C96.24 52.01 96.23 52.02 97.84 53.71C98.22 54.1 98.28 54.36 97.95 54.82C97.32 55.68 96.79 56.61 96.21 57.49C95.76 58.21 95.68 58.91 96.12 59.67C96.99 61.13 97.63 62.68 98.07 64.32C98.28 65.11 98.77 65.58 99.57 65.73C100.12 65.84 100.64 65.99 101.19 66.1C103.56 66.61 103.53 66.61 103.47 68.99C103.47 69.49 103.31 69.69 102.83 69.78C101.82 69.97 100.82 70.25 99.82 70.42C98.83 70.6 98.24 71.11 98.01 72.09C97.63 73.64 97.01 75.08 96.2 76.44C95.71 77.24 95.73 78.03 96.29 78.81C96.59 79.23 96.85 79.67 97.13 80.1C98.43 82.12 98.42 82.11 96.64 83.75C96.26 84.08 96.03 84.11 95.62 83.82C94.72 83.2 93.77 82.62 92.84 82.05C92.16 81.62 91.47 81.57 90.76 81.98C89.3 82.84 87.75 83.51 86.1 83.93C85.31 84.14 84.84 84.6 84.68 85.42C84.33 87.11 83.93 88.8 83.6 90.48C83.35 91.7 83.87 92.57 84.87 92.79C85.85 93.02 86.71 92.41 87 91.23C87.29 90.06 87.55 88.87 87.78 87.67C87.85 87.24 88.04 87.03 88.42 86.88C89.54 86.45 90.7 85.57 91.76 85.68C92.84 85.79 93.81 86.85 94.85 87.5C95 87.59 95.17 87.7 95.32 87.79C96.26 88.43 97.11 88.28 97.89 87.49C99.15 86.2 100.43 84.92 101.7 83.64C102.49 82.85 102.6 82.02 101.98 81.06C101.31 80.04 100.65 79.02 100 78C99.82 77.73 99.7 77.5 99.85 77.1C101.17 73.7 101.15 73.7 104.79 72.92C105.05 72.86 105.29 72.8 105.53 72.74C106.49 72.51 106.98 71.89 106.99 70.93C107.01 69.06 106.99 67.18 106.99 65.31ZM78.73 97.57C78.73 101.37 76.6 103.48 72.77 103.48H35.24C31.36 103.48 29.28 101.37 29.28 97.46V10.68C29.28 6.61 31.31 4.56 35.34 4.56H72.77C76.6 4.56 78.73 6.66 78.73 10.47V97.57Z" stroke="#343A40" stroke-width="1.2"/>
<path d="M93.15 16.9695C93.15 17.5695 92.88 18.1295 92.48 18.5295C92.08 18.9295 91.53 19.1895 90.96 19.1595C90.38 19.1395 89.89 18.9195 89.55 18.5295C89.21 18.1495 89.03 17.6395 89.03 17.0495C89.03 15.7595 89.94 14.7995 91.17 14.8495C92.28 14.9095 93.17 15.8495 93.15 16.9695Z" fill="#343A40" stroke="#343A40" stroke-width="0.6"/>
<path d="M91.38 21.9599V21.9199H91.08C89.85 21.9199 89 22.9199 89.03 24.1999C89.03 24.7799 89.24 25.2999 89.6 25.6699C89.96 26.0399 90.47 26.2499 91.04 26.2499C91.61 26.2499 92.16 25.9599 92.54 25.5499C92.92 25.1299 93.16 24.5699 93.15 23.9699C93.13 22.9499 92.35 22.1099 91.37 21.9699L91.38 21.9599Z" fill="#343A40" stroke="#343A40" stroke-width="0.6"/>
<path d="M90.98 33.3009C91.56 33.3209 92.1 33.0509 92.49 32.6409C92.88 32.2309 93.15 31.6709 93.16 31.0709C93.16 29.9509 92.28 29.0109 91.15 28.9909C89.93 28.9609 89.03 29.9209 89.03 31.2109C89.03 31.8009 89.21 32.3109 89.56 32.6909C89.91 33.0709 90.4 33.2809 90.98 33.3009Z" fill="#343A40"/>
<path d="M90.98 33.3009C91.56 33.3209 92.1 33.0509 92.49 32.6409C92.88 32.2309 93.15 31.6709 93.16 31.0709C93.16 29.9509 92.28 29.0109 91.15 28.9909C89.93 28.9609 89.03 29.9209 89.03 31.2109C89.03 31.8009 89.21 32.3109 89.56 32.6909C89.91 33.0709 90.4 33.2809 90.98 33.3009ZM90.98 33.3009V33.0009" stroke="#343A40" stroke-width="0.6"/>
<path d="M18.97 76.6802C18.95 77.9102 17.95 78.8802 16.77 78.8502C16.19 78.8302 15.69 78.6202 15.35 78.2402C15.01 77.8602 14.84 77.3402 14.84 76.7502C14.86 75.5002 15.78 74.5202 16.99 74.5702C18.1 74.6102 18.98 75.5902 18.97 76.6802Z" fill="#343A40" stroke="#343A40" stroke-width="0.6"/>
<path d="M16.5 85.8705V85.9005H16.8C17.98 85.9205 18.96 84.9105 18.97 83.7105C18.97 82.6105 18.07 81.6505 16.96 81.6105C15.75 81.5705 14.84 82.5705 14.84 83.8305C14.84 84.4205 15.02 84.9405 15.37 85.3105C15.66 85.6205 16.05 85.8105 16.5 85.8705Z" fill="#343A40" stroke="#343A40" stroke-width="0.6"/>
<path d="M16.65 88.7099V88.6699H16.96C18.07 88.7199 18.97 89.6699 18.97 90.7699C18.95 91.9799 17.98 92.9899 16.8 92.9699M16.65 88.7099C15.6 88.8399 14.84 89.7699 14.84 90.9099C14.84 91.4999 15.02 92.0199 15.37 92.3899C15.72 92.7599 16.22 92.9599 16.79 92.9699M16.65 88.7099V88.9999H16.84L16.65 88.7099Z" fill="#343A40"/>
<path d="M16.65 88.7099V88.6699H16.96C18.07 88.7199 18.97 89.6699 18.97 90.7699C18.95 91.9799 17.98 92.9899 16.8 92.9699M16.65 88.7099C15.6 88.8399 14.84 89.7699 14.84 90.9099C14.84 91.4999 15.02 92.0199 15.37 92.3899C15.72 92.7599 16.22 92.9599 16.79 92.9699V92.6699M16.65 88.7099V88.9999H16.84L16.65 88.7099Z" stroke="#343A40" stroke-width="0.6"/>
<path d="M36.7 55.4898V55.4998M41.27 53.7598L41.16 54.1398" stroke="#343A40" stroke-width="0.6"/>
<path d="M46.44 59.4108C44.77 57.7108 43.08 56.0008 41.37 54.3408L41.16 54.1408C41.12 54.0708 41.11 54.0308 41.11 54.0108C41.11 53.9808 41.12 53.9108 41.27 53.7608C41.3 53.7308 41.33 53.7008 41.36 53.6708C42.42 52.6408 43.46 51.6008 44.49 50.5608L46.36 48.6908C46.81 48.2408 47.23 47.7108 47.24 46.8108V46.7708C47.17 46.1508 46.85 45.4808 46.07 45.1108C45.64 44.8908 45.21 44.8308 44.8 44.9008C44.39 44.9808 44.02 45.2008 43.71 45.5108L36.69 52.5208C36.26 52.9708 36.02 53.4808 36.02 54.0208C36.02 54.5608 36.26 55.0508 36.7 55.4908L36.91 55.2908L36.7 55.5008C39.01 57.8608 41.35 60.2008 43.71 62.5108C44.09 62.8808 44.53 63.1108 45 63.1508C45.48 63.2008 45.95 63.0508 46.4 62.7208C46.95 62.3308 47.25 61.7808 47.25 61.1708C47.25 60.5608 46.97 59.9508 46.44 59.4108ZM43.92 45.7308C43.79 45.8608 43.66 45.9908 43.53 46.1208V46.0908L43.92 45.7308Z" fill="#343A40" stroke="#343A40" stroke-width="0.6"/>
<path d="M66.79 53.8301V54.2201L66.81 54.6701M66.79 53.8301C66.87 53.9301 66.89 53.9801 66.89 54.0201C66.89 54.0501 66.89 54.1101 66.8 54.2201C66.76 54.2801 66.7 54.3601 66.6 54.4501L66.81 54.6701" stroke="#343A40" stroke-width="0.6"/>
<path d="M70.96 55.4909C68.76 57.7109 66.55 59.9109 64.33 62.1209C63.41 63.0309 62.39 63.1009 61.61 62.3609C60.82 61.5809 60.91 60.5309 61.89 59.5609C62.09 59.3609 62.29 59.1509 62.49 58.9509C63.92 57.5109 65.35 56.0609 66.81 54.6709C67.36 54.1309 67.28 53.8609 66.78 53.3709V53.8309C66.75 53.7709 66.68 53.6909 66.57 53.5909C65.34 52.3909 64.14 51.1809 62.93 49.9709C62.45 49.4909 61.97 49.0009 61.49 48.5209C61.19 48.2209 60.95 47.8709 60.84 47.4709C60.73 47.0709 60.76 46.6409 60.94 46.1909C61.28 45.3409 61.95 44.9509 62.73 44.8809H62.75C63.53 44.8809 64.06 45.2409 64.49 45.6709L64.52 45.7009L64.54 45.7309L64.29 45.9109C65.03 46.6509 65.78 47.4009 66.53 48.1409C68.02 49.6309 69.51 51.1109 70.99 52.6109C71.97 53.6009 71.95 54.4809 70.96 55.4909Z" fill="#343A40" stroke="#343A40" stroke-width="0.6"/>
<path d="M53.27 48.3903C53.24 48.5403 53.2 48.6903 53.17 48.8403C52.69 50.7603 52.21 52.6803 51.73 54.6103C51.25 56.5303 50.76 58.4603 50.29 60.3803C50.1 61.1103 50.22 61.8103 50.6 62.3303C50.98 62.8503 51.61 63.1603 52.38 63.1603H52.4C53.31 63.1103 54.03 62.5203 54.27 61.5203C55.46 56.8503 56.63 52.2003 57.77 47.5303C58.02 46.5103 57.55 45.5603 56.7 45.1303L56.76 45.0703L56.23 44.9503C55.15 44.7003 54.11 45.3403 53.76 46.4803C53.57 47.1203 53.43 47.7703 53.28 48.4103L53.27 48.3903Z" fill="#343A40" stroke="#343A40" stroke-width="0.6"/>
<path d="M58.29 7.76953L58.31 7.78953H49.02C48.32 7.78953 47.73 7.97953 47.31 8.34953C46.88 8.71953 46.66 9.24953 46.66 9.85953C46.66 10.4695 46.89 10.9995 47.32 11.3695C47.75 11.7295 48.34 11.9095 49.04 11.9095H59.06C59.72 11.9095 60.3 11.7195 60.71 11.3695C61.13 11.0095 61.36 10.4995 61.37 9.89953C61.39 9.27953 61.17 8.73953 60.74 8.35953C60.32 7.97953 59.72 7.77953 59.03 7.77953H58.31L58.29 7.76953Z" fill="#343A40" stroke="#343A40" stroke-width="0.6"/>
</g>
<defs>
<clipPath id="clip0_3135_1935">
<rect width="108" height="108" fill="white"/>
</clipPath>
</defs>
</svg>
