<svg width="121" height="121" viewBox="0 0 121 121" fill="none" xmlns="http://www.w3.org/2000/svg">
<g clip-path="url(#clip0_3134_1923)">
<path d="M34.628 6.53496C34.628 6.53496 34.694 6.55696 34.694 6.56796C34.21 6.61196 33.77 6.79896 33.341 6.98596C33.264 7.01896 33.187 7.06296 33.11 7.10696C33.11 7.10696 33.11 7.10696 33.099 7.10696C32.296 7.51396 31.592 8.05296 31.042 8.77896C30.866 9.00996 30.613 9.20796 30.525 9.49396C30.448 9.60396 30.382 9.70296 30.316 9.81296C29.799 10.693 29.557 11.661 29.557 12.673C29.535 14.598 29.557 16.534 29.557 18.459C29.557 19.031 29.535 19.02 28.974 19.02C27.775 19.02 26.587 18.954 25.399 19.119C24.398 19.262 23.386 19.328 22.407 19.625C22.253 19.68 22.088 19.735 21.934 19.779C21.604 19.823 21.296 19.933 20.977 20.021C20.856 20.054 20.735 20.087 20.614 20.12C20.57 20.131 20.526 20.142 20.471 20.153C20.306 20.219 20.141 20.274 19.976 20.34C19.943 20.34 19.91 20.362 19.877 20.373C19.855 20.373 19.844 20.395 19.822 20.395C19.822 20.395 19.811 20.395 19.8 20.395C19.789 20.395 19.767 20.395 19.745 20.417C19.25 20.593 18.722 20.692 18.293 21.011C18.227 21.055 18.15 21.099 18.084 21.143C18.007 21.176 17.919 21.209 17.842 21.231C17.798 21.253 17.765 21.264 17.721 21.286C17.633 21.33 17.545 21.374 17.446 21.429C17.237 21.506 17.039 21.605 16.852 21.715C16.764 21.748 16.676 21.77 16.577 21.792C16.159 21.913 15.851 22.221 15.477 22.43C13.772 23.42 12.243 24.641 10.879 26.06C10.846 26.115 10.813 26.17 10.769 26.225C10.648 26.313 10.538 26.412 10.472 26.544C10.428 26.588 10.384 26.632 10.34 26.676C8.789 28.282 7.568 30.119 6.622 32.132C6.589 32.275 6.556 32.429 6.457 32.55C6.435 32.583 6.413 32.627 6.402 32.671C6.38 32.748 6.347 32.814 6.314 32.891C6.27 32.957 6.237 33.023 6.193 33.089C5.841 33.584 5.709 34.167 5.522 34.728C5.379 35.157 5.115 35.564 5.126 36.037C5.126 36.081 5.104 36.125 5.093 36.158C5.082 36.279 5.049 36.411 5.027 36.532V36.554C5.027 36.576 5.027 36.598 5.016 36.62C4.983 36.752 4.95 36.884 4.917 37.027C4.851 37.247 4.785 37.467 4.741 37.687C4.697 37.885 4.653 38.083 4.631 38.281C4.543 38.611 4.433 38.941 4.433 39.304C4.433 39.359 4.433 39.414 4.433 39.48C4.4 39.546 4.367 39.612 4.334 39.678V45.079L4.378 45.101H4.422C4.466 45.299 4.4 45.508 4.521 45.684C4.543 45.959 4.554 46.234 4.719 46.465C4.741 47.103 4.972 47.708 5.126 48.324C5.093 49.072 5.445 49.721 5.709 50.392C5.742 50.656 5.797 50.898 6.017 51.074C5.962 51.283 5.995 51.47 6.226 51.558C7.062 53.285 7.964 54.968 9.163 56.464C9.185 56.706 9.328 56.871 9.548 56.97C10.241 57.784 10.945 58.576 11.726 59.313C12.012 59.731 12.331 60.105 12.815 60.292C13.816 60.996 14.762 61.777 15.851 62.36C16.5 62.866 17.226 63.218 18.007 63.46C18.876 63.933 19.833 64.197 20.757 64.527C20.845 64.67 20.999 64.692 21.142 64.736C21.901 64.967 22.66 65.165 23.452 65.275C24.288 65.385 25.102 65.616 25.949 65.616C26.862 65.616 27.786 65.616 28.699 65.616C29.59 65.616 29.59 65.616 29.59 66.474C29.59 80.246 29.59 94.029 29.59 107.801C29.59 108.725 29.667 109.627 30.019 110.485C30.129 110.76 30.195 111.09 30.492 111.255C30.437 111.387 30.503 111.497 30.58 111.607C31.031 112.267 31.537 112.872 32.197 113.334C32.549 113.576 32.879 113.873 33.341 113.906C34.265 114.28 35.211 114.511 36.234 114.511C59.444 114.5 82.654 114.511 105.864 114.511C106.095 114.511 106.326 114.511 106.546 114.489C107.151 114.566 107.679 114.335 108.218 114.115C108.647 114.104 108.977 113.862 109.296 113.62C110.253 113.07 111.001 112.322 111.551 111.365C111.793 111.046 112.035 110.716 112.046 110.287C112.266 109.748 112.497 109.22 112.42 108.615C112.42 108.34 112.442 108.054 112.442 107.779C112.442 81.907 112.442 56.024 112.453 30.152C112.453 29.217 112.123 28.513 111.496 27.897C110.627 27.028 109.758 26.17 108.889 25.301C106.502 22.903 104.104 20.505 101.717 18.118C101.541 17.7 101.244 17.403 100.826 17.227C100.716 17.128 100.606 17.029 100.507 16.93C97.35 13.784 94.204 10.627 91.047 7.48096C90.739 7.17296 90.409 6.87596 89.991 6.72196C90.013 6.66696 89.826 6.57896 89.991 6.55696C90.178 6.52396 90.387 6.53496 90.574 6.53496M92.807 15.225C92.906 15.324 92.994 15.423 93.093 15.522C93.192 15.742 93.39 15.874 93.566 16.028C93.731 16.193 93.885 16.358 94.05 16.523C94.182 16.655 94.325 16.787 94.457 16.919C94.655 17.117 94.842 17.304 95.04 17.502C95.205 17.667 95.37 17.832 95.524 17.997C95.854 18.327 96.184 18.657 96.514 18.976C96.679 19.141 96.844 19.306 97.009 19.482C97.295 19.779 97.548 20.12 97.911 20.34C97.944 20.373 97.977 20.395 98.01 20.428C98.109 20.659 98.274 20.824 98.505 20.923C98.538 20.956 98.56 20.989 98.593 21.022C98.923 21.473 99.352 21.836 99.748 22.221C99.88 22.353 100.023 22.485 100.155 22.617C100.122 22.595 100.122 22.562 100.133 22.54C100.133 22.54 100.144 22.551 100.155 22.562C100.155 22.584 100.155 22.606 100.155 22.617C100.353 22.815 100.54 23.002 100.738 23.2C100.903 23.365 101.068 23.53 101.222 23.695C101.42 23.893 101.629 24.091 101.827 24.289C101.948 24.421 102.08 24.553 102.201 24.674C102.432 24.905 102.663 25.136 102.905 25.367C103.125 25.598 103.312 25.884 103.609 26.038C103.609 26.038 103.675 26.093 103.708 26.126C103.741 26.291 103.84 26.39 104.005 26.423C104.104 26.522 104.192 26.621 104.291 26.72C104.412 27.039 104.797 27.149 104.907 27.479C104.852 27.49 104.819 27.512 104.797 27.512C100.342 27.512 95.876 27.512 91.421 27.512C91.421 27.468 91.41 27.413 91.41 27.369C91.41 22.991 91.41 18.613 91.41 14.235C91.41 14.158 91.377 14.07 91.509 14.037C91.762 14.279 92.026 14.521 92.29 14.763C92.444 14.939 92.576 15.148 92.818 15.236L92.807 15.225ZM107.657 31.813C108.097 31.813 108.229 31.912 108.229 32.374C108.218 57.52 108.229 82.655 108.218 107.801C108.218 109.407 107.349 110.276 105.721 110.276C82.61 110.276 59.499 110.276 36.388 110.276C35.816 110.276 35.288 110.177 34.804 109.869C34.111 109.264 33.902 108.494 33.902 107.592C33.924 104.589 33.902 101.575 33.902 98.572C33.902 87.286 33.902 76.011 33.902 64.725C34.617 64.461 35.332 64.197 36.058 63.933C36.344 64.01 36.564 63.834 36.784 63.724C37.345 63.46 37.961 63.306 38.412 62.844C40.359 61.821 42.097 60.501 43.703 59.016C44.209 58.675 44.594 58.202 45.001 57.751C45.221 57.454 45.562 57.234 45.672 56.849C47.146 54.924 48.378 52.867 49.225 50.59C49.566 49.908 49.808 49.193 49.918 48.423C50.072 48.214 50.171 47.994 50.116 47.73C50.765 45.046 50.941 42.34 50.6 39.601C50.589 39.535 50.578 39.469 50.567 39.403C50.567 39.469 50.589 39.535 50.6 39.601C50.6 39.117 50.754 38.622 50.435 38.182C50.402 37.335 50.149 36.543 49.907 35.751C49.808 35.421 49.83 35.036 49.522 34.783C48.906 33.232 48.224 31.703 47.366 30.273C47.289 30.042 47.256 29.778 46.959 29.69C46.453 28.898 45.903 28.15 45.298 27.435C45.133 27.05 44.891 26.731 44.506 26.544C42.647 24.586 40.535 22.958 38.126 21.726C38.016 21.616 37.906 21.517 37.741 21.517C37.092 21.121 36.41 20.824 35.673 20.637C35.277 20.505 34.892 20.373 34.496 20.241C34.012 20.12 33.88 19.812 33.891 19.317C33.924 17.348 33.913 15.368 33.891 13.399C33.891 12.948 33.924 12.519 34.089 12.101C34.683 11.045 35.651 10.814 36.784 10.814C53.317 10.825 69.861 10.825 86.394 10.814C86.867 10.814 86.999 10.924 86.999 11.408C86.977 17.348 86.988 23.277 86.999 29.217C86.999 29.404 86.922 29.613 87.087 29.778C87.307 31.263 88.341 31.835 89.617 31.835C95.623 31.813 101.64 31.835 107.646 31.813H107.657ZM25.916 61.26C25.135 61.194 24.365 61.029 23.595 60.897C23.353 60.589 22.968 60.644 22.649 60.578C21.967 60.424 21.362 60.05 20.647 60.017C20.427 59.731 20.075 59.731 19.789 59.588C19.118 59.192 18.458 58.774 17.71 58.543C17.677 58.521 17.633 58.488 17.6 58.466C16.863 57.916 16.159 57.322 15.356 56.871C15.224 56.75 15.092 56.618 14.949 56.497C14.949 56.244 14.707 56.167 14.553 56.046C14.102 55.661 13.805 55.133 13.277 54.825C13.079 54.594 12.881 54.374 12.683 54.143C12.683 53.945 12.584 53.802 12.386 53.747C12.32 53.648 12.254 53.56 12.188 53.461C11.979 52.944 11.682 52.482 11.297 52.086C11.044 51.789 10.868 51.459 10.714 51.107C10.582 50.348 10.153 49.71 9.845 49.028C9.779 48.841 9.636 48.676 9.636 48.456C9.68 48.269 9.636 48.137 9.46 48.038C9.361 47.708 9.262 47.378 9.163 47.048C9.207 46.784 9.064 46.575 8.965 46.344C8.866 45.684 8.756 45.024 8.679 44.353C8.437 42.186 8.58 40.052 9.108 37.929C9.262 37.324 9.416 36.73 9.636 36.147C9.823 35.993 9.9 35.795 9.845 35.564C10.252 34.541 10.714 33.54 11.308 32.616C11.539 32.396 11.748 32.154 11.803 31.824C11.935 31.626 12.067 31.439 12.199 31.241C12.606 30.966 12.87 30.581 13.079 30.152C13.541 29.536 14.091 29.008 14.641 28.491C14.949 28.447 15.092 28.227 15.235 27.996C16.214 27.05 17.358 26.346 18.535 25.686C18.59 25.653 18.634 25.609 18.689 25.565C19.085 25.466 19.448 25.323 19.767 25.059C20.284 24.861 20.812 24.663 21.329 24.465C21.428 24.465 21.538 24.498 21.615 24.465C22.605 24.08 23.65 23.937 24.684 23.717C25.3 23.585 25.366 23.651 25.366 24.256C25.366 27.49 25.366 30.724 25.366 33.958C25.366 36.752 25.366 39.546 25.366 42.34C25.366 42.692 25.355 43.066 25.663 43.33C26.235 44.243 27.093 44.507 28.138 44.496C34.012 44.474 39.886 44.496 45.749 44.496C46.2037 44.496 46.3907 44.7306 46.31 45.2C45.925 45.508 46.134 45.926 46.112 46.3V46.476H46.101C45.848 46.597 45.925 46.839 45.881 47.048C45.595 47.884 45.298 48.709 45.023 49.545C44.902 49.908 44.572 50.183 44.638 50.601C44.451 50.667 44.396 50.81 44.44 50.997C44.044 51.459 43.714 51.976 43.56 52.57C43.098 53.241 42.669 53.945 42.086 54.528C41.976 54.517 41.921 54.583 41.844 54.66C41.261 55.265 40.656 55.859 40.073 56.464C39.952 56.596 39.71 56.64 39.71 56.882C38.28 58.169 36.63 59.115 34.859 59.863C31.988 61.073 28.996 61.535 25.905 61.271L25.916 61.26ZM29.656 24.113C29.656 23.673 29.733 23.508 30.217 23.585C32.549 23.926 34.749 24.652 36.806 25.818C37.829 26.401 38.808 27.05 39.699 27.82C39.93 28.172 40.271 28.425 40.579 28.7C40.931 29.063 41.294 29.426 41.646 29.8C41.734 29.91 41.811 30.031 41.965 30.075C42.339 30.46 42.647 30.9 42.955 31.34C43.252 32.077 43.824 32.671 44.132 33.408C44.33 33.826 44.495 34.255 44.814 34.585C44.88 34.717 44.946 34.849 45.001 34.981C45.166 35.663 45.353 36.334 45.694 36.95C46.024 37.907 46.222 38.897 46.343 39.909C46.376 40.162 46.321 40.294 46.046 40.261C45.98 40.261 45.914 40.261 45.848 40.261C40.623 40.261 35.398 40.261 30.173 40.261C29.733 40.261 29.634 40.151 29.634 39.711C29.645 34.508 29.645 29.305 29.634 24.113H29.656Z" fill="#343A40"/>
<path d="M65.747 40.25C64.922 40.25 64.262 40.558 63.789 41.262C63.701 41.262 63.635 41.295 63.602 41.383C63.272 42.098 63.25 42.802 63.69 43.473C64.152 44.177 64.757 44.661 65.67 44.496C65.868 44.496 66.066 44.485 66.264 44.485C76.549 44.485 86.834 44.485 97.119 44.485C97.317 44.485 97.515 44.485 97.713 44.485C98.593 44.397 99.286 44.001 99.605 43.154C100.166 41.669 99.154 40.272 97.493 40.272C86.911 40.272 76.34 40.272 65.758 40.272L65.747 40.25Z" fill="#343A40"/>
<path d="M58.256 44.0881C59.114 43.5051 59.356 42.7461 59.059 41.5691C58.949 40.8431 58.146 40.2271 57.299 40.1941C56.881 40.1721 56.452 40.1391 56.133 40.4911C56.045 40.5571 55.957 40.6341 55.869 40.7001C54.956 41.3601 54.758 42.6031 55.418 43.5601C56.067 44.5061 57.31 44.7371 58.256 44.0881Z" fill="#343A40"/>
<path d="M97.724 48.5996C86.977 48.6106 76.241 48.6106 65.494 48.5996C64.515 48.5996 63.877 49.1386 63.525 49.9526C63.25 50.5906 63.239 51.3166 63.701 51.9326C63.822 52.0756 63.899 52.2626 64.075 52.3616C64.284 52.5266 64.46 52.7686 64.779 52.7356C65.241 52.8786 65.703 52.9116 66.187 52.9116C76.461 52.9116 86.735 52.9116 96.998 52.9116C97.196 52.9116 97.394 52.9226 97.581 52.9336C98.076 53.0326 98.494 52.9006 98.901 52.6036C99.704 52.0316 100.089 51.0856 99.814 50.2056C99.539 49.3476 98.703 48.5996 97.724 48.5996Z" fill="#343A40"/>
<path d="M80.608 27.5C74.338 27.5 68.057 27.5 61.787 27.5C60.643 27.5 59.499 27.5 58.344 27.5C58.003 27.5 57.651 27.5 57.409 27.808C57.354 27.863 57.299 27.929 57.233 27.973C56.21 28.688 55.99 29.92 56.716 30.932C57.222 31.636 57.97 31.812 58.795 31.812C66.132 31.812 73.458 31.812 80.795 31.812C81.664 31.944 82.214 31.449 82.654 30.811C83.105 30.14 83.105 29.414 82.731 28.721C82.291 27.885 81.576 27.5 80.608 27.5Z" fill="#343A40"/>
<path d="M94.699 62.9656C93.995 63.2736 93.258 63.5596 92.796 64.2306C91.905 65.0556 91.278 66.0566 90.948 67.2226C90.596 68.4876 90.607 69.7526 91.058 71.0176C91.234 71.5236 91.564 71.9526 91.707 72.4696C91.333 72.7886 90.948 73.0966 90.728 73.5586C90.211 74.1196 89.683 74.6696 89.166 75.2306C89.078 75.2196 89.012 75.2526 88.957 75.3186C88.198 76.1326 87.439 76.9466 86.68 77.7606C86.636 77.8156 86.625 77.9036 86.603 77.9806C86.086 78.5416 85.569 79.0916 85.041 79.6526C84.722 80.1476 84.293 80.5436 83.853 80.9286C83.391 81.4126 82.94 81.9076 82.478 82.3916C82.115 82.8536 81.62 83.1836 81.29 83.6676C81.136 83.8326 80.971 83.9976 80.817 84.1626C80.509 84.3496 80.234 84.5806 80.113 84.9436C79.2 85.9336 78.276 86.9126 77.363 87.9136C77.154 88.1446 76.912 88.1666 76.659 88.0896C76.186 87.9356 75.691 87.9356 75.207 87.8916C74.69 87.8586 74.195 87.8366 73.689 88.0126C73.348 88.1226 73.018 88.3316 72.633 88.2766C71.489 86.8686 70.345 85.4606 69.201 84.0416C68.816 83.3266 68.321 82.7106 67.716 82.1826C67.474 81.8966 67.276 81.5666 66.99 81.3246C66.165 80.6206 66.066 79.8396 66.638 78.9376C66.935 78.3436 66.946 77.7166 66.836 77.0786C66.77 76.4516 66.66 75.8246 66.44 75.2196C66.473 75.0106 66.506 74.8016 66.231 74.7356C66.209 74.7026 66.187 74.6586 66.176 74.6256C66.088 73.9436 65.692 73.4596 65.164 73.0526C65.032 72.9206 64.911 72.7996 64.779 72.6676C64.779 72.4476 64.603 72.3706 64.471 72.2606C63.734 71.6446 62.854 71.3036 61.93 71.0836C61.809 71.0506 61.677 70.9956 61.556 70.9846C59.983 70.8526 58.465 71.0066 57.09 71.8536C56.76 72.0626 56.375 72.2496 56.232 72.6566C55.968 72.9536 55.715 73.2396 55.451 73.5366C55.055 73.8336 54.846 74.2406 54.758 74.7136C54.56 74.7796 54.527 74.9226 54.56 75.1096C54.076 76.3966 54.032 77.6946 54.362 79.0146C54.307 79.1686 54.406 79.2896 54.461 79.4326C54.571 79.7516 54.714 80.0596 54.549 80.4006C54.054 80.9176 53.559 81.4456 53.075 81.9626C52.712 82.2266 52.382 82.5236 52.195 82.9526C51.711 83.4806 51.216 83.9976 50.732 84.5256C50.336 84.7676 50.028 85.0756 49.841 85.5046C49.676 85.6696 49.522 85.8346 49.357 85.9996C49.115 86.1316 48.906 86.2856 48.84 86.5716C48.653 86.7696 48.455 86.9676 48.268 87.1766C47.861 87.4736 47.487 87.7816 47.278 88.2656C46.992 88.6066 46.673 88.3316 46.431 88.2436C43.703 87.2316 40.425 88.5076 39.017 91.0046C38.786 91.3346 38.5 91.6426 38.522 92.0826C38.368 92.2476 38.28 92.4346 38.324 92.6766C37.829 94.4586 38.225 96.1086 39.116 97.6706C39.501 98.5396 40.128 99.1556 40.997 99.5406C41.613 99.8706 42.229 100.19 42.922 100.344C45.078 100.85 46.981 100.322 48.664 98.9136C50.49 97.3846 51.282 94.3926 50.413 92.1926C50.402 91.7526 50.259 91.2906 50.622 90.9166C50.842 90.6856 51.073 90.4546 51.293 90.2126C51.733 89.9486 52.074 89.5966 52.272 89.1236C52.602 88.9586 52.855 88.7056 52.987 88.3536C53.141 88.1886 53.306 88.0236 53.46 87.8476C53.735 87.7266 53.867 87.4736 54.076 87.2756C54.285 87.0666 54.538 86.8906 54.692 86.6596C55 86.2086 55.539 85.9336 55.726 85.3946C55.99 85.0976 56.254 84.8116 56.518 84.5146C56.793 84.4156 56.936 84.2066 57.024 83.9316C57.024 83.9316 57.057 83.8986 57.09 83.9096C57.365 83.8106 57.552 83.6346 57.607 83.3376C57.904 83.2166 58.201 83.3376 58.498 83.3486C58.564 83.3816 58.63 83.4146 58.696 83.4476C59.939 83.8986 61.193 83.8326 62.436 83.4476C62.876 83.2496 63.195 83.3486 63.448 83.7776C63.591 84.0196 63.811 84.2176 64.009 84.4376C64.229 84.7016 64.361 85.0646 64.713 85.2076C64.779 85.2736 64.834 85.3396 64.9 85.4166C65.021 85.7906 65.263 86.0766 65.593 86.2966C65.857 86.6266 66.121 86.9456 66.385 87.2756C66.385 87.4956 66.506 87.5946 66.693 87.6716C67.573 88.7496 68.453 89.8276 69.333 90.9166C69.564 91.2796 69.498 91.6316 69.333 92.0056C68.882 92.9846 68.827 94.0406 68.959 95.0746C69.058 95.8996 69.245 96.7356 69.828 97.3956C70.356 98.2646 71.049 98.9796 71.885 99.5516C71.896 99.5956 71.885 99.6726 71.929 99.6836C73.623 100.707 75.405 100.949 77.286 100.333C77.561 100.245 77.924 100.289 78.067 99.9256C78.298 99.7936 78.518 99.6726 78.749 99.5406C79.508 99.2216 80.08 98.7156 80.421 97.9566C80.487 97.8576 80.553 97.7696 80.619 97.6706C81.004 97.2856 81.235 96.8236 81.312 96.2846C81.312 96.2296 81.323 96.1636 81.334 96.1086C81.378 96.0646 81.455 96.0426 81.466 95.9876C81.862 94.7006 81.818 93.4026 81.389 92.1376C81.268 91.7636 81.191 91.3456 80.828 91.1036C80.586 90.8506 80.597 90.6196 80.861 90.3666C81.125 90.1356 81.356 89.8716 81.598 89.6186C82.071 89.2666 82.533 88.8926 82.786 88.3426C83.402 87.9796 83.787 87.3746 84.271 86.8796C84.59 86.4176 85.14 86.1426 85.349 85.5926C85.712 85.1966 86.075 84.8116 86.427 84.4156C86.592 84.3936 86.658 84.2616 86.746 84.1516C87.054 83.8326 87.45 83.5906 87.615 83.1396C87.868 82.8756 88.132 82.6116 88.385 82.3476C88.704 82.1606 88.957 81.9186 89.089 81.5666C89.705 80.9066 90.321 80.2466 90.937 79.5976C91.256 79.4106 91.509 79.1796 91.652 78.8276C91.751 78.7286 91.839 78.6296 91.938 78.5306C92.136 78.4756 92.224 78.2996 92.345 78.1676C92.609 77.8706 92.994 77.6726 93.115 77.2546C93.577 76.7596 94.083 76.2866 94.501 75.7476C94.963 75.1756 95.436 74.8126 96.195 75.1866C96.272 75.2306 96.393 75.2086 96.481 75.2196C98.67 75.3516 100.496 74.5816 101.948 72.9426C102.74 72.3046 103.092 71.4466 103.224 70.4676C103.224 70.4346 103.224 70.4126 103.235 70.3906C103.62 70.0386 103.389 69.5986 103.422 69.1916C103.422 68.3116 103.334 67.4536 102.949 66.6506C102.707 65.9026 102.256 65.2866 101.772 64.6816C101.706 64.4176 101.552 64.2416 101.277 64.1976C101.046 64.0106 100.804 63.8236 100.573 63.6256C99.825 62.9436 98.89 62.6796 97.933 62.5476C96.844 62.4046 95.744 62.4926 94.721 62.9326L94.699 62.9656ZM46.101 95.4486C45.925 95.4376 45.859 95.6026 45.749 95.6906C45.045 96.2516 44.275 96.3506 43.527 95.9656C42.922 95.6576 42.361 94.8876 42.537 93.8866C42.636 93.3476 42.999 93.0176 43.241 92.5996C44.11 91.9066 45.21 92.1046 45.892 92.7756C46.585 93.4466 46.805 94.5796 46.101 95.4596V95.4486ZM59.059 75.9016C59.697 75.6266 60.302 75.2416 61.072 75.4946C61.38 75.5936 61.589 75.8906 61.93 75.9016C62.788 76.7706 62.799 77.9916 61.963 78.8276C61.149 79.6526 59.818 79.6526 59.015 78.8276C58.19 77.9806 58.201 76.7706 59.059 75.9016ZM76.483 92.5886C76.505 92.6436 76.505 92.7316 76.549 92.7646C77.209 93.3256 77.341 94.0296 77.143 94.8326C76.945 95.6576 75.856 96.2846 75.02 96.1746C74.426 96.0976 74.085 95.6906 73.623 95.4486C73.557 95.3496 73.491 95.2616 73.425 95.1626C73.414 94.9206 73.535 94.6346 73.227 94.4696C73.139 93.6226 73.568 92.8086 74.327 92.4016C74.998 92.0276 75.867 92.1046 76.494 92.5996L76.483 92.5886ZM95.403 70.2256C94.688 69.2906 94.842 67.9816 95.744 67.3106C95.898 67.1896 96.074 67.1016 96.228 66.9916C96.305 66.9916 96.393 66.9916 96.47 66.9696C97.9 66.5956 99.165 67.6516 99.077 69.1366C98.857 69.6756 98.626 70.2036 98.186 70.6106C97.339 71.2596 96.052 71.0836 95.392 70.2256H95.403Z" fill="#343A40"/>
<path d="M56.606 52.9117C57.013 52.9887 57.508 53.1427 57.893 52.7467C58.003 52.6807 58.102 52.6147 58.212 52.5597C58.685 52.4387 59.235 51.7897 59.257 51.2287C59.279 50.8217 59.466 50.3487 59.059 49.9967C58.289 48.6547 57.2 48.3577 55.836 49.1167C55.748 49.0837 55.682 49.1167 55.616 49.1827C54.967 49.7877 54.769 50.5687 54.989 51.3827C55.198 52.1857 55.781 52.7577 56.606 52.9227V52.9117Z" fill="#343A40"/>
<path d="M56.628 22.3977C56.826 22.6947 57.09 22.9147 57.398 23.0907C57.717 23.3657 58.102 23.3987 58.498 23.3987C65.89 23.3987 73.293 23.3987 80.685 23.3987C81.081 23.3987 81.466 23.3547 81.774 23.0797C81.84 23.0467 81.895 23.0137 81.961 22.9697C82.071 23.0137 82.148 22.9587 82.225 22.8927C82.94 22.3207 83.171 21.2647 82.775 20.4177C82.368 19.5377 81.708 19.0427 80.696 19.0867C80.696 19.0867 80.63 19.0867 80.597 19.0867C73.194 19.0867 65.78 19.0867 58.377 19.0867C57.992 19.0867 57.629 19.1747 57.299 19.3727C56.32 19.9117 56.089 20.7917 56.232 21.8147C56.265 22.0457 56.32 22.3317 56.628 22.4087V22.3977Z" fill="#343A40"/>
<path d="M27.797 52.8459C27.247 52.7799 26.697 52.7359 26.147 52.6919C25.641 52.6479 25.19 52.3509 24.673 52.4389C24.453 52.3729 24.233 52.3179 24.024 52.2409C23.045 51.8889 22.132 51.4379 21.329 50.7779C21.065 50.3709 20.702 50.0739 20.24 49.8979C19.107 48.7759 18.227 47.4779 17.688 45.9709C17.732 45.7949 17.721 45.6079 17.655 45.4429C17.446 44.9479 17.314 44.4419 17.259 43.9139C17.193 43.3419 17.116 42.7589 17.039 42.1869C17.039 42.1539 17.039 42.1319 17.028 42.0989C16.918 40.7019 15.367 39.7449 14.091 40.3169C13.706 40.4819 13.277 40.6579 13.167 41.1529C12.892 41.5599 12.76 41.9999 12.771 42.4839C12.771 43.5619 12.914 44.6179 13.167 45.6629C13.134 45.9489 13.123 46.2349 13.376 46.4439C13.398 46.5539 13.409 46.6749 13.453 46.7739C14.091 48.6769 15.037 50.4039 16.324 51.9329C16.28 52.0869 16.401 52.1529 16.5 52.2409C16.654 52.4169 16.764 52.6479 17.017 52.7139C17.072 53.0439 17.391 53.1319 17.589 53.3409C17.71 53.4619 17.787 53.6379 17.996 53.6049C19.338 54.7049 20.812 55.5959 22.451 56.1899C24.057 56.7729 25.729 57.0919 27.445 57.0919C28.204 57.0919 28.842 56.7949 29.282 56.1459C29.392 56.1349 29.447 56.0579 29.502 55.9699C30.162 54.7159 29.392 53.0109 27.797 52.8239V52.8459Z" fill="#343A40"/>
</g>
<defs>
<clipPath id="clip0_3134_1923">
<rect width="121" height="121" fill="white"/>
</clipPath>
</defs>
</svg>
