<svg width="119" height="110" viewBox="0 0 119 110" fill="none" xmlns="http://www.w3.org/2000/svg">
<path d="M13.5223 59.0053C13.5067 58.9636 13.4963 58.9193 13.4833 58.875C13.4911 58.9193 13.5041 58.961 13.5223 59.0053Z" fill="#343A40"/>
<path d="M9.26001 59.3047C9.2756 59.3438 9.286 59.3829 9.29639 59.4245C9.2886 59.3855 9.2756 59.3438 9.26001 59.3047Z" fill="#343A40"/>
<path d="M109.673 52.3471C109.649 52.2846 109.634 52.2194 109.621 52.1543C109.628 52.2194 109.644 52.2846 109.673 52.3471Z" fill="#343A40"/>
<path d="M54.5647 9.10094C54.6089 9.08009 54.6557 9.06967 54.7024 9.05664C54.6557 9.06706 54.6089 9.07749 54.5647 9.10094Z" fill="#343A40"/>
<path d="M91.8698 53.278C91.8543 53.2468 91.8465 53.2129 91.8361 53.1816C91.8439 53.2155 91.8543 53.2468 91.8698 53.278Z" fill="#343A40"/>
<path d="M105.275 51.5137C105.296 51.558 105.306 51.6049 105.319 51.6518C105.309 51.6049 105.296 51.558 105.275 51.5137Z" fill="#343A40"/>
<path d="M9.12488 56.8496C9.15087 56.9695 9.16906 57.0893 9.18205 57.2066C9.17426 57.0867 9.15866 56.9669 9.12488 56.8496Z" fill="#343A40"/>
<path d="M25.2408 58.5234C25.2564 58.5625 25.2668 58.6016 25.2772 58.6433C25.2694 58.6042 25.2564 58.5625 25.2408 58.5234Z" fill="#343A40"/>
<path d="M13.6601 50.2246C13.6367 50.2611 13.6237 50.3002 13.6133 50.3393C13.6263 50.3002 13.6393 50.2637 13.6601 50.2246Z" fill="#343A40"/>
<path d="M13.6548 60.4167C13.6366 60.3855 13.6288 60.3516 13.6158 60.3203C13.6236 60.3516 13.6366 60.3855 13.6548 60.4167Z" fill="#343A40"/>
<path d="M92.0362 61.7146C91.6828 61.4697 91.4696 61.2821 91.5996 60.8157C91.7087 60.4275 91.7243 60.0106 91.7815 59.6067C91.7685 59.4139 91.7685 59.2237 91.8309 59.0439C91.8387 59.0048 91.8517 58.9684 91.8725 58.9319C91.8829 58.6792 91.8959 58.429 91.9063 58.1763V54.1455C91.8959 53.8563 91.8829 53.5671 91.8699 53.2779C91.8543 53.2466 91.8439 53.2128 91.8361 53.1815C91.7711 52.9887 91.7555 52.7881 91.7763 52.5848C91.7321 52.3972 91.6828 52.2122 91.6464 52.022C91.5043 51.3151 91.7382 50.7566 92.3481 50.3467C93.0316 49.8881 93.6294 49.3436 94.0894 48.6557C95.5734 46.4462 95.3291 44.2602 94.0322 42.0611C92.4676 39.4087 90.9577 36.7224 89.3905 34.07C88.7304 32.9522 88.1638 31.7641 87.3087 30.774C85.4843 28.6505 82.3708 28.3509 79.8082 29.8985C79.4885 30.0913 79.3768 30.0601 79.1169 29.8595C77.3262 28.4785 75.4472 27.2357 73.3862 26.2847C72.4454 25.8496 71.515 25.3988 70.5794 24.9533C70.3897 24.4999 70.4988 24.0231 70.4754 23.5567C69.94 20.1304 67.666 18.429 64.7552 18.3769C60.4721 18.304 56.1865 18.3274 51.9008 18.3717C50.04 18.3899 48.5352 19.1924 47.493 20.7922C46.7549 21.9256 46.4794 23.1659 46.5392 24.5025C46.5522 24.8073 46.5288 24.9897 46.1338 25.1539C43.3087 26.3238 40.6006 27.7177 38.1914 29.6406C37.8613 29.9038 37.4455 30.2451 36.9595 29.8933C36.2474 29.3748 35.408 29.2133 34.5841 28.997C34.1085 28.997 33.6329 28.997 33.1599 28.9944C32.8064 29.0726 32.4504 29.1351 32.1047 29.2315C30.3634 29.7292 29.316 31.0215 28.5 32.5145C26.9562 35.3493 25.2773 38.1033 23.7049 40.9199C22.9564 42.2591 21.9377 43.4994 21.961 45.1591V45.9355C21.961 46.7354 22.1975 47.5067 22.551 48.1815C23.0942 49.2133 23.8869 50.0705 24.9888 50.5656C25.3864 50.7427 25.6463 51.0241 25.5034 51.454C25.3397 51.9569 25.4514 52.4728 25.3345 52.9705C25.3501 53.1971 25.3475 53.4212 25.2851 53.6375C25.2747 53.6844 25.2617 53.7313 25.2409 53.7756C25.2305 54.1586 25.2201 54.539 25.2071 54.922V57.392C25.2201 57.7672 25.2331 58.145 25.2435 58.5202C25.2617 58.5593 25.2721 58.5984 25.2799 58.6401C25.3475 58.8694 25.3501 59.1065 25.3345 59.3462C25.4618 59.8386 25.3241 60.3545 25.506 60.8574C25.6074 61.1362 25.5008 61.3993 25.1421 61.5817C23.2891 62.5223 22.1923 64.0231 21.9558 66.1179C21.9558 66.5061 21.9558 66.897 21.9532 67.2852C22.0468 67.9392 22.1456 68.5775 22.5094 69.1664C23.0708 70.0757 23.5672 71.0267 24.087 71.9595C24.8433 73.3118 25.5866 74.6719 26.3532 76.0189C27.1823 77.4754 28.053 78.9084 28.8586 80.3754C29.6357 81.7875 30.7922 82.6995 32.3204 83.1268C33.8278 83.5489 35.265 83.2701 36.5879 82.4832C37.1856 82.1289 37.5469 82.095 38.1758 82.5953C40.5616 84.4999 43.1528 86.0867 46.0714 87.0689C46.4586 87.1992 46.6302 87.4415 46.508 87.8506C46.508 88.1085 46.508 88.3691 46.5054 88.627C46.5964 89.1195 46.6198 89.6171 46.7705 90.1096C47.4878 92.452 49.9152 93.9762 52.3322 93.9632C56.3372 93.9423 60.3422 93.885 64.3445 93.9788C67.9726 94.0648 70.5924 91.0971 70.5404 87.8115C70.5326 87.3946 70.6599 87.2122 71.0368 87.0637C73.8826 85.9329 76.5076 84.4061 78.9064 82.5015C79.2962 82.1914 79.5587 82.022 80.0265 82.366C80.8764 82.9939 81.8588 83.2857 82.9165 83.3196C83.1323 83.3196 83.348 83.3196 83.5611 83.317C85.5571 83.0773 87.093 82.095 88.1092 80.3701C90.1624 76.8866 92.1766 73.3795 94.2141 69.8881C94.9392 68.6453 95.2849 67.3425 95.0536 65.8938C94.7469 63.984 93.5254 62.7412 92.0336 61.7094L92.0362 61.7146ZM87.2438 50.6828C87.6336 52.7568 87.7921 54.849 87.7012 56.9569C87.6258 58.6687 87.3789 60.3649 87.158 62.0611C87.0333 63.02 87.3711 63.7625 88.182 64.2732C88.7667 64.6406 89.3749 64.9689 89.9623 65.3337C90.9992 65.9798 91.1864 66.7537 90.5756 67.7959C88.5796 71.2091 86.5836 74.625 84.5851 78.0382C83.8937 79.2185 83.2674 79.3905 82.0719 78.7287C81.5235 78.4264 80.9881 78.1007 80.4371 77.8037C79.3274 77.2044 78.5971 77.293 77.6693 78.145C76.0995 79.5885 74.3894 80.8261 72.4948 81.8058C71.0368 82.5588 69.5112 83.1633 67.9882 83.773C66.9487 84.1898 66.3717 84.8829 66.3717 86.0241C66.3717 86.7172 66.3639 87.4129 66.3509 88.1059C66.3301 89.2029 65.7973 89.7604 64.7162 89.7631C60.6228 89.7735 56.5321 89.7735 52.4388 89.7631C51.3888 89.7631 50.8274 89.2289 50.7755 88.1815C50.7365 87.4233 50.7755 86.6625 50.7599 85.9043C50.7365 84.7787 50.3103 84.1846 49.2603 83.812C45.6374 82.5301 42.3445 80.688 39.4545 78.1346C38.5215 77.3087 37.7652 77.2565 36.6658 77.861C36.1175 78.1633 35.5743 78.4759 35.0285 78.7834C33.9369 79.3983 33.1651 79.1924 32.5387 78.0981C30.6519 74.7969 28.7703 71.4905 26.886 68.1867C26.7795 67.9991 26.6651 67.8141 26.5638 67.6239C26.0882 66.7354 26.2987 65.9381 27.1693 65.4092C27.7411 65.0627 28.3414 64.7604 28.9158 64.4165C29.9658 63.7886 30.3192 63.1059 30.0359 61.9152C29.1523 58.1919 29.3862 54.4712 29.9632 50.7427C30.2101 49.1455 29.9762 48.6557 28.5468 47.8454C28.0218 47.5484 27.489 47.2591 26.9718 46.9439C26.2155 46.4827 25.9764 45.6906 26.4078 44.9324C28.4584 41.329 30.5193 37.7281 32.5959 34.1377C33.1599 33.1633 33.9032 32.9835 34.9012 33.528C35.4885 33.8485 36.0551 34.2081 36.6346 34.5442C37.6041 35.1044 38.4123 35.0731 39.2622 34.3384C42.1756 31.8188 45.4554 29.948 49.0654 28.6296C50.4428 28.1268 50.8041 27.5405 50.8067 26.0867C50.8067 25.5239 50.8041 24.9585 50.8067 24.3957C50.8171 23.1059 51.3212 22.6057 52.6285 22.6031C54.6193 22.5979 56.6127 22.6031 58.6035 22.6031C60.5943 22.6031 62.5876 22.5979 64.5784 22.6031C65.8649 22.6083 66.3873 23.132 66.4055 24.4165C66.4133 25.0236 66.4055 25.6307 66.4055 26.2378C66.4055 27.6343 66.8031 28.1867 68.1234 28.627C71.1797 29.651 73.9918 31.1336 76.518 33.1476C76.9572 33.4994 77.3808 33.8694 77.8044 34.2393C78.6413 34.9689 79.3794 35.0575 80.3592 34.5207C81.0583 34.1377 81.7418 33.7156 82.4513 33.3535C83.2648 32.9392 83.9327 33.1164 84.3953 33.9032C86.5031 37.478 88.603 41.0606 90.6848 44.651C91.1942 45.5317 90.9966 46.2039 90.139 46.7563C89.6322 47.0846 89.102 47.379 88.5796 47.6865C87.3165 48.429 86.9657 49.2081 87.2412 50.675L87.2438 50.6828Z" fill="#343A40"/>
<path d="M117.407 65.3774C117.007 64.4759 116.079 64.0643 114.987 64.2571C114.242 64.3873 113.631 64.7964 112.986 65.1195C111.611 65.8074 110.273 66.5656 108.916 67.2873C108.779 67.3602 108.623 67.5192 108.451 67.3941C108.267 67.256 108.48 67.1284 108.506 66.9955C108.89 65.1534 109.184 63.2956 109.449 61.4327C109.439 61.2425 109.441 61.0523 109.498 60.8725C109.506 60.8334 109.519 60.7943 109.54 60.7578L109.576 60.1325C109.563 59.8772 109.563 59.6218 109.621 59.3743C109.631 59.3144 109.644 59.2545 109.67 59.1971C109.68 58.8141 109.693 58.4337 109.704 58.0507C109.704 56.5343 109.704 55.0153 109.706 53.4989C109.693 53.1159 109.683 52.7354 109.67 52.3524C109.641 52.2899 109.626 52.2248 109.618 52.1596C109.566 51.9147 109.561 51.6672 109.576 51.417C109.265 48.7594 108.883 46.1174 108.256 43.5119C107.136 38.8402 105.421 34.4056 102.996 30.268C100.038 25.2289 96.4024 20.7292 92.0128 16.8522C89.1982 14.3665 86.1418 12.2352 82.8386 10.466C76.8012 7.23518 70.3195 5.47124 63.5544 4.66092C63.3647 4.67134 63.175 4.66874 62.9931 4.61142C62.9541 4.6036 62.9151 4.59057 62.8787 4.56973C62.585 4.5567 62.2888 4.54628 61.9951 4.53325C61.6546 4.54367 61.3168 4.54367 60.9815 4.49677C60.8775 4.48896 60.7736 4.47332 60.6722 4.43945H57.6081C57.4937 4.47593 57.3768 4.49156 57.2598 4.49938C56.8934 4.54628 56.5243 4.54628 56.1527 4.53846C55.859 4.54888 55.5627 4.56191 55.269 4.57233C55.23 4.59318 55.1885 4.60621 55.1469 4.61402C54.926 4.68437 54.6947 4.67916 54.4634 4.66874C53.5875 4.77817 52.7117 4.87458 51.841 4.99704C48.4286 5.47906 45.0942 6.3024 41.8455 7.45144C40.9905 7.75368 40.0523 7.93867 39.3609 8.58224C39.0387 8.88187 38.7554 9.01996 38.3032 9.00954C34.5841 8.93138 31.6759 11.4405 31.1769 15.1039V16.9225C31.5537 20.0075 33.9292 22.6885 37.313 23.0689C37.8302 23.0689 38.3499 23.0663 38.8671 23.0637C40.0133 22.884 41.0944 22.5114 42.0482 21.8548C45.2371 19.6583 46.0298 15.3331 43.8415 12.0945C43.5348 11.6411 43.501 11.4744 44.104 11.2711C45.9492 10.6458 47.8231 10.1403 49.7307 9.77817C51.329 9.47332 52.9274 9.14242 54.5647 9.10595C54.6089 9.0825 54.6557 9.06947 54.7025 9.06165C54.9208 8.99912 55.1443 8.99912 55.3704 9.01215C55.7083 8.99912 56.0461 8.9887 56.384 8.97567C56.9921 8.83237 57.6107 8.86363 58.2266 8.88187H59.6612C60.285 8.86363 60.9087 8.82976 61.5221 8.97046C61.8547 8.98349 62.1848 8.99651 62.5175 9.00954C62.7488 8.99391 62.9775 8.9913 63.1958 9.05905C63.2374 9.06947 63.279 9.07989 63.3205 9.10073C64.4225 9.23101 65.5348 9.30657 66.6264 9.50199C68.6796 9.87197 70.7223 10.3227 72.7105 10.9585C75.6785 11.9069 78.5191 13.1445 81.2636 14.6427C84.8216 16.5864 87.9845 19.0512 90.955 21.7714C92.2935 22.996 93.5332 24.3561 94.6793 25.7657C96.1399 27.5635 97.52 29.429 98.6973 31.4353C99.8434 33.3868 100.901 35.3774 101.772 37.4749C102.663 39.6297 103.412 41.8235 103.989 44.0773C104.316 45.3618 104.605 46.6515 104.802 47.9699C104.979 49.1502 105.137 50.3305 105.273 51.5135C105.296 51.5577 105.309 51.6046 105.317 51.6515C105.379 51.8678 105.379 52.0919 105.366 52.3186C105.379 52.6573 105.39 52.996 105.403 53.3347C105.577 54.9632 105.577 56.5942 105.405 58.2227C105.392 58.5562 105.382 58.8871 105.369 59.2206C105.384 59.4655 105.39 59.7078 105.312 59.9423C105.304 59.9762 105.293 60.0101 105.278 60.0439C105.265 60.2472 105.254 60.4478 105.241 60.651C105.254 60.849 105.257 61.0471 105.182 61.2321C105.174 61.2633 105.161 61.2946 105.143 61.3258C104.971 62.8084 104.716 64.2727 104.306 65.8673C103.963 65.2524 103.692 64.7964 103.451 64.3274C102.749 62.9673 102.071 61.5942 101.359 60.242C100.914 59.4004 100.186 59.0095 99.2353 59.0955C98.3594 59.1763 97.8396 59.6661 97.6005 60.5181C97.4056 61.2112 97.5044 61.847 97.8214 62.4671C98.3542 63.5145 98.8948 64.5567 99.4302 65.6041C100.608 67.8996 101.78 70.1977 102.965 72.4879C103.796 74.0903 104.88 74.2362 106.315 73.5015C108.222 72.5244 110.104 71.4978 111.996 70.4921C113.516 69.6844 115.039 68.8819 116.552 68.0637C117.464 67.5687 117.836 66.3389 117.41 65.3748L117.407 65.3774ZM38.1706 18.8636C36.632 18.8819 35.3742 17.626 35.3716 16.0679C35.3716 14.5254 36.5801 13.2878 38.0979 13.2774C39.6234 13.267 40.8813 14.4811 40.9099 15.9923C40.9385 17.5426 39.6962 18.8454 38.1706 18.8636Z" fill="#343A40"/>
<path d="M80.5775 87.3054C80.0161 87.3054 79.4548 87.3054 78.8934 87.3054C78.7245 87.3366 78.5529 87.3679 78.384 87.4018C74.587 88.2043 72.2687 91.5941 72.9236 95.4086C73.1237 96.5758 73.6487 97.6102 74.392 98.5769C74.1711 98.6576 74.0126 98.7176 73.8541 98.7723C70.2571 99.9969 66.564 100.752 62.7748 101.026C53.4888 101.698 44.7459 99.8666 36.6243 95.2679C31.3198 92.2637 26.8081 88.3267 23.0344 83.53C19.2088 78.6681 16.4877 73.2538 14.8919 67.2819C14.2916 65.0334 13.777 62.7587 13.6626 60.4164C13.6445 60.3851 13.6341 60.3538 13.6237 60.32C13.5535 60.135 13.5535 59.9396 13.5691 59.7415C13.5561 59.4966 13.5431 59.2491 13.5301 59.0042C13.5119 58.9625 13.5015 58.9182 13.4911 58.8739C13.4157 58.6055 13.4209 58.3267 13.4365 58.048C13.4235 57.5842 13.4131 57.123 13.4002 56.6592C13.2754 55.7238 13.2858 54.7884 13.4028 53.8531C13.4131 53.4284 13.4261 53.0011 13.4365 52.5764C13.4235 52.295 13.4131 52.0136 13.4937 51.7426C13.5015 51.7009 13.5145 51.6618 13.5301 51.6227C13.5431 51.3778 13.5561 51.1303 13.5691 50.8854C13.5613 50.6978 13.5561 50.5128 13.6185 50.3356C13.6289 50.2965 13.6419 50.2574 13.6652 50.221C13.6834 48.6603 14.1019 47.1699 14.38 45.6483C14.7048 45.7264 14.7464 45.9714 14.8374 46.1459C15.6534 47.7092 16.4513 49.2804 17.257 50.8489C17.4857 51.2918 17.8209 51.654 18.2342 51.9119C18.8865 52.321 19.8325 52.222 20.4615 51.6696C21.1086 51.1016 21.3503 50.3695 21.1372 49.5149C20.9813 48.8817 20.594 48.358 20.3003 47.7926C18.7852 44.864 17.2674 41.938 15.773 39.0016C15.0869 37.6519 13.8472 37.2741 12.5815 37.9724C11.5757 38.5274 10.5413 39.0354 9.51994 39.567C7.22248 40.7603 4.91982 41.951 2.62755 43.1522C1.97522 43.4935 1.49961 43.9859 1.43464 44.7728C1.43464 44.9891 1.43204 45.2053 1.42944 45.419C1.69454 46.6045 2.05319 46.9667 3.14734 47.1438C3.36305 47.1438 3.57617 47.1412 3.79188 47.1386C4.29347 47.0162 4.76388 46.8207 5.2187 46.5758C6.58054 45.8437 7.93978 45.1063 9.31722 44.408C9.64209 44.2439 10.0137 43.8244 10.3282 44.0381C10.5439 44.184 10.2242 44.6556 10.1671 44.9865C9.8474 46.8598 9.45496 48.7228 9.35361 50.6274C9.364 50.8515 9.364 51.0756 9.30163 51.2918C9.29123 51.3387 9.27824 51.3856 9.25485 51.4325C9.24445 51.727 9.23405 52.024 9.22106 52.3184C9.22886 52.7301 9.22886 53.1444 9.18208 53.5534C9.17428 53.6785 9.16128 53.8009 9.1275 53.926C9.1275 54.9005 9.1275 55.8723 9.1249 56.8468C9.15869 56.9641 9.17428 57.0839 9.18208 57.2038C9.23146 57.6102 9.22886 58.0219 9.22106 58.431C9.23405 58.7202 9.24445 59.0094 9.25744 59.2986C9.27564 59.3377 9.28603 59.3768 9.29383 59.4185C9.3614 59.6477 9.364 59.8848 9.35101 60.1246C9.40299 60.802 9.40039 61.4872 9.51734 62.1543C9.79802 63.7697 10.0969 65.3825 10.4582 66.9823C11.0715 69.6972 11.9214 72.3445 13.0207 74.9031C13.881 76.9041 14.8608 78.8452 15.9887 80.716C18.3043 84.5566 21.041 88.0688 24.1857 91.258C24.9888 92.0735 25.8829 92.8109 26.7405 93.5743C27.9958 94.692 29.3186 95.7108 30.6883 96.6748C33.2145 98.4544 35.9096 99.937 38.7346 101.19C41.188 102.279 43.7298 103.134 46.3183 103.809C49.1174 104.541 51.9632 105.08 54.8558 105.32C55.1027 105.312 55.3496 105.286 55.5783 105.414C55.9448 105.427 56.3086 105.437 56.6751 105.45C57.1351 105.458 57.5977 105.39 58.0473 105.541C58.6477 105.453 59.2454 105.45 59.8458 105.541C60.3396 105.396 60.8438 105.442 61.348 105.448C61.756 105.435 62.164 105.422 62.5747 105.409C62.8008 105.27 63.0529 105.304 63.2972 105.315C64.0327 105.221 64.7656 105.109 65.5011 105.033C68.5782 104.715 71.5722 103.999 74.4986 103.032C75.9696 102.548 77.5705 102.282 78.753 101.125C79.3508 100.922 79.972 101.12 80.5775 101.023C80.931 100.964 81.2688 100.846 81.6145 100.747C84.4967 99.9291 86.4797 97.3002 86.5473 94.395C86.6304 90.8437 84.177 87.9724 80.5801 87.3028L80.5775 87.3054ZM79.6471 96.8546C78.1345 96.8468 76.9338 95.6352 76.9494 94.1318C76.965 92.6233 78.1813 91.4247 79.6835 91.4325C81.1857 91.443 82.3864 92.6571 82.3864 94.1657C82.3864 95.6639 81.1649 96.8624 79.6445 96.8546H79.6471Z" fill="#343A40"/>
<path d="M105.405 53.3379C105.405 54.9663 105.405 56.5974 105.408 58.2259C105.494 56.5974 105.501 54.9663 105.405 53.3379Z" fill="#343A40"/>
<path d="M105.405 53.3379C105.504 54.9663 105.494 56.5974 105.408 58.2259C105.579 56.5974 105.577 54.9663 105.405 53.3379Z" fill="#343A40"/>
<path d="M109.706 58.046C109.93 57.504 109.813 56.9386 109.803 56.3863C109.784 55.4222 109.94 54.4504 109.709 53.4941C109.766 55.0106 109.774 56.5296 109.706 58.046Z" fill="#343A40"/>
<path d="M109.709 53.4941C109.709 55.0106 109.709 56.5296 109.706 58.046C109.774 56.5296 109.769 55.0106 109.709 53.4941Z" fill="#343A40"/>
<path d="M91.9062 58.1753C92.0856 56.8308 92.0804 55.489 91.9089 54.1445C91.966 55.489 91.9738 56.8308 91.9062 58.1753Z" fill="#343A40"/>
<path d="M91.9089 54.1445V58.1753C91.9738 56.8308 91.9661 55.489 91.9089 54.1445Z" fill="#343A40"/>
<path d="M13.3923 56.6616C13.3923 55.7262 13.3923 54.7909 13.3949 53.8555C13.2961 54.7909 13.3091 55.7262 13.3923 56.6616Z" fill="#343A40"/>
<path d="M13.3924 56.6616C13.3092 55.7262 13.2962 54.7909 13.395 53.8555C13.2754 54.7909 13.2676 55.7262 13.3924 56.6616Z" fill="#343A40"/>
<path d="M25.2044 54.9277C25.0277 55.7511 25.0277 56.5744 25.2044 57.3978C25.1395 56.5744 25.1395 55.7511 25.2044 54.9277Z" fill="#343A40"/>
<path d="M25.2045 57.3978V54.9277C25.1395 55.7511 25.1395 56.5744 25.2045 57.3978Z" fill="#343A40"/>
<path d="M78.7531 101.125C79.3612 101.078 79.9798 101.248 80.5775 101.023C79.9746 101.149 79.3534 100.956 78.7531 101.125Z" fill="#343A40"/>
<path d="M78.7531 101.125C79.3534 100.956 79.9746 101.146 80.5775 101.023C79.9746 101.12 79.3534 100.922 78.7531 101.125Z" fill="#343A40"/>
<path d="M56.384 8.97075C56.9999 8.93949 57.6237 9.09061 58.2266 8.87695C57.6159 8.9916 56.9921 8.81963 56.384 8.97075Z" fill="#343A40"/>
<path d="M56.384 8.97128C56.9921 8.82016 57.6185 8.99213 58.2266 8.87748C57.6107 8.85925 56.9921 8.82798 56.384 8.97128Z" fill="#343A40"/>
<path d="M59.6612 8.87695C60.2745 9.09061 60.9035 8.94209 61.5246 8.96815C60.9087 8.82745 60.2797 8.9916 59.6638 8.87956L59.6612 8.87695Z" fill="#343A40"/>
<path d="M59.6612 8.87736C60.2771 8.9894 60.9087 8.82525 61.522 8.96595C60.9061 8.82264 60.2823 8.85912 59.6612 8.87736Z" fill="#343A40"/>
<path d="M31.1769 15.1016C31.0105 15.7086 31.0105 16.3131 31.1769 16.9202C31.1171 16.3131 31.1171 15.7086 31.1769 15.1016Z" fill="#343A40"/>
<path d="M31.1769 16.9183V15.0996C31.1171 15.7067 31.1171 16.3112 31.1769 16.9183Z" fill="#343A40"/>
<path d="M80.5775 87.3067C80.0161 87.1373 79.4547 87.1373 78.8934 87.3067C79.4547 87.2494 80.0161 87.2494 80.5775 87.3067Z" fill="#343A40"/>
<path d="M78.8907 87.3067C79.4521 87.3067 80.0135 87.3067 80.5749 87.3067C80.0135 87.2493 79.4521 87.2493 78.8907 87.3067Z" fill="#343A40"/>
<path d="M37.313 23.0638C37.8328 23.228 38.35 23.2358 38.8672 23.0586C38.35 23.1289 37.8302 23.1211 37.313 23.0638Z" fill="#343A40"/>
<path d="M37.313 23.0638C37.8328 23.1211 38.35 23.1289 38.8672 23.0586C38.35 23.0586 37.8302 23.0612 37.313 23.0638Z" fill="#343A40"/>
<path d="M9.22359 52.3242C9.00008 52.8479 9.15861 53.3951 9.13003 53.9292C9.15342 53.8068 9.17161 53.6817 9.1846 53.5592C9.20799 53.1476 9.13263 52.7307 9.22359 52.3242Z" fill="#343A40"/>
<path d="M9.22365 52.3242C9.13269 52.7307 9.20806 53.1476 9.18467 53.5592C9.23145 53.1502 9.23145 52.7385 9.22365 52.3242Z" fill="#343A40"/>
<path d="M9.18462 57.2085C9.16902 57.0887 9.15083 56.9688 9.12744 56.8516C9.15863 57.3805 9.00789 57.9198 9.2236 58.4383C9.13004 58.0345 9.2132 57.6176 9.18462 57.2111V57.2085Z" fill="#343A40"/>
<path d="M9.18459 57.209C9.21058 57.6181 9.12741 58.0323 9.22358 58.4362C9.23137 58.0245 9.23657 57.6154 9.18459 57.209Z" fill="#343A40"/>
<path d="M59.8431 105.547C60.3447 105.51 60.8567 105.664 61.3453 105.453C60.8489 105.563 60.3369 105.404 59.8431 105.547Z" fill="#F4F4F4"/>
<path d="M59.8431 105.547C60.3369 105.403 60.8489 105.562 61.3453 105.453C60.8437 105.45 60.3369 105.403 59.8431 105.547Z" fill="#F4F4F4"/>
<path d="M70.5742 24.9552C70.5248 24.4914 70.6885 24.012 70.4702 23.5586C70.5898 24.0172 70.4052 24.4992 70.5742 24.9552Z" fill="#343A40"/>
<path d="M70.5741 24.9552C70.4052 24.4992 70.5897 24.0172 70.4702 23.5586C70.4936 24.025 70.3844 24.5018 70.5741 24.9552Z" fill="#343A40"/>
<path d="M34.5814 28.9994C34.1058 28.8275 33.6328 28.8301 33.1572 28.9968C33.6328 28.9421 34.1084 28.9343 34.5814 28.9994Z" fill="#343A40"/>
<path d="M33.1572 28.9977C33.6328 28.9977 34.1084 28.9978 34.5814 29.0004C34.1058 28.9352 33.6302 28.9404 33.1572 28.9977Z" fill="#343A40"/>
<path d="M56.675 105.451C57.1195 105.665 57.5899 105.508 58.0473 105.542C57.5977 105.407 57.1273 105.555 56.675 105.451Z" fill="#F4F4F4"/>
<path d="M56.675 105.45C57.1273 105.554 57.5977 105.406 58.0473 105.541C57.5977 105.387 57.1325 105.455 56.675 105.45Z" fill="#F4F4F4"/>
<path d="M21.9559 66.1211C21.787 66.5093 21.7922 66.9001 21.9533 67.2884C21.8987 66.9001 21.8909 66.5093 21.9559 66.1211Z" fill="#343A40"/>
<path d="M21.9532 67.2884C21.9532 66.9001 21.9532 66.5093 21.9558 66.1211C21.8908 66.5093 21.8986 66.9001 21.9532 67.2884Z" fill="#343A40"/>
<path d="M13.4833 58.8748C13.4963 58.9191 13.5041 58.9608 13.5223 59.0051C13.5067 58.6846 13.6314 58.3511 13.4287 58.0488C13.5197 58.3172 13.4287 58.6012 13.4833 58.8748Z" fill="#343A40"/>
<path d="M13.4833 58.8748C13.4287 58.6038 13.5197 58.3172 13.4287 58.0488C13.4131 58.3276 13.4079 58.6038 13.4833 58.8748Z" fill="#343A40"/>
<path d="M13.4287 52.5793C13.6314 52.277 13.5041 51.9435 13.5223 51.623C13.5067 51.6621 13.4989 51.7038 13.4859 51.7429C13.4287 52.0165 13.5223 52.3057 13.4287 52.5767V52.5793Z" fill="#343A40"/>
<path d="M13.4287 52.5799C13.5223 52.3089 13.4287 52.0197 13.4859 51.7461C13.4053 52.0171 13.4157 52.2985 13.4287 52.5799Z" fill="#343A40"/>
<path d="M109.579 60.1268C109.774 59.8324 109.652 59.5041 109.673 59.1914C109.652 59.2487 109.636 59.3087 109.623 59.3686C109.584 59.6187 109.662 59.8819 109.579 60.1268Z" fill="#343A40"/>
<path d="M109.579 60.1273C109.662 59.8824 109.584 59.6193 109.623 59.3691C109.566 59.6167 109.566 59.872 109.579 60.1273Z" fill="#343A40"/>
<path d="M109.621 52.1547C109.634 52.2198 109.649 52.285 109.673 52.3475C109.652 52.0348 109.774 51.7065 109.579 51.4121C109.662 51.6518 109.587 51.9098 109.621 52.1547Z" fill="#343A40"/>
<path d="M109.621 52.1547C109.587 51.9098 109.662 51.6518 109.579 51.4121C109.563 51.6622 109.569 51.9124 109.621 52.1547Z" fill="#343A40"/>
<path d="M25.2773 58.6433C25.2643 58.6042 25.2565 58.5625 25.2409 58.5234C25.2513 58.7996 25.1422 59.0914 25.3345 59.3494C25.2487 59.1227 25.3267 58.8752 25.2799 58.6433H25.2773Z" fill="#343A40"/>
<path d="M25.2772 58.6426C25.3266 58.8745 25.246 59.122 25.3318 59.3487C25.3474 59.109 25.3448 58.8719 25.2772 58.6426Z" fill="#343A40"/>
<path d="M105.371 59.2207C105.179 59.4786 105.291 59.7679 105.278 60.0467C105.293 60.0128 105.301 59.9789 105.312 59.945C105.369 59.7079 105.283 59.4552 105.369 59.2233L105.371 59.2207Z" fill="#343A40"/>
<path d="M105.371 59.2207C105.283 59.4526 105.371 59.7053 105.314 59.9424C105.392 59.7079 105.39 59.4656 105.371 59.2207Z" fill="#343A40"/>
<path d="M54.7024 9.05732C54.6557 9.07034 54.6115 9.08337 54.5647 9.10161C54.835 9.08598 55.1183 9.1928 55.3678 9.00781C55.1521 9.08858 54.9208 9.01302 54.6998 9.05732H54.7024Z" fill="#343A40"/>
<path d="M54.7025 9.05755C54.9208 9.01325 55.1547 9.09142 55.3704 9.00804C55.1443 8.99241 54.9208 8.99501 54.7025 9.05755Z" fill="#343A40"/>
<path d="M9.29635 59.4245C9.28336 59.3855 9.27556 59.3438 9.25997 59.3047C9.27036 59.5809 9.16121 59.8727 9.35353 60.1306C9.26516 59.904 9.34573 59.6564 9.29635 59.4245Z" fill="#343A40"/>
<path d="M9.29639 59.4238C9.34577 59.6557 9.2652 59.9032 9.35356 60.1299C9.36656 59.8902 9.36396 59.6531 9.29639 59.4238Z" fill="#343A40"/>
<path d="M105.319 51.6518C105.306 51.6049 105.293 51.5606 105.275 51.5137C105.291 51.7846 105.184 52.0686 105.369 52.3188C105.286 52.1051 105.364 51.8706 105.319 51.6518Z" fill="#343A40"/>
<path d="M105.319 51.6523C105.364 51.8712 105.286 52.1057 105.369 52.3194C105.384 52.0927 105.382 51.8686 105.319 51.6523Z" fill="#343A40"/>
<path d="M21.9558 45.1641C21.7947 45.422 21.7947 45.6826 21.9558 45.9405C21.8934 45.6826 21.8934 45.422 21.9558 45.1641Z" fill="#343A40"/>
<path d="M21.9558 45.9425V45.166C21.8935 45.424 21.8935 45.6845 21.9558 45.9425Z" fill="#343A40"/>
<path d="M62.5201 9.00781C62.7696 9.1928 63.0555 9.08598 63.3232 9.10161C63.2816 9.08337 63.24 9.07295 63.1984 9.05992C62.9749 9.01042 62.7384 9.0938 62.5201 9.01042V9.00781Z" fill="#343A40"/>
<path d="M62.5201 9.00722C62.7384 9.0906 62.9775 9.00722 63.1984 9.05673C62.9775 8.98898 62.7488 8.99159 62.5201 9.00722Z" fill="#343A40"/>
<path d="M46.5132 87.8555C46.3521 88.1134 46.3547 88.374 46.5106 88.6319C46.456 88.374 46.4508 88.1134 46.5132 87.8555Z" fill="#343A40"/>
<path d="M46.5106 88.6319C46.5106 88.374 46.5106 88.1134 46.5132 87.8555C46.4508 88.1134 46.456 88.374 46.5106 88.6319Z" fill="#343A40"/>
<path d="M9.35358 50.6309C9.16386 50.881 9.27301 51.165 9.25742 51.436C9.27821 51.3891 9.2912 51.3422 9.3042 51.2953C9.34578 51.0764 9.26781 50.8445 9.35618 50.6309H9.35358Z" fill="#343A40"/>
<path d="M9.35361 50.6309C9.26525 50.8445 9.34582 51.0764 9.30164 51.2953C9.36401 51.079 9.36401 50.8549 9.35361 50.6309Z" fill="#343A40"/>
<path d="M25.3319 52.9746C25.1474 53.2247 25.2539 53.5087 25.2383 53.7797C25.2591 53.7354 25.2695 53.6885 25.2825 53.6416C25.3267 53.4228 25.2487 53.1883 25.3319 52.9746Z" fill="#343A40"/>
<path d="M25.3319 52.9746C25.2487 53.1883 25.3267 53.4228 25.2825 53.6416C25.3448 53.4254 25.3448 53.2013 25.3319 52.9746Z" fill="#343A40"/>
<path d="M91.7841 59.6065C91.953 59.4006 91.8672 59.1583 91.875 58.9316C91.8568 58.9681 91.8464 59.0046 91.8334 59.0437C91.7893 59.2287 91.8568 59.4267 91.7841 59.6065Z" fill="#343A40"/>
<path d="M91.7841 59.6058C91.8542 59.426 91.7893 59.2254 91.8335 59.043C91.7737 59.2254 91.7711 59.4156 91.7841 59.6058Z" fill="#343A40"/>
<path d="M105.241 60.6543C105.062 60.8575 105.153 61.0998 105.143 61.3291C105.161 61.2979 105.169 61.2666 105.182 61.2353C105.236 61.0451 105.153 60.8367 105.241 60.6543Z" fill="#343A40"/>
<path d="M105.241 60.6543C105.153 60.8393 105.236 61.0477 105.182 61.2353C105.254 61.0503 105.254 60.8523 105.241 60.6543Z" fill="#343A40"/>
<path d="M109.449 61.4307C109.621 61.2249 109.535 60.9825 109.543 60.7559C109.524 60.7923 109.511 60.8314 109.501 60.8705C109.459 61.0529 109.527 61.2535 109.452 61.4307H109.449Z" fill="#343A40"/>
<path d="M109.449 61.4313C109.524 61.2515 109.457 61.0535 109.498 60.8711C109.439 61.0535 109.436 61.2411 109.449 61.4313Z" fill="#343A40"/>
<path d="M1.42937 44.7754C1.27083 44.989 1.27343 45.2053 1.42417 45.4216C1.36959 45.2053 1.3644 44.989 1.42937 44.7754Z" fill="#F2F2F2"/>
<path d="M1.4242 45.4216C1.4242 45.2053 1.4268 44.989 1.4294 44.7754C1.36442 44.9916 1.37222 45.2053 1.4242 45.4216Z" fill="#F2F2F2"/>
<path d="M82.9191 83.3249C83.1348 83.476 83.3506 83.4786 83.5637 83.3223C83.348 83.3848 83.1322 83.3796 82.9191 83.3249Z" fill="#343A40"/>
<path d="M83.5662 83.3223C83.3505 83.3223 83.1348 83.3223 82.9217 83.3249C83.1374 83.3796 83.3531 83.3822 83.5662 83.3223Z" fill="#343A40"/>
<path d="M3.14209 47.1478C3.3578 47.2963 3.57351 47.2989 3.78663 47.1426C3.57091 47.2025 3.3578 47.1947 3.14209 47.1478Z" fill="#343A40"/>
<path d="M3.78663 47.1426C3.57091 47.1426 3.3578 47.1452 3.14209 47.1478C3.3578 47.1973 3.57351 47.2025 3.78663 47.1426Z" fill="#343A40"/>
<path d="M13.5613 50.889C13.7328 50.6884 13.6444 50.4487 13.6574 50.2246C13.6366 50.2611 13.6237 50.3002 13.6107 50.3393C13.5665 50.519 13.6392 50.7144 13.5613 50.889Z" fill="#343A40"/>
<path d="M13.6132 50.3379C13.5508 50.5151 13.5534 50.7001 13.5638 50.8877C13.6418 50.7131 13.569 50.5177 13.6132 50.3379Z" fill="#343A40"/>
<path d="M55.5783 105.414C55.347 105.31 55.0897 105.401 54.8558 105.32C55.0767 105.497 55.3366 105.393 55.5783 105.414Z" fill="#F4F4F4"/>
<path d="M54.8558 105.32C55.0897 105.401 55.347 105.31 55.5783 105.414C55.3496 105.286 55.1027 105.312 54.8558 105.32Z" fill="#F4F4F4"/>
<path d="M63.2945 105.318C63.0606 105.404 62.8033 105.311 62.572 105.412C62.8163 105.397 63.0736 105.501 63.2945 105.318Z" fill="#F4F4F4"/>
<path d="M62.572 105.412C62.8033 105.31 63.0606 105.404 63.2945 105.318C63.0476 105.308 62.7981 105.274 62.572 105.412Z" fill="#F4F4F4"/>
<path d="M91.8361 53.1806C91.8465 53.2119 91.8569 53.2458 91.8699 53.2771C91.8647 53.0426 91.9556 52.795 91.7763 52.584C91.8595 52.7742 91.7867 52.9852 91.8361 53.1806Z" fill="#343A40"/>
<path d="M91.8361 53.1806C91.7893 52.9852 91.8595 52.7742 91.7763 52.584C91.7555 52.7898 91.7711 52.9878 91.8361 53.1806Z" fill="#343A40"/>
<path d="M13.6159 60.3226C13.6289 60.3538 13.6366 60.3877 13.6548 60.419C13.647 60.1897 13.7328 59.95 13.5613 59.7441C13.6392 59.9291 13.5613 60.135 13.6159 60.3226Z" fill="#343A40"/>
<path d="M13.6158 60.3226C13.5638 60.135 13.6392 59.9291 13.5612 59.7441C13.5457 59.9422 13.5457 60.1376 13.6158 60.3226Z" fill="#343A40"/>
<path d="M58.6399 31.4325C44.8941 31.4925 33.8278 42.5738 33.8252 56.2762C33.8252 69.9422 44.9357 81.0834 58.5749 81.0938C72.2193 81.1042 83.3869 69.9969 83.3973 56.4039C83.4077 42.6597 72.2141 31.37 58.6373 31.4299L58.6399 31.4325ZM79.1767 58.5951C78.0773 68.0714 70.8471 75.5701 61.4207 76.8755C56.0643 77.618 51.1185 76.3987 46.6302 73.3502C46.2195 73.0714 46.1754 72.8682 46.4274 72.4487C47.1058 71.3153 47.7815 70.1871 48.5872 69.1371C48.7171 68.9677 48.7847 68.8062 49.0914 68.9495C53.1015 70.8254 56.8622 70.0881 60.4669 67.8109C63.1412 66.1225 64.555 63.5482 65.5218 60.6483C66.6212 57.3497 67.2501 53.9495 67.7179 50.5154C67.9752 48.6264 68.1494 46.7296 68.2585 44.6816C66.629 45.8176 65.028 46.6801 63.2608 47.2324C61.3194 47.8395 59.3078 47.9333 57.3144 48.1626C54.9026 48.4388 52.483 48.7879 50.3259 49.9708C46.7081 51.9562 44.8239 55.1767 44.2158 59.1814C43.8701 61.456 44.2963 63.6264 45.4892 65.617C45.6764 65.9297 45.6374 66.1355 45.4165 66.4117C44.6316 67.3914 43.8597 68.3815 43.1216 69.395C42.8435 69.7754 42.7162 69.8067 42.4043 69.4211C40.0471 66.4899 38.5163 63.1756 38.0017 59.4523C37.0349 52.4487 39.0153 46.3492 44.0572 41.3908C50.4428 35.1141 59.9185 33.6655 67.8167 37.5946C75.6343 41.4846 80.1928 49.9083 79.1845 58.6029L79.1767 58.5951ZM59.0427 56.2059C58.7178 55.7238 58.5515 54.95 58.1253 54.7754C57.686 54.5956 57.1013 55.1767 56.5867 55.4346C52.8364 57.3158 50.565 58.9234 46.5938 62.5086C45.996 59.4758 46.7705 56.8807 48.4728 54.4784C50.1127 52.1673 52.4986 51.2736 55.1287 50.7551C57.1715 50.3538 59.2558 50.3226 61.3038 49.9891C62.7774 49.7494 64.2016 49.3299 65.6908 48.7436C65.4907 50.1141 65.3269 51.3987 65.1138 52.6754C64.5706 55.8984 63.8507 59.0693 62.5331 62.0891C60.7034 66.2762 55.1131 68.8192 50.9184 67.2898C50.2427 67.0422 49.6371 66.6853 49.042 66.2892C48.7171 66.073 48.7353 65.9401 48.9822 65.6665C50.7755 63.6629 52.7065 61.7999 54.7648 60.0724C56.1085 58.9443 57.4937 57.8734 58.9257 56.8624C59.2246 56.6514 59.2532 56.5055 59.0505 56.2085L59.0427 56.2059Z" fill="#343A40"/>
</svg>
