<svg width="150" height="150" viewBox="0 0 150 150" fill="none" xmlns="http://www.w3.org/2000/svg">
<path d="M108.036 0C86.1344 0 68.3574 18.0991 68.3574 40.4214C68.3574 62.7437 86.1344 80.8428 108.036 80.8428C129.938 80.8428 147.715 62.7437 147.715 40.4214C147.617 18.0991 129.84 0 108.036 0ZM138.483 35.9972H125.519C125.126 28.1542 123.849 19.2052 120.804 11.865C130.135 16.1887 137.01 25.2382 138.483 35.9972ZM77.3932 44.9462H90.3576C90.7505 52.7891 92.0273 61.7381 95.0719 69.0783C85.8397 64.6541 78.9647 55.7051 77.3932 44.9462ZM90.4558 35.9972H77.3932C78.8664 25.2382 85.7415 16.2892 95.0719 11.865C92.1255 19.1046 90.8487 28.0537 90.4558 35.9972ZM113.242 64.2519C110.983 70.4861 108.626 71.8938 108.036 71.8938C107.447 71.8938 105.09 70.4861 102.831 64.2519C100.867 59.0233 99.688 52.2864 99.3934 44.9462H116.679C116.385 52.2864 115.108 59.0233 113.242 64.2519ZM99.2952 35.9972C99.6881 28.657 100.867 21.9201 102.733 16.6914C104.992 10.4573 107.349 9.04957 107.938 9.04957C108.527 9.04957 110.885 10.4573 113.144 16.6914C115.108 21.9201 116.286 28.657 116.581 35.9972H99.2952ZM120.804 69.0783C123.849 61.7381 125.126 52.7891 125.519 44.9462H138.483C137.01 55.7051 130.135 64.6541 120.804 69.0783Z" fill="white"/>
<path d="M147.912 99.9475L147.126 98.8415C147.126 98.8415 147.126 98.8415 147.028 98.7409C140.153 89.8924 128.956 94.5178 128.171 94.8194L94.7776 115.734C94.0901 116.237 93.2062 116.438 92.3222 116.438H62.2684C62.563 116.438 67.0809 116.438 67.3756 116.438C61.6791 116.036 49.6969 106.182 61.7773 107.489H77.6882C80.2418 107.489 91.1436 106.182 91.1436 92.8084V92.7079C91.1436 82.3511 81.5186 80.7423 77.1971 80.4407H48.6165C39.7771 80.4407 31.2324 82.15 23.0806 85.4682C16.5001 88.1831 11.393 91.4007 7.66078 94.3167C7.66078 94.3167 7.56257 94.3167 7.46435 94.4172C7.36614 94.5178 7.26792 94.6183 7.1697 94.6183C7.07149 94.6183 7.07149 94.7189 6.97327 94.7189C5.10719 96.3277 0 101.355 0 108.997V128.303C0.0982151 131.621 1.47323 143.285 14.7323 143.285H22.2948H22.8841L82.8936 149.821C90.6526 150.625 98.4116 148.715 104.697 144.29L146.046 115.734C146.341 115.633 153.412 108.394 147.912 99.9475ZM138.483 110.204L99.3937 137.151C94.8758 140.268 89.3758 141.676 83.8757 141.073L23.3752 134.436C23.1788 134.436 22.8841 134.436 22.7859 134.436H13.6519C11.0983 134.436 9.03579 132.425 9.03579 129.912V106.886C9.03579 105.578 9.62508 104.271 10.6072 103.467C21.2145 94.4172 34.4735 89.4902 48.6165 89.4902H77.2953C79.8489 89.4902 82.2061 91.6018 82.1079 94.1156C82.1079 95.3222 81.6168 96.3277 80.8311 97.1321C80.0453 97.9365 78.8668 98.4393 77.59 98.4393H50.1879C47.7326 98.4393 45.5718 100.45 45.5718 102.863C45.5718 109.098 48.1254 114.728 52.2505 118.75C56.3755 122.773 62.072 125.286 68.3577 125.286H95.0723C95.9562 125.286 96.7419 125.085 97.5276 124.582L133.278 102.26C135.34 100.953 138.09 101.456 139.465 103.467L139.662 103.768C141.037 105.88 140.546 108.695 138.483 110.204Z" fill="white"/>
</svg>
