<svg width="150" height="150" xmlns="http://www.w3.org/2000/svg" fill="none">
 <g>
  <title>Layer 1</title>
  <path id="svg_1" fill="#343a40" d="m108.036,0c-21.9016,0 -39.6786,18.0991 -39.6786,40.4214c0,22.3223 17.777,40.4214 39.6786,40.4214c21.902,0 39.679,-18.0991 39.679,-40.4214c-0.098,-22.3223 -17.875,-40.4214 -39.679,-40.4214zm30.447,35.9972l-12.964,0c-0.393,-7.843 -1.67,-16.792 -4.715,-24.1322c9.331,4.3237 16.206,13.3732 17.679,24.1322zm-61.0898,8.949l12.9644,0c0.3929,7.8429 1.6697,16.7919 4.7143,24.1321c-9.2322,-4.4242 -16.1072,-13.3732 -17.6787,-24.1321zm13.0626,-8.949l-13.0626,0c1.4732,-10.759 8.3483,-19.708 17.6787,-24.1322c-2.9464,7.2396 -4.2232,16.1887 -4.6161,24.1322zm22.7862,28.2547c-2.259,6.2342 -4.616,7.6419 -5.206,7.6419c-0.589,0 -2.946,-1.4077 -5.205,-7.6419c-1.964,-5.2286 -3.143,-11.9655 -3.4376,-19.3057l17.2856,0c-0.294,7.3402 -1.571,14.0771 -3.437,19.3057zm-13.9468,-28.2547c0.3929,-7.3402 1.5718,-14.0771 3.4378,-19.3058c2.259,-6.2341 4.616,-7.64183 5.205,-7.64183c0.589,0 2.947,1.40773 5.206,7.64183c1.964,5.2287 3.142,11.9656 3.437,19.3058l-17.2858,0zm21.5088,33.0811c3.045,-7.3402 4.322,-16.2892 4.715,-24.1321l12.964,0c-1.473,10.7589 -8.348,19.7079 -17.679,24.1321z"/>
  <path id="svg_2" fill="#343a40" d="m147.912,99.9475l-0.786,-1.106c0,0 0,0 -0.098,-0.1006c-6.875,-8.8485 -18.072,-4.2231 -18.857,-3.9215l-33.3934,20.9146c-0.6875,0.503 -1.5714,0.704 -2.4554,0.704l-30.0538,0c0.2946,0 4.8125,0 5.1072,0c-5.6965,-0.402 -17.6787,-10.256 -5.5983,-8.949l15.9109,0c2.5536,0 13.4554,-1.307 13.4554,-14.6806l0,-0.1005c0,-10.3568 -9.625,-11.9656 -13.9465,-12.2672l-28.5806,0c-8.8394,0 -17.3841,1.7093 -25.5359,5.0275c-6.5805,2.7149 -11.6876,5.9325 -15.41982,8.8485c0,0 -0.09821,0 -0.19643,0.1005c-0.09821,0.1006 -0.19643,0.2011 -0.29465,0.2011c-0.09821,0 -0.09821,0.1006 -0.19643,0.1006c-1.86608,1.6088 -6.97327,6.6361 -6.97327,14.2781l0,19.306c0.09822,3.318 1.47323,14.982 14.7323,14.982l7.5625,0l0.5893,0l60.0095,6.536c7.759,0.804 15.518,-1.106 21.8034,-5.531l41.349,-28.556c0.295,-0.101 7.366,-7.34 1.866,-15.7865zm-9.429,10.2565l-39.0893,26.947c-4.5179,3.117 -10.0179,4.525 -15.518,3.922l-60.5005,-6.637c-0.1964,0 -0.4911,0 -0.5893,0l-9.134,0c-2.5536,0 -4.61611,-2.011 -4.61611,-4.524l0,-23.026c0,-1.308 0.58929,-2.615 1.57141,-3.419c10.6073,-9.0498 23.8663,-13.9768 38.0093,-13.9768l28.6788,0c2.5536,0 4.9108,2.1116 4.8126,4.6254c0,1.2066 -0.4911,2.2121 -1.2768,3.0165c-0.7858,0.8044 -1.9643,1.3072 -3.2411,1.3072l-27.4021,0c-2.4553,0 -4.6161,2.0107 -4.6161,4.4237c0,6.235 2.5536,11.865 6.6787,15.887c4.125,4.023 9.8215,6.536 16.1072,6.536l26.7146,0c0.8839,0 1.6696,-0.201 2.4553,-0.704l35.7504,-22.322c2.062,-1.307 4.812,-0.804 6.187,1.207l0.197,0.301c1.375,2.112 0.884,4.927 -1.179,6.436z"/>
 </g>

</svg>