<svg width="150" height="150" viewBox="0 0 150 150" fill="none" xmlns="http://www.w3.org/2000/svg">
<path d="M0.562078 79.8095C0.562078 86.7714 1.62012 93.5316 3.7362 100.191C-0.601768 105.639 -1.3424 113.307 2.46655 119.563C6.2755 125.819 13.576 129.047 20.7707 128.24C36.7471 144.384 54.9454 148.621 64.1504 149.933C67.3245 150.438 70.1812 148.016 70.1812 144.989V132.175C70.1812 127.635 67.1129 123.599 62.4575 122.388C59.3892 121.581 55.686 120.269 51.6655 118.05L53.0409 117.242C58.1195 114.417 59.8124 108.263 56.9557 103.419L44.4708 82.5338C41.5083 77.6907 35.0542 76.0763 30.0814 78.8006L28.4944 79.7086C28.4944 75.2692 29.1292 71.6369 29.9756 68.7108C31.1395 64.3723 29.235 59.731 25.1086 57.5112L13.4702 51.1547C10.6135 49.6413 7.12193 50.852 5.95809 53.6772C3.6304 59.0247 0.562078 68.0046 0.562078 79.8095ZM9.87284 79.8095C9.87284 73.3521 10.9309 67.0965 12.9412 61.0427L21.1939 65.583C19.8184 70.2243 19.1836 74.9665 19.1836 79.8095C19.1836 84.1481 19.9242 87.8813 20.7707 93.128C17.7024 92.8253 14.5282 93.128 11.6715 94.2378C10.5077 89.4957 9.87284 84.6526 9.87284 79.8095ZM34.7368 101.805C32.0917 97.4666 27.7537 94.3387 22.2519 93.3298L35.7949 85.9643L49.761 108.868L36.2181 116.233C38.0167 111.39 37.3819 106.144 34.7368 101.805ZM10.6135 115.124C8.07417 110.886 9.55543 105.437 13.9992 103.016C18.5488 100.493 24.368 102.108 26.8015 106.446C29.1292 110.583 27.5421 116.032 23.2042 118.352C21.7229 119.159 20.1358 119.563 18.6546 119.563C15.4805 119.462 12.3063 117.949 10.6135 115.124ZM30.0814 124.608C32.5149 122.792 34.4194 120.37 35.6891 117.646L40.2386 121.076C46.4811 125.819 53.57 129.249 61.082 131.065V140.348C49.5494 137.926 38.8632 132.478 30.0814 124.608Z" fill="white"/>
<path d="M120.015 68.7112C120.862 71.6372 121.496 75.3704 121.496 79.709L119.909 78.8009C114.831 76.0766 108.377 77.691 105.52 82.5341L92.9293 103.319C89.9668 108.162 91.7654 114.317 96.844 117.142C97.4789 117.445 97.4789 118.353 96.844 118.655C93.3525 120.471 90.1784 121.581 87.5333 122.288C82.9837 123.498 79.8096 127.534 79.8096 132.075V144.889C79.8096 148.016 82.6663 150.337 85.8404 149.833C95.1512 148.521 113.244 144.283 129.22 128.14C136.415 128.947 143.715 125.718 147.524 119.462C151.333 113.207 150.593 105.539 146.36 100.09C148.476 93.5319 149.534 86.6709 149.534 79.709C149.534 67.904 146.572 59.025 144.244 53.5766C143.08 50.7514 139.483 49.5407 136.732 51.0541L125.2 57.3098C120.967 59.6304 118.851 64.2717 120.015 68.7112ZM130.807 79.8098C130.807 74.9668 130.172 70.2246 128.797 65.5833L137.05 61.043C139.06 67.0968 140.118 73.3524 140.118 79.8098C140.118 84.7538 139.483 89.5969 138.319 94.339C135.463 93.2292 132.288 92.8256 129.22 93.2292C130.067 87.7807 130.807 84.1484 130.807 79.8098ZM100.23 108.868L114.196 85.9646L127.739 93.3301C122.343 94.339 117.899 97.5678 115.254 101.805C112.609 106.144 111.974 111.29 113.773 116.234L100.23 108.868ZM126.787 118.353C122.343 115.931 120.862 110.483 123.401 106.245C125.94 102.007 131.654 100.595 136.097 103.016C140.541 105.438 142.022 110.886 139.483 115.124C137.79 117.949 134.616 119.563 131.442 119.563C129.855 119.462 128.268 119.16 126.787 118.353ZM89.0145 131.066C96.5266 129.249 103.616 125.819 109.858 121.077L114.408 117.646C115.677 120.371 117.582 122.792 120.015 124.608C111.339 132.579 100.653 138.028 89.1203 140.449V131.066H89.0145Z" fill="white"/>
<path d="M57.9075 10.9978C35.3712 16.0427 22.5689 28.9575 16.6438 35.9194C14.6336 38.3409 15.2684 41.8723 18.1251 43.4867L29.8694 49.9441C33.9957 52.1639 39.0743 51.4576 42.46 48.3298C44.6819 46.2109 47.7503 43.7894 51.7708 41.5697V43.184C51.7708 48.7334 56.532 53.2737 62.3512 53.2737H87.7442C93.5634 53.2737 98.3246 48.7334 98.3246 43.184V41.5697C102.345 43.7894 105.414 46.2109 107.635 48.2289C111.021 51.3567 116.1 52.063 120.226 49.8432L131.97 43.3858C134.827 41.8723 135.462 38.24 133.452 35.8185C127.527 28.7557 114.513 15.8409 92.188 10.8969C89.3313 4.64127 82.7714 0 75.0477 0C67.324 0 60.6584 4.64127 57.9075 10.9978ZM65.737 17.9597C65.737 13.0157 69.9691 8.87896 75.0477 8.87896C80.1263 8.87896 84.3585 13.0157 84.3585 17.9597C84.3585 22.8028 80.2321 26.8387 75.0477 26.8387C69.8633 26.7378 65.737 22.8028 65.737 17.9597ZM89.9661 28.453C91.7648 26.1324 93.0344 23.4082 93.4576 20.3812C104.884 23.6099 115.147 29.6638 123.189 38.0383L114.83 42.5786C104.144 32.388 92.9286 29.8656 89.9661 28.453ZM26.9068 38.0383C34.948 29.6638 45.211 23.6099 56.6378 20.3812C57.061 23.4082 58.3307 26.1324 60.1293 28.453C57.2726 29.7647 45.9516 32.388 35.2654 42.6795L26.9068 38.0383ZM89.0139 29.5629V44.3948H61.0816V29.5629C64.4673 33.1952 69.4401 35.5158 75.0477 35.5158C80.5495 35.6167 85.5223 33.2961 89.0139 29.5629Z" fill="white"/>
</svg>
