<svg width="150" height="150" xmlns="http://www.w3.org/2000/svg" fill="none">
 <g>
  <title>Layer 1</title>
  <path d="m0.56208,79.8095c0,6.9619 1.05804,13.7221 3.17412,20.3815c-4.33797,5.448 -5.0786,13.116 -1.26965,19.372c3.80895,6.256 11.10945,9.484 18.30415,8.677c15.9764,16.144 34.1747,20.381 43.3797,21.693c3.1741,0.505 6.0308,-1.917 6.0308,-4.944l0,-12.814c0,-4.54 -3.0683,-8.576 -7.7237,-9.787c-3.0683,-0.807 -6.7715,-2.119 -10.792,-4.338l1.3754,-0.808c5.0786,-2.825 6.7715,-8.979 3.9148,-13.823l-12.4849,-20.8852c-2.9625,-4.8431 -9.4166,-6.4575 -14.3894,-3.7332l-1.587,0.908c0,-4.4394 0.6348,-8.0717 1.4812,-10.9978c1.1639,-4.3385 -0.7406,-8.9798 -4.867,-11.1996l-11.6384,-6.3565c-2.8567,-1.5134 -6.34827,-0.3027 -7.51211,2.5225c-2.32769,5.3475 -5.39601,14.3274 -5.39601,26.1323zm9.31076,0c0,-6.4574 1.05806,-12.713 3.06836,-18.7668l8.2527,4.5403c-1.3755,4.6413 -2.0103,9.3835 -2.0103,14.2265c0,4.3386 0.7406,8.0718 1.5871,13.3185c-3.0683,-0.3027 -6.2425,0 -9.0992,1.1098c-1.1638,-4.7421 -1.79866,-9.5852 -1.79866,-14.4283zm24.86396,21.9955c-2.6451,-4.3384 -6.9831,-7.4663 -12.4849,-8.4752l13.543,-7.3655l13.9661,22.9037l-13.5429,7.365c1.7986,-4.843 1.1638,-10.089 -1.4813,-14.428zm-24.1233,13.319c-2.53933,-4.238 -1.05807,-9.687 3.3857,-12.108c4.5496,-2.523 10.3688,-0.908 12.8023,3.43c2.3277,4.137 0.7406,9.586 -3.5973,11.906c-1.4813,0.807 -3.0684,1.211 -4.5496,1.211c-3.1741,-0.101 -6.3483,-1.614 -8.0411,-4.439zm19.4679,9.484c2.4335,-1.816 4.338,-4.238 5.6077,-6.962l4.5495,3.43c6.2425,4.743 13.3314,8.173 20.8434,9.989l0,9.283c-11.5326,-2.422 -22.2188,-7.87 -31.0006,-15.74z" fill="#343a40" id="svg_1"/>
  <path d="m120.015,68.7112c0.847,2.926 1.481,6.6592 1.481,10.9978l-1.587,-0.9081c-5.078,-2.7243 -11.532,-1.1099 -14.389,3.7332l-12.5907,20.7849c-2.9625,4.843 -1.1639,10.998 3.9147,13.823c0.6349,0.303 0.6349,1.211 0,1.513c-3.4915,1.816 -6.6656,2.926 -9.3107,3.633c-4.5496,1.21 -7.7237,5.246 -7.7237,9.787l0,12.814c0,3.127 2.8567,5.448 6.0308,4.944c9.3108,-1.312 27.4036,-5.55 43.3796,-21.693c7.195,0.807 14.495,-2.422 18.304,-8.678c3.809,-6.255 3.069,-13.923 -1.164,-19.372c2.116,-6.5581 3.174,-13.4191 3.174,-20.381c0,-11.805 -2.962,-20.684 -5.29,-26.1324c-1.164,-2.8252 -4.761,-4.0359 -7.512,-2.5225l-11.532,6.2557c-4.233,2.3206 -6.349,6.9619 -5.185,11.4014zm10.792,11.0986c0,-4.843 -0.635,-9.5852 -2.01,-14.2265l8.253,-4.5403c2.01,6.0538 3.068,12.3094 3.068,18.7668c0,4.944 -0.635,9.7871 -1.799,14.5292c-2.856,-1.1098 -6.031,-1.5134 -9.099,-1.1098c0.847,-5.4485 1.587,-9.0808 1.587,-13.4194zm-30.577,29.0582l13.966,-22.9034l13.543,7.3655c-5.396,1.0089 -9.84,4.2377 -12.485,8.4749c-2.645,4.339 -3.28,9.485 -1.481,14.429l-13.543,-7.366zm26.557,9.485c-4.444,-2.422 -5.925,-7.87 -3.386,-12.108c2.539,-4.238 8.253,-5.65 12.696,-3.229c4.444,2.422 5.925,7.87 3.386,12.108c-1.693,2.825 -4.867,4.439 -8.041,4.439c-1.587,-0.101 -3.174,-0.403 -4.655,-1.21zm-37.7725,12.713c7.5121,-1.817 14.6015,-5.247 20.8435,-9.989l4.55,-3.431c1.269,2.725 3.174,5.146 5.607,6.962c-8.676,7.971 -19.362,13.42 -30.8947,15.841l0,-9.383l-0.1058,0z" fill="#343a40" id="svg_2"/>
  <path d="m57.9075,10.9978c-22.5363,5.0449 -35.3386,17.9597 -41.2637,24.9216c-2.0102,2.4215 -1.3754,5.9529 1.4813,7.5673l11.7443,6.4574c4.1263,2.2198 9.2049,1.5135 12.5906,-1.6143c2.2219,-2.1189 5.2903,-4.5404 9.3108,-6.7601l0,1.6143c0,5.5494 4.7612,10.0897 10.5804,10.0897l25.393,0c5.8192,0 10.5804,-4.5403 10.5804,-10.0897l0,-1.6143c4.0204,2.2197 7.0894,4.6412 9.3104,6.6592c3.386,3.1278 8.465,3.8341 12.591,1.6143l11.744,-6.4574c2.857,-1.5135 3.492,-5.1458 1.482,-7.5673c-5.925,-7.0628 -18.939,-19.9776 -41.264,-24.9216c-2.8567,-6.25563 -9.4166,-10.8969 -17.1403,-10.8969c-7.7237,0 -14.3893,4.64127 -17.1402,10.9978zm7.8295,6.9619c0,-4.944 4.2321,-9.08074 9.3107,-9.08074c5.0786,0 9.3108,4.13674 9.3108,9.08074c0,4.8431 -4.1264,8.879 -9.3108,8.879c-5.1844,-0.1009 -9.3107,-4.0359 -9.3107,-8.879zm24.2291,10.4933c1.7987,-2.3206 3.0683,-5.0448 3.4915,-8.0718c11.4264,3.2287 21.6894,9.2826 29.7314,17.6571l-8.359,4.5403c-10.686,-10.1906 -21.9014,-12.713 -24.8639,-14.1256zm-63.0593,9.5853c8.0412,-8.3745 18.3042,-14.4284 29.731,-17.6571c0.4232,3.027 1.6929,5.7512 3.4915,8.0718c-2.8567,1.3117 -14.1777,3.935 -24.8639,14.2265l-8.3586,-4.6412zm62.1071,-8.4754l0,14.8319l-27.9323,0l0,-14.8319c3.3857,3.6323 8.3585,5.9529 13.9661,5.9529c5.5018,0.1009 10.4746,-2.2197 13.9662,-5.9529z" fill="#343a40" id="svg_3"/>
 </g>

</svg>