<svg width="150" height="150" viewBox="0 0 150 150" fill="none" xmlns="http://www.w3.org/2000/svg">
<path d="M107.27 24.2467C106.27 23.8426 105.571 22.9334 105.371 21.8221C103.372 9.39561 92.7783 0 79.9858 0H76.088C52.7016 0 32.5134 15.9624 26.8167 38.8958L26.4169 40.4112C25.9172 42.4318 27.4164 44.4524 29.5151 44.4524H42.8074C51.7022 44.4524 60.597 46.5739 68.4924 50.6151C72.0904 52.4336 75.9881 53.3428 79.9858 53.3428C90.9794 53.3428 100.274 46.3719 103.972 36.6732C104.671 34.8547 106.77 33.9454 108.469 34.9557C110.568 36.168 112.567 37.3804 114.466 38.7948C115.865 39.8051 117.764 39.502 118.863 38.1886C120.862 35.6629 120.262 32.0259 117.664 30.2074C114.466 27.8837 110.968 25.8632 107.27 24.2467ZM79.9858 44.4524C77.3873 44.4524 74.7888 43.8462 72.3902 42.6338C63.1955 37.9866 53.0015 35.5619 42.7075 35.5619H42.0079C39.6093 35.5619 38.0102 32.9352 39.2095 30.7125C46.6052 17.4779 60.4971 8.89047 76.088 8.89047H79.9858C84.1833 8.89047 87.9811 10.4059 90.8794 12.9316C93.278 15.0532 91.4791 19.0943 88.3809 18.5892C84.8829 18.084 81.285 17.7809 77.787 17.7809C71.7905 17.7809 65.894 18.4881 60.0973 20.0036C57.8986 20.6097 56.6993 22.9334 57.299 25.055C58.0985 27.4796 60.597 28.9951 62.9956 28.3889C67.7929 27.1766 72.7899 26.6714 77.6871 26.6714C83.084 26.6714 88.4808 27.3786 93.6778 28.793C95.4767 29.2981 96.4762 31.2177 95.8765 33.0362C93.6778 39.603 87.3815 44.4524 79.9858 44.4524Z" fill="white"/>
<path d="M134.454 65.163L132.455 63.2434C131.356 62.2331 129.657 62.4352 128.957 63.7486L121.661 76.3771C117.264 84.1562 110.968 90.8241 103.572 95.7745C100.274 97.9971 97.4754 101.028 95.4766 104.463C89.2802 115.273 91.7788 128.305 99.974 136.287C100.174 136.489 100.174 136.691 99.974 136.893C96.8758 139.014 93.6777 140.732 90.2796 142.247C88.9804 142.854 88.3807 144.369 88.8804 145.682C90.1797 148.915 93.8775 150.431 96.9757 148.915C100.873 146.895 104.671 144.571 108.169 141.944C108.269 141.843 108.369 141.843 108.569 141.944C120.562 147.4 134.654 142.753 141.25 131.235L143.249 127.8C154.842 107.292 151.244 81.5295 134.454 65.163ZM135.553 123.254L133.554 126.689C129.957 132.953 123.16 135.984 116.664 135.074C116.364 135.074 116.265 134.67 116.464 134.468C120.562 130.225 124.16 125.477 127.058 120.324C131.056 113.252 133.854 105.675 135.353 97.694C135.653 95.9765 134.554 94.259 132.755 94.057L130.756 93.7539C128.757 93.4508 126.958 94.7642 126.559 96.7847C125.159 103.554 122.761 109.918 119.363 115.879C116.165 121.436 112.167 126.487 107.57 130.831C107.47 130.932 107.17 130.932 107.07 130.831C100.774 125.679 98.7747 116.384 103.072 109.009C104.371 106.685 106.17 104.766 108.369 103.251C116.864 97.593 124.16 89.8138 129.257 80.8223L131.855 76.276C131.955 76.074 132.355 75.973 132.455 76.276C142.749 89.7128 144.148 108.201 135.553 123.254Z" fill="white"/>
<path d="M50.9029 137.499C50.3033 137.095 50.2033 136.186 50.703 135.681C58.3986 127.699 60.4973 115.071 54.5008 104.564C52.502 101.129 49.7036 98.0982 46.4055 95.8756C39.0099 90.9252 32.7135 84.1563 28.2161 76.3772L21.8199 65.1631C20.6206 63.1425 17.9221 62.7384 16.3231 64.3548L15.5235 65.062C-1.2667 81.4286 -4.86461 107.191 6.82858 127.598L8.82742 131.033C15.4236 142.551 29.3155 146.996 41.1086 141.944C41.5084 141.742 41.9082 141.843 42.3079 142.045C46.3056 144.975 50.5032 147.602 55.0005 149.623C57.0993 150.633 59.5979 149.522 60.3974 147.4L60.8971 146.188C61.5967 144.47 60.7972 142.551 59.0982 141.742C56.1998 140.732 53.5014 139.217 50.9029 137.499ZM43.5072 130.326C43.0075 130.73 42.3079 130.73 41.8082 130.326C37.4108 126.083 33.613 121.234 30.5148 115.879C27.1168 109.918 24.7182 103.554 23.4189 96.8859C23.0192 94.8653 21.0203 93.4509 19.0215 93.754L17.8222 93.9561C15.7234 94.2592 14.3242 96.2797 14.724 98.4013C16.2231 106.18 19.0215 113.556 22.9192 120.425C25.6176 125.073 28.8158 129.417 32.4137 133.357C33.1133 134.165 32.6136 135.378 31.5142 135.378H31.1144C25.3178 135.378 19.6211 132.347 16.423 126.79L14.4242 123.355C6.02905 108.706 7.12841 90.8242 16.6229 77.3875C17.1226 76.6803 18.222 76.6803 18.6217 77.4885L20.5206 80.9234C25.6176 89.9149 32.8135 97.5931 41.4085 103.352C43.6072 104.766 45.4061 106.787 46.7054 109.11C51.0029 116.182 49.3039 125.073 43.5072 130.326Z" fill="white"/>
<path d="M96.1767 81.5297L81.0854 73.9526C80.086 73.4475 79.3864 72.3362 79.3864 71.1239V63.7488C79.3864 60.92 76.0884 59.6067 74.0895 61.5262L53.0018 82.8431C51.5027 84.3585 51.9024 86.8842 53.8013 87.7935L68.8925 95.3706C69.892 95.8757 70.5916 96.987 70.5916 98.1994V105.574C70.5916 108.403 73.8896 109.717 75.8885 107.797L96.9762 86.4801C98.4753 84.9647 98.0756 82.439 96.1767 81.5297ZM68.6927 85.3688C66.7938 84.4596 66.394 81.8328 67.8931 80.4184L70.5916 77.6907V78.5999L81.2853 84.0555C83.1842 84.9647 83.584 87.5914 82.0849 89.0058L79.3864 91.7336V90.8243L68.6927 85.3688Z" fill="white"/>
</svg>
