<svg width="150" height="150" xmlns="http://www.w3.org/2000/svg" fill="none">
 <g>
  <title>Layer 1</title>
  <path d="m107.27,24.2467c-1,-0.4041 -1.699,-1.3133 -1.899,-2.4246c-1.999,-12.42649 -12.5927,-21.8221 -25.3852,-21.8221l-3.8978,0c-23.3864,0 -43.5746,15.9624 -49.2713,38.8958l-0.3998,1.5154c-0.4997,2.0206 0.9995,4.0412 3.0982,4.0412l13.2923,0c8.8948,0 17.7896,2.1215 25.685,6.1627c3.598,1.8185 7.4957,2.7277 11.4934,2.7277c10.9936,0 20.2882,-6.9709 23.9862,-16.6696c0.699,-1.8185 2.798,-2.7278 4.497,-1.7175c2.099,1.2123 4.098,2.4247 5.997,3.8391c1.399,1.0103 3.298,0.7072 4.397,-0.6062c1.999,-2.5257 1.399,-6.1627 -1.199,-7.9812c-3.198,-2.3237 -6.696,-4.3442 -10.394,-5.9607zm-27.2842,20.2057c-2.5985,0 -5.197,-0.6062 -7.5956,-1.8186c-9.1947,-4.6472 -19.3887,-7.0719 -29.6827,-7.0719l-0.6996,0c-2.3986,0 -3.9977,-2.6267 -2.7984,-4.8494c7.3957,-13.2346 21.2876,-21.82203 36.8785,-21.82203l3.8978,0c4.1975,0 7.9953,1.51543 10.8936,4.04113c2.3986,2.1216 0.5997,6.1627 -2.4985,5.6576c-3.498,-0.5052 -7.0959,-0.8083 -10.5939,-0.8083c-5.9965,0 -11.893,0.7072 -17.6897,2.2227c-2.1987,0.6061 -3.398,2.9298 -2.7983,5.0514c0.7995,2.4246 3.298,3.9401 5.6966,3.3339c4.7973,-1.2123 9.7943,-1.7175 14.6915,-1.7175c5.3969,0 10.7937,0.7072 15.9907,2.1216c1.7989,0.5051 2.7984,2.4247 2.1987,4.2432c-2.1987,6.5668 -8.495,11.4162 -15.8907,11.4162z" fill="#4caf50" id="svg_1"/>
  <path d="m134.454,65.163l-1.999,-1.9196c-1.099,-1.0103 -2.798,-0.8082 -3.498,0.5052l-7.296,12.6285c-4.397,7.7791 -10.693,14.447 -18.089,19.3974c-3.298,2.2226 -6.0966,5.2535 -8.0954,8.6885c-6.1964,10.81 -3.6978,23.842 4.4974,31.824c0.2,0.202 0.2,0.404 0,0.606c-3.0982,2.121 -6.2963,3.839 -9.6944,5.354c-1.2992,0.607 -1.8989,2.122 -1.3992,3.435c1.2993,3.233 4.9971,4.749 8.0953,3.233c3.8973,-2.02 7.6953,-4.344 11.1933,-6.971c0.1,-0.101 0.2,-0.101 0.4,0c11.993,5.456 26.085,0.809 32.681,-10.709l1.999,-3.435c11.593,-20.508 7.995,-46.2705 -8.795,-62.637zm1.099,58.091l-1.999,3.435c-3.597,6.264 -10.394,9.295 -16.89,8.385c-0.3,0 -0.399,-0.404 -0.2,-0.606c4.098,-4.243 7.696,-8.991 10.594,-14.144c3.998,-7.072 6.796,-14.649 8.295,-22.63c0.3,-1.7175 -0.799,-3.435 -2.598,-3.637l-1.999,-0.3031c-1.999,-0.3031 -3.798,1.0103 -4.197,3.0308c-1.4,6.7693 -3.798,13.1333 -7.196,19.0943c-3.198,5.557 -7.196,10.608 -11.793,14.952c-0.1,0.101 -0.4,0.101 -0.5,0c-6.296,-5.152 -8.2953,-14.447 -3.998,-21.822c1.299,-2.324 3.098,-4.243 5.297,-5.758c8.495,-5.658 15.791,-13.4372 20.888,-22.4287l2.598,-4.5463c0.1,-0.202 0.5,-0.303 0.6,0c10.294,13.4368 11.693,31.925 3.098,46.978z" fill="#4caf50" id="svg_2"/>
  <path d="m50.9029,137.499c-0.5996,-0.404 -0.6996,-1.313 -0.1999,-1.818c7.6956,-7.982 9.7943,-20.61 3.7978,-31.117c-1.9988,-3.435 -4.7972,-6.4658 -8.0953,-8.6884c-7.3956,-4.9504 -13.692,-11.7193 -18.1894,-19.4984l-6.3962,-11.2141c-1.1993,-2.0206 -3.8978,-2.4247 -5.4968,-0.8083l-0.7996,0.7072c-16.7902,16.3666 -20.38811,42.129 -8.69492,62.536l1.99884,3.435c6.59618,11.518 20.48808,15.963 32.28118,10.911c0.3998,-0.202 0.7996,-0.101 1.1993,0.101c3.9977,2.93 8.1953,5.557 12.6926,7.578c2.0988,1.01 4.5974,-0.101 5.3969,-2.223l0.4997,-1.212c0.6996,-1.718 -0.0999,-3.637 -1.7989,-4.446c-2.8984,-1.01 -5.5968,-2.525 -8.1953,-4.243zm-7.3957,-7.173c-0.4997,0.404 -1.1993,0.404 -1.699,0c-4.3974,-4.243 -8.1952,-9.092 -11.2934,-14.447c-3.398,-5.961 -5.7966,-12.325 -7.0959,-18.9931c-0.3997,-2.0206 -2.3986,-3.435 -4.3974,-3.1319l-1.1993,0.2021c-2.0988,0.3031 -3.498,2.3236 -3.0982,4.4452c1.4991,7.7787 4.2975,15.1547 8.1952,22.0237c2.6984,4.648 5.8966,8.992 9.4945,12.932c0.6996,0.808 0.1999,2.021 -0.8995,2.021l-0.3998,0c-5.7966,0 -11.4933,-3.031 -14.6914,-8.588l-1.9988,-3.435c-8.39515,-14.649 -7.29579,-32.5308 2.1987,-45.9675c0.4997,-0.7072 1.5991,-0.7072 1.9988,0.101l1.8989,3.4349c5.097,8.9915 12.2929,16.6697 20.8879,22.4286c2.1987,1.414 3.9976,3.435 5.2969,5.758c4.2975,7.072 2.5985,15.963 -3.1982,21.216z" fill="#4caf50" id="svg_3"/>
  <path d="m96.1767,81.5297l-15.0913,-7.5771c-0.9994,-0.5051 -1.699,-1.6164 -1.699,-2.8287l0,-7.3751c0,-2.8288 -3.298,-4.1421 -5.2969,-2.2226l-21.0877,21.3169c-1.4991,1.5154 -1.0994,4.0411 0.7995,4.9504l15.0912,7.5771c0.9995,0.5051 1.6991,1.6164 1.6991,2.8288l0,7.3746c0,2.829 3.298,4.143 5.2969,2.223l21.0877,-21.3169c1.4991,-1.5154 1.0994,-4.0411 -0.7995,-4.9504zm-27.484,3.8391c-1.8989,-0.9092 -2.2987,-3.536 -0.7996,-4.9504l2.6985,-2.7277l0,0.9092l10.6937,5.4556c1.8989,0.9092 2.2987,3.5359 0.7996,4.9503l-2.6985,2.7278l0,-0.9093l-10.6937,-5.4555z" fill="#4caf50" id="svg_4"/>
 </g>

</svg>