<svg width="782" height="59" viewBox="0 0 782 59" fill="none" xmlns="http://www.w3.org/2000/svg">
<path d="M733.414 58.0959V24.9119H739.558C740.177 24.9119 740.689 25.0506 741.094 25.3279C741.521 25.6052 741.82 26.0212 741.99 26.5759L742.534 28.3679C743.089 27.7919 743.665 27.2692 744.262 26.7999C744.86 26.3092 745.5 25.8932 746.182 25.5519C746.886 25.1892 747.633 24.9119 748.422 24.7199C749.233 24.5066 750.118 24.3999 751.078 24.3999C753.084 24.3999 754.737 24.9226 756.038 25.9679C757.361 26.9919 758.364 28.3679 759.046 30.0959C759.601 29.0719 760.273 28.1972 761.062 27.4719C761.873 26.7466 762.737 26.1599 763.654 25.7119C764.593 25.2639 765.574 24.9332 766.598 24.7199C767.644 24.5066 768.678 24.3999 769.702 24.3999C771.601 24.3999 773.286 24.6879 774.758 25.2639C776.23 25.8186 777.457 26.6399 778.438 27.7279C779.441 28.7946 780.198 30.1172 780.71 31.6959C781.222 33.2532 781.478 35.0239 781.478 37.0079V58.0959H771.558V37.0079C771.558 33.5732 770.086 31.8559 767.142 31.8559C765.798 31.8559 764.678 32.3039 763.782 33.1999C762.908 34.0746 762.47 35.3439 762.47 37.0079V58.0959H752.55V37.0079C752.55 35.1092 752.177 33.7759 751.43 33.0079C750.684 32.2399 749.585 31.8559 748.134 31.8559C747.238 31.8559 746.385 32.0586 745.574 32.4639C744.785 32.8692 744.038 33.4132 743.334 34.0959V58.0959H733.414Z" fill="#181C32"/>
<path d="M706.977 58.096V24.912H712.865C713.355 24.912 713.761 24.9546 714.081 25.04C714.422 25.1253 714.699 25.264 714.913 25.456C715.147 25.6266 715.318 25.8613 715.425 26.16C715.553 26.4586 715.659 26.8213 715.745 27.248L716.289 30.352C717.505 28.4746 718.87 26.992 720.385 25.904C721.899 24.816 723.553 24.272 725.345 24.272C726.859 24.272 728.075 24.6346 728.993 25.36L727.713 32.656C727.627 33.104 727.457 33.424 727.201 33.616C726.945 33.7866 726.603 33.872 726.177 33.872C725.814 33.872 725.387 33.8293 724.897 33.744C724.406 33.6373 723.787 33.584 723.041 33.584C720.438 33.584 718.39 34.9706 716.897 37.744V58.096H706.977Z" fill="#181C32"/>
<path d="M684.636 24.3999C687.153 24.3999 689.446 24.7946 691.516 25.5839C693.585 26.3732 695.356 27.5039 696.828 28.9759C698.321 30.4479 699.473 32.2399 700.284 34.3519C701.116 36.4426 701.532 38.7999 701.532 41.4239C701.532 44.0692 701.116 46.4586 700.284 48.5919C699.473 50.7039 698.321 52.5066 696.828 53.9999C695.356 55.4719 693.585 56.6132 691.516 57.4239C689.446 58.2132 687.153 58.6079 684.636 58.6079C682.097 58.6079 679.782 58.2132 677.692 57.4239C675.622 56.6132 673.83 55.4719 672.316 53.9999C670.822 52.5066 669.66 50.7039 668.828 48.5919C668.017 46.4586 667.612 44.0692 667.612 41.4239C667.612 38.7999 668.017 36.4426 668.828 34.3519C669.66 32.2399 670.822 30.4479 672.316 28.9759C673.83 27.5039 675.622 26.3732 677.692 25.5839C679.782 24.7946 682.097 24.3999 684.636 24.3999ZM684.636 51.2479C686.918 51.2479 688.593 50.4479 689.66 48.8479C690.748 47.2266 691.292 44.7732 691.292 41.4879C691.292 38.2026 690.748 35.7599 689.66 34.1599C688.593 32.5599 686.918 31.7599 684.636 31.7599C682.289 31.7599 680.572 32.5599 679.484 34.1599C678.396 35.7599 677.852 38.2026 677.852 41.4879C677.852 44.7732 678.396 47.2266 679.484 48.8479C680.572 50.4479 682.289 51.2479 684.636 51.2479Z" fill="#181C32"/>
<path d="M648.136 58.0959V31.7279L645.96 31.2799C645.214 31.1093 644.606 30.8426 644.136 30.4799C643.688 30.1173 643.464 29.5839 643.464 28.8799V24.9759H648.136V23.0879C648.136 21.1893 648.435 19.4719 649.032 17.9359C649.651 16.3999 650.526 15.0879 651.656 13.9999C652.808 12.9119 654.206 12.0693 655.848 11.4719C657.491 10.8746 659.358 10.5759 661.448 10.5759C662.259 10.5759 663.006 10.6293 663.688 10.7359C664.392 10.8213 665.118 10.9706 665.864 11.1839L665.672 16.0159C665.651 16.3573 665.555 16.6453 665.384 16.8799C665.235 17.0933 665.043 17.2746 664.808 17.4239C664.574 17.5519 664.307 17.6479 664.008 17.7119C663.731 17.7759 663.454 17.8079 663.176 17.8079C662.302 17.8079 661.523 17.8933 660.84 18.0639C660.158 18.2346 659.582 18.5439 659.112 18.9919C658.664 19.4186 658.323 19.9946 658.088 20.7199C657.854 21.4239 657.736 22.3199 657.736 23.4079V24.9759H665.544V31.7599H658.056V58.0959H648.136Z" fill="#181C32"/>
<path d="M632.687 58.6079C631.109 58.6079 629.711 58.3839 628.495 57.9359C627.301 57.4666 626.287 56.8159 625.455 55.9839C624.645 55.1306 624.026 54.1066 623.599 52.9119C623.173 51.7172 622.959 50.3839 622.959 48.9119V31.7599H620.143C619.631 31.7599 619.194 31.5999 618.831 31.2799C618.469 30.9386 618.287 30.4479 618.287 29.8079V25.9359L623.567 24.9119L625.519 16.8159C625.775 15.7919 626.501 15.2799 627.695 15.2799H632.879V24.9759H640.943V31.7599H632.879V48.2399C632.879 49.0079 633.061 49.6479 633.423 50.1599C633.807 50.6506 634.351 50.8959 635.055 50.8959C635.418 50.8959 635.717 50.8639 635.951 50.7999C636.207 50.7146 636.421 50.6292 636.591 50.5439C636.783 50.4372 636.954 50.3519 637.103 50.2879C637.274 50.2026 637.466 50.1599 637.679 50.1599C637.978 50.1599 638.213 50.2346 638.383 50.3839C638.575 50.5119 638.767 50.7252 638.959 51.0239L641.967 55.7279C640.687 56.6879 639.247 57.4132 637.647 57.9039C636.047 58.3732 634.394 58.6079 632.687 58.6079Z" fill="#181C32"/>
<path d="M609.451 58.096C608.513 58.096 607.798 57.968 607.307 57.712C606.838 57.456 606.443 56.9226 606.123 56.112L605.419 54.288C604.587 54.992 603.787 55.6106 603.019 56.144C602.251 56.6773 601.451 57.136 600.619 57.52C599.809 57.8826 598.934 58.1493 597.995 58.32C597.078 58.512 596.054 58.608 594.923 58.608C593.409 58.608 592.033 58.416 590.795 58.032C589.558 57.6266 588.502 57.04 587.627 56.272C586.774 55.504 586.113 54.5546 585.643 53.424C585.174 52.272 584.939 50.9493 584.939 49.456C584.939 48.2826 585.238 47.0773 585.835 45.84C586.433 44.6026 587.467 43.4826 588.939 42.48C590.411 41.456 592.395 40.6026 594.891 39.92C597.387 39.2373 600.534 38.8533 604.331 38.768V37.36C604.331 35.4186 603.926 34.0213 603.115 33.168C602.326 32.2933 601.195 31.856 599.723 31.856C598.55 31.856 597.59 31.984 596.843 32.24C596.097 32.496 595.425 32.784 594.827 33.104C594.251 33.424 593.686 33.712 593.131 33.968C592.577 34.224 591.915 34.352 591.147 34.352C590.465 34.352 589.878 34.192 589.387 33.872C588.918 33.5306 588.545 33.1146 588.267 32.624L586.475 29.52C588.481 27.7493 590.699 26.4373 593.131 25.584C595.585 24.7093 598.209 24.272 601.003 24.272C603.009 24.272 604.811 24.6026 606.411 25.264C608.033 25.904 609.398 26.8106 610.507 27.984C611.638 29.136 612.502 30.512 613.099 32.112C613.697 33.712 613.995 35.4613 613.995 37.36V58.096H609.451ZM598.059 52.048C599.339 52.048 600.459 51.824 601.419 51.376C602.379 50.928 603.35 50.2026 604.331 49.2V44.592C602.347 44.6773 600.715 44.848 599.435 45.104C598.155 45.36 597.142 45.68 596.395 46.064C595.649 46.448 595.126 46.8853 594.827 47.376C594.55 47.8666 594.411 48.4 594.411 48.976C594.411 50.1066 594.721 50.9066 595.339 51.376C595.958 51.824 596.865 52.048 598.059 52.048Z" fill="#181C32"/>
<path d="M578.529 10.1919V58.0959H568.609V10.1919H578.529Z" fill="#181C32"/>
<path d="M538.293 42.5119V58.0959H527.477V11.4719H543.925C547.21 11.4719 550.026 11.8666 552.373 12.6559C554.741 13.4239 556.682 14.4906 558.197 15.8559C559.733 17.2213 560.863 18.8319 561.589 20.6879C562.314 22.5439 562.677 24.5493 562.677 26.7039C562.677 29.0293 562.303 31.1626 561.557 33.1039C560.81 35.0453 559.669 36.7093 558.133 38.0959C556.597 39.4826 554.645 40.5706 552.277 41.3599C549.93 42.1279 547.146 42.5119 543.925 42.5119H538.293ZM538.293 34.3519H543.925C546.741 34.3519 548.767 33.6799 550.005 32.3359C551.242 30.9919 551.861 29.1146 551.861 26.7039C551.861 25.6373 551.701 24.6666 551.381 23.7919C551.061 22.9173 550.57 22.1706 549.909 21.5519C549.269 20.9119 548.447 20.4213 547.445 20.0799C546.463 19.7386 545.29 19.5679 543.925 19.5679H538.293V34.3519Z" fill="#181C32"/>
<path d="M494.497 24.3999C496.695 24.3999 498.7 24.7412 500.513 25.4239C502.348 26.1066 503.916 27.0986 505.217 28.3999C506.54 29.7012 507.564 31.3012 508.289 33.1999C509.036 35.0772 509.409 37.2106 509.409 39.5999C509.409 40.3466 509.377 40.9546 509.313 41.4239C509.249 41.8932 509.132 42.2666 508.961 42.5439C508.791 42.8212 508.556 43.0132 508.257 43.1199C507.98 43.2266 507.617 43.2799 507.169 43.2799H488.033C488.353 46.0532 489.196 48.0692 490.561 49.3279C491.927 50.5652 493.687 51.1839 495.841 51.1839C496.993 51.1839 497.985 51.0452 498.817 50.7679C499.649 50.4906 500.385 50.1812 501.025 49.8399C501.687 49.4986 502.284 49.1892 502.817 48.9119C503.372 48.6346 503.948 48.4959 504.545 48.4959C505.335 48.4959 505.932 48.7839 506.337 49.3599L509.217 52.9119C508.193 54.0852 507.084 55.0452 505.889 55.7919C504.716 56.5172 503.5 57.0932 502.241 57.5199C501.004 57.9252 499.756 58.2026 498.497 58.3519C497.26 58.5226 496.076 58.6079 494.945 58.6079C492.62 58.6079 490.433 58.2346 488.385 57.4879C486.359 56.7199 484.577 55.5892 483.041 54.0959C481.527 52.6026 480.321 50.7466 479.425 48.5279C478.551 46.3092 478.113 43.7279 478.113 40.7839C478.113 38.5652 478.487 36.4639 479.233 34.4799C480.001 32.4959 481.089 30.7572 482.497 29.2639C483.927 27.7706 485.644 26.5866 487.649 25.7119C489.676 24.8372 491.959 24.3999 494.497 24.3999ZM494.689 31.2479C492.791 31.2479 491.308 31.7919 490.241 32.8799C489.175 33.9466 488.471 35.4932 488.129 37.5199H500.513C500.513 36.7306 500.407 35.9626 500.193 35.2159C500.001 34.4692 499.671 33.8079 499.201 33.2319C498.753 32.6346 498.156 32.1546 497.409 31.7919C496.663 31.4292 495.756 31.2479 494.689 31.2479Z" fill="#4CAF50"/>
<path d="M453.852 58.096V24.912H459.74C460.23 24.912 460.636 24.9546 460.956 25.04C461.297 25.1253 461.574 25.264 461.788 25.456C462.022 25.6266 462.193 25.8613 462.3 26.16C462.428 26.4586 462.534 26.8213 462.62 27.248L463.164 30.352C464.38 28.4746 465.745 26.992 467.26 25.904C468.774 24.816 470.428 24.272 472.22 24.272C473.734 24.272 474.95 24.6346 475.868 25.36L474.588 32.656C474.502 33.104 474.332 33.424 474.076 33.616C473.82 33.7866 473.478 33.872 473.052 33.872C472.689 33.872 472.262 33.8293 471.772 33.744C471.281 33.6373 470.662 33.584 469.916 33.584C467.313 33.584 465.265 34.9706 463.772 37.744V58.096H453.852Z" fill="#4CAF50"/>
<path d="M442.264 58.096C441.325 58.096 440.61 57.968 440.12 57.712C439.65 57.456 439.256 56.9226 438.936 56.112L438.232 54.288C437.4 54.992 436.6 55.6106 435.832 56.144C435.064 56.6773 434.264 57.136 433.432 57.52C432.621 57.8826 431.746 58.1493 430.808 58.32C429.89 58.512 428.866 58.608 427.736 58.608C426.221 58.608 424.845 58.416 423.608 58.032C422.37 57.6266 421.314 57.04 420.44 56.272C419.586 55.504 418.925 54.5546 418.456 53.424C417.986 52.272 417.752 50.9493 417.752 49.456C417.752 48.2826 418.05 47.0773 418.648 45.84C419.245 44.6026 420.28 43.4826 421.752 42.48C423.224 41.456 425.208 40.6026 427.704 39.92C430.2 39.2373 433.346 38.8533 437.144 38.768V37.36C437.144 35.4186 436.738 34.0213 435.928 33.168C435.138 32.2933 434.008 31.856 432.536 31.856C431.362 31.856 430.402 31.984 429.656 32.24C428.909 32.496 428.237 32.784 427.64 33.104C427.064 33.424 426.498 33.712 425.944 33.968C425.389 34.224 424.728 34.352 423.96 34.352C423.277 34.352 422.69 34.192 422.2 33.872C421.73 33.5306 421.357 33.1146 421.08 32.624L419.288 29.52C421.293 27.7493 423.512 26.4373 425.944 25.584C428.397 24.7093 431.021 24.272 433.816 24.272C435.821 24.272 437.624 24.6026 439.224 25.264C440.845 25.904 442.21 26.8106 443.32 27.984C444.45 29.136 445.314 30.512 445.912 32.112C446.509 33.712 446.808 35.4613 446.808 37.36V58.096H442.264ZM430.872 52.048C432.152 52.048 433.272 51.824 434.232 51.376C435.192 50.928 436.162 50.2026 437.144 49.2V44.592C435.16 44.6773 433.528 44.848 432.248 45.104C430.968 45.36 429.954 45.68 429.208 46.064C428.461 46.448 427.938 46.8853 427.64 47.376C427.362 47.8666 427.224 48.4 427.224 48.976C427.224 50.1066 427.533 50.9066 428.152 51.376C428.77 51.824 429.677 52.048 430.872 52.048Z" fill="#4CAF50"/>
<path d="M408.617 46.032C408.873 46.032 409.129 46.0853 409.385 46.192C409.641 46.2773 409.887 46.4373 410.121 46.672L414.409 51.184C412.532 53.6373 410.175 55.4933 407.337 56.752C404.521 57.9893 401.183 58.608 397.321 58.608C393.78 58.608 390.601 58.0106 387.785 56.816C384.991 55.6 382.612 53.936 380.649 51.824C378.708 49.6906 377.215 47.1733 376.169 44.272C375.124 41.3493 374.601 38.1813 374.601 34.768C374.601 31.2906 375.199 28.1013 376.393 25.2C377.588 22.2773 379.252 19.76 381.385 17.648C383.54 15.536 386.111 13.8933 389.097 12.72C392.084 11.5466 395.38 10.96 398.985 10.96C400.735 10.96 402.377 11.12 403.913 11.44C405.471 11.7386 406.921 12.1653 408.265 12.72C409.609 13.2533 410.847 13.904 411.977 14.672C413.108 15.4186 414.111 16.2506 414.985 17.168L411.337 22.064C411.103 22.3626 410.825 22.64 410.505 22.896C410.185 23.1306 409.737 23.248 409.161 23.248C408.777 23.248 408.415 23.1626 408.073 22.992C407.732 22.8213 407.369 22.6186 406.985 22.384C406.601 22.128 406.175 21.8613 405.705 21.584C405.257 21.2853 404.713 21.0186 404.073 20.784C403.455 20.528 402.719 20.3146 401.865 20.144C401.033 19.9733 400.052 19.888 398.921 19.888C396.959 19.888 395.167 20.24 393.545 20.944C391.924 21.6266 390.527 22.6186 389.353 23.92C388.201 25.2 387.295 26.7573 386.633 28.592C385.993 30.4266 385.673 32.4853 385.673 34.768C385.673 37.1573 385.993 39.28 386.633 41.136C387.295 42.992 388.18 44.56 389.289 45.84C390.42 47.0986 391.732 48.0586 393.225 48.72C394.719 49.3813 396.319 49.712 398.025 49.712C399.007 49.712 399.903 49.6693 400.713 49.584C401.524 49.4773 402.271 49.3066 402.953 49.072C403.657 48.8373 404.319 48.5386 404.937 48.176C405.577 47.792 406.217 47.3226 406.857 46.768C407.113 46.5546 407.391 46.384 407.689 46.256C407.988 46.1066 408.297 46.032 408.617 46.032Z" fill="#4CAF50"/>
<path d="M369.279 24.912V58.096H359.359V24.912H369.279ZM370.431 15.824C370.431 16.6133 370.271 17.36 369.951 18.064C369.631 18.7467 369.194 19.3547 368.639 19.888C368.085 20.4 367.434 20.816 366.687 21.136C365.962 21.4347 365.183 21.584 364.351 21.584C363.541 21.584 362.783 21.4347 362.079 21.136C361.375 20.816 360.746 20.4 360.191 19.888C359.658 19.3547 359.231 18.7467 358.911 18.064C358.613 17.36 358.463 16.6133 358.463 15.824C358.463 15.0133 358.613 14.256 358.911 13.552C359.231 12.848 359.658 12.2293 360.191 11.696C360.746 11.1627 361.375 10.7467 362.079 10.448C362.783 10.1493 363.541 10 364.351 10C365.183 10 365.962 10.1493 366.687 10.448C367.434 10.7467 368.085 11.1627 368.639 11.696C369.194 12.2293 369.631 12.848 369.951 13.552C370.271 14.256 370.431 15.0133 370.431 15.824Z" fill="#4CAF50"/>
<path d="M170.379 17.9827L159.563 56.389H149.327L141.651 28.1387L133.975 56.389H123.745L112.929 17.9827H122.648L128.95 45.4057L136.17 17.9827H147.138L154.324 45.2708L160.655 17.9827H170.379Z" fill="#19286C"/>
<path d="M23.1903 24.8766C20.129 24.9294 17.411 25.5337 15.0419 26.6896C12.6728 27.8454 10.9396 29.5586 9.8535 31.8292V56.3949H0V16.2988H9.11069V24.5656C10.495 21.7846 12.262 19.5962 14.406 18.0003C16.5557 16.4044 18.8122 15.5302 21.187 15.3718C21.6822 15.4246 22.0761 15.4364 22.3744 15.4129C22.6726 15.3894 22.9427 15.4246 23.1903 15.5302V24.8766Z" fill="#19286C"/>
<path d="M44.8278 57.1636C41.7159 57.1636 38.9022 56.6179 36.3812 55.5208C33.8601 54.4236 31.7161 52.9216 29.9378 51.0148C28.1596 49.108 26.7978 46.9254 25.8636 44.4847C24.9239 42.0381 24.4568 39.4155 24.4568 36.6168C24.4568 32.8501 25.284 29.3709 26.9385 26.1909C28.5929 23.0051 30.9395 20.4587 33.9783 18.5519C37.0171 16.6451 40.658 15.6887 44.9066 15.6887C49.1553 15.6887 52.7117 16.6451 55.7224 18.5578C58.733 20.4704 61.0571 22.9816 62.689 26.0912C64.321 29.2008 65.1313 32.592 65.1313 36.2648C65.1313 36.9278 65.1032 37.5497 65.0582 38.1364C65.0075 38.7231 64.9569 39.2219 64.9119 39.6267H34.98C35.1263 41.7389 35.6834 43.5401 36.6457 45.0245C37.6079 46.5089 38.8403 47.6529 40.3484 48.4567C41.8566 49.2605 43.4491 49.6654 45.1261 49.6654C47.1519 49.6654 49.0427 49.1608 50.7928 48.1575C52.5486 47.1542 53.7416 45.7989 54.3887 44.1033L62.8354 46.5734C61.9462 48.6328 60.6351 50.4633 58.9075 52.0592C57.1799 53.655 55.1315 54.9047 52.7568 55.8083C50.3877 56.706 47.7428 57.1577 44.8278 57.1577V57.1636ZM34.6761 33.1376H54.9796C54.7826 31.1252 54.2255 29.3768 53.3139 27.8924C52.3966 26.408 51.2036 25.2522 49.718 24.419C48.2324 23.5859 46.5779 23.1752 44.7547 23.1752C42.9314 23.1752 41.3558 23.5918 39.9039 24.419C38.4464 25.2522 37.259 26.408 36.3474 27.8924C35.4301 29.3768 34.8787 31.1252 34.6817 33.1376H34.6761Z" fill="#19286C"/>
<path d="M66.9766 36.3822C66.9766 32.5627 67.7194 29.0717 69.1994 25.9152C70.6794 22.7587 72.7278 20.2651 75.3501 18.4287C77.9668 16.5982 80.955 15.677 84.3145 15.677C87.1282 15.677 89.6999 16.4104 92.0183 17.8772C94.3368 19.344 96.1151 21.2097 97.3531 23.4803V0H107.353V44.8015C107.353 45.8811 107.527 46.6556 107.871 47.1191C108.214 47.5826 108.81 47.8642 109.649 47.9698V56.3892C107.871 56.7471 106.464 56.9055 105.423 56.8527C103.644 56.9055 102.176 56.4654 101.016 55.5384C99.8572 54.6114 99.1989 53.4028 99.0525 51.9067L98.9062 49.3603C97.4712 51.8832 95.5354 53.8135 93.0875 55.1512C90.6453 56.4889 88.0848 57.1578 85.4175 57.1578C82.7501 57.1578 80.2909 56.6356 78.0456 55.5912C75.8003 54.5469 73.8476 53.0684 72.1932 51.1615C70.5387 49.2547 69.2557 47.0369 68.3384 44.5141C67.4212 41.9912 66.9654 39.2806 66.9654 36.3763L66.9766 36.3822ZM97.4262 41.6098V32.2165C96.931 30.7497 96.1432 29.4355 95.0571 28.2738C93.971 27.1121 92.7612 26.191 91.4275 25.5104C90.0938 24.8298 88.7601 24.4895 87.4264 24.4895C85.8958 24.4895 84.5115 24.818 83.2791 25.4752C82.0467 26.1323 80.9718 27.0182 80.0546 28.1271C79.1373 29.2419 78.4508 30.515 77.9781 31.9525C77.5054 33.3899 77.2747 34.9213 77.2747 36.5347C77.2747 38.1482 77.5448 39.7558 78.0906 41.1933C78.6309 42.6307 79.3737 43.898 80.3134 44.9834C81.2532 46.0689 82.3899 46.902 83.7236 47.4828C85.0573 48.0637 86.4923 48.357 88.0229 48.357C89.0133 48.357 89.9756 48.1928 90.9154 47.8642C91.8551 47.5356 92.7555 47.0663 93.6221 46.462C94.4831 45.8576 95.2653 45.1477 95.9575 44.338C96.6497 43.5284 97.1449 42.619 97.4375 41.6098H97.4262Z" fill="#19286C"/>
<path d="M243.901 36.3822C243.901 32.5627 244.643 29.0717 246.123 25.9152C247.603 22.7587 249.652 20.2651 252.274 18.4287C254.891 16.5982 257.879 15.677 261.239 15.677C264.052 15.677 266.624 16.4104 268.942 17.8772C271.261 19.344 273.039 21.2097 274.277 23.4803V0H284.277V44.8015C284.277 45.8811 284.451 46.6556 284.795 47.1191C285.138 47.5826 285.734 47.8642 286.573 47.9698V56.3892C284.795 56.7471 283.388 56.9055 282.347 56.8527C280.568 56.9055 279.1 56.4654 277.941 55.5384C276.781 54.6114 276.123 53.4028 275.977 51.9067L275.83 49.3603C274.395 51.8832 272.459 53.8135 270.012 55.1512C267.569 56.4889 265.009 57.1578 262.341 57.1578C259.674 57.1578 257.215 56.6356 254.97 55.5912C252.724 54.5469 250.772 53.0684 249.117 51.1615C247.463 49.2547 246.18 47.0369 245.262 44.5141C244.345 41.9912 243.889 39.2806 243.889 36.3763L243.901 36.3822ZM274.35 41.6098V32.2165C273.855 30.7497 273.067 29.4355 271.981 28.2738C270.895 27.1121 269.685 26.191 268.351 25.5104C267.018 24.8298 265.684 24.4895 264.35 24.4895C262.82 24.4895 261.435 24.818 260.203 25.4752C258.971 26.1323 257.896 27.0182 256.979 28.1271C256.061 29.2419 255.375 30.515 254.902 31.9525C254.429 33.3899 254.199 34.9213 254.199 36.5347C254.199 38.1482 254.469 39.7558 255.015 41.1933C255.555 42.6307 256.298 43.898 257.237 44.9834C258.177 46.0689 259.314 46.902 260.648 47.4828C261.981 48.0637 263.416 48.357 264.947 48.357C265.937 48.357 266.9 48.1928 267.839 47.8642C268.779 47.5356 269.68 47.0663 270.546 46.462C271.407 45.8576 272.189 45.1477 272.882 44.338C273.574 43.5284 274.069 42.619 274.361 41.6098H274.35Z" fill="#19286C"/>
<path d="M306.578 57.1636C303.269 57.1636 300.096 56.5945 297.057 55.4621C294.018 54.3298 291.435 52.6576 289.314 50.4398L292.943 43.722C295.217 45.6816 297.462 47.119 299.685 48.046C301.908 48.9731 304.08 49.4366 306.207 49.4366C308.132 49.4366 309.679 49.0904 310.838 48.3922C311.997 47.6999 312.577 46.6555 312.577 45.265C312.577 44.25 312.256 43.4755 311.615 42.9416C310.973 42.4077 310.045 41.9501 308.835 41.5687C307.625 41.1874 306.156 40.7415 304.429 40.2369C301.564 39.3216 299.178 38.3946 297.282 37.4558C295.38 36.5171 293.934 35.3437 292.949 33.9473C291.958 32.5509 291.469 30.7556 291.469 28.573C291.469 25.9269 292.122 23.6563 293.433 21.7495C294.738 19.8427 296.567 18.3583 298.914 17.2905C301.261 16.2226 304.012 15.6887 307.175 15.6887C309.938 15.6887 312.56 16.1405 315.031 17.0382C317.501 17.9417 319.746 19.3968 321.772 21.4033L317.698 28.0449C315.773 26.3963 313.916 25.1994 312.144 24.4542C310.366 23.7091 308.559 23.3336 306.736 23.3336C305.7 23.3336 304.721 23.4627 303.81 23.715C302.892 23.9673 302.155 24.3897 301.587 24.9706C301.019 25.5514 300.737 26.3787 300.737 27.4406C300.737 28.3559 300.996 29.0893 301.514 29.6467C302.031 30.204 302.819 30.6852 303.883 31.09C304.946 31.4948 306.241 31.9525 307.771 32.457C310.883 33.3664 313.5 34.2934 315.627 35.2322C317.749 36.1709 319.369 37.3502 320.478 38.7701C321.587 40.1899 322.144 42.1144 322.144 44.5492C322.144 48.5037 320.737 51.5957 317.917 53.8252C315.104 56.0547 311.322 57.1695 306.584 57.1695L306.578 57.1636Z" fill="#19286C"/>
<path d="M328.593 7.13437H327.023V11.3411H326.449V7.13437H324.879V6.60046H328.593V7.13437Z" fill="#19286C"/>
<path d="M333.173 11.3411V7.72109L331.677 10.5021H331.322L329.82 7.72109V11.3411H329.246V6.60046H329.853L331.497 9.67485L333.151 6.60046H333.753V11.3411H333.179H333.173Z" fill="#19286C"/>
<path d="M329.313 16.4516C325.357 16.4516 322.138 13.0956 322.138 8.97097C322.138 4.84637 325.357 1.49036 329.313 1.49036C333.269 1.49036 336.488 4.84637 336.488 8.97097C336.488 13.0956 333.269 16.4516 329.313 16.4516ZM329.313 2.17095C325.717 2.17095 322.791 5.22186 322.791 8.97097C322.791 12.7201 325.717 15.771 329.313 15.771C332.909 15.771 335.835 12.7201 335.835 8.97097C335.835 5.22186 332.909 2.17095 329.313 2.17095Z" fill="#19286C"/>
<path d="M240.193 36.3997V40.6827L240.147 40.8822C240.102 41.0465 240.052 41.2108 240.001 41.375C239.911 41.6508 239.832 41.9031 239.81 42.1084C239.382 45.0185 238.279 47.7878 236.512 50.3577C234.554 53.215 232.061 55.421 229.101 56.9171C226.929 58.0202 224.633 58.6714 222.101 58.912C218.139 59.2933 214.369 58.4309 210.891 56.3539C210.013 55.8317 209.22 55.1981 208.454 54.5879C208.314 54.4823 208.184 54.3708 208.043 54.2652C208.314 53.8545 208.572 53.4555 208.82 53.0741C209.124 52.6224 209.394 52.1823 209.653 51.7658C209.653 51.7658 209.653 51.754 209.67 51.7423C209.833 51.5194 211.167 49.7123 211.594 48.3628C211.842 47.8876 212.067 47.4475 212.258 47.0368C212.506 46.5205 212.714 46.0512 212.883 45.6463C214.706 47.6353 216.794 48.7677 219.264 49.0903C222.016 49.4482 224.526 48.6679 226.963 46.6848C228.87 45.13 230.058 43.1059 230.513 40.6593C231.116 37.3619 230.468 34.4225 228.606 31.9113C227.013 29.764 224.937 28.4263 222.427 27.9451C219.422 27.3702 216.732 27.9804 214.442 29.7522C212.303 31.4126 210.942 33.6128 210.401 36.3C210.249 37.0451 210.216 37.8489 210.182 38.6996L210.159 39.1279C209.94 43.6984 208.646 47.5238 206.198 50.8212C204.087 53.655 201.437 55.8258 198.331 57.2633C196.203 58.2431 194.189 58.7653 192.186 58.8709C191.927 58.8826 191.668 58.9061 191.409 58.9296C190.936 58.9648 190.441 59 189.929 59H189.788C187.509 58.9589 185.225 58.4308 182.788 57.3748C180.104 56.2131 177.734 54.4295 175.742 52.0709C173.503 49.4189 171.983 46.2917 171.241 42.7832C170.807 40.8001 170.683 38.6996 170.869 36.5464C171.184 32.7797 172.45 29.3063 174.651 26.2261C176.688 23.3746 179.231 21.2155 182.22 19.8015C184.285 18.8276 186.029 18.3054 187.734 18.1646L187.948 18.1529C189.423 18.0238 190.942 17.9006 192.489 18.0473C195.911 18.3876 199.04 19.6021 201.797 21.6497C202.275 22.0017 202.726 22.3831 203.176 22.7527C203.176 22.7527 203.176 22.7527 203.165 22.7645C203.007 22.8935 200.756 24.8766 199.034 29.6056L198.815 30.0456C198.623 30.6499 198.477 31.2014 198.364 31.6884C196.822 29.7229 194.943 28.5319 192.636 28.0449C189.951 27.4875 187.605 27.8395 185.438 29.1244C182.777 30.7144 181.145 33.0437 180.458 36.253C179.794 39.3685 180.441 42.3138 182.371 45.0068C183.863 47.0897 185.928 48.4274 188.522 48.9789C191.595 49.6301 194.352 48.885 196.969 46.7083C198.955 45.0479 200.148 42.9944 200.508 40.5889C200.627 39.7851 200.711 38.905 200.75 37.9017C200.942 33.6128 202.213 29.7405 204.538 26.3904C206.518 23.5331 209.062 21.3387 212.078 19.8661C213.952 18.9508 215.905 18.37 217.874 18.1411C223.068 17.531 227.762 18.722 231.819 21.679C234.216 23.4274 236.191 25.7039 237.683 28.438C238.538 29.9987 239.191 31.7999 239.748 34.1115C239.877 34.622 239.967 35.1265 240.069 35.6135C240.108 35.8306 240.147 36.0418 240.181 36.253L240.209 36.3997H240.193Z" fill="#4CAF50"/>
</svg>
