<svg xmlns="http://www.w3.org/2000/svg" width="30" height="30" viewBox="0 0 30 30"><rect width="30" height="30" rx="4" fill="#0b86ca"/><path d="M8.005,12.257h3.074v10.2H8.005ZM9.573,7.19A1.834,1.834,0,1,1,7.79,9.034a1.86,1.86,0,0,1,.519-1.3A1.759,1.759,0,0,1,9.573,7.19" transform="translate(0.32 0.178)" fill="#fff"/><path d="M12.92,12.006h2.961v1.353a3.238,3.238,0,0,1,2.92-1.6c3.074,0,3.7,2.049,3.7,4.724v5.441H19.427v-4.8c0-1.148,0-2.634-1.6-2.634s-1.845,1.25-1.845,2.541v4.908H12.91Z" transform="translate(0.595 0.549)" fill="#fff"/></svg>