<svg width="419" height="69" viewBox="0 0 419 69" fill="none" xmlns="http://www.w3.org/2000/svg">
<path d="M212.159 21.0307L198.691 65.9466H185.945L176.387 32.9081L166.829 65.9466H154.09L140.622 21.0307H152.724L160.572 53.1017L169.562 21.0307H183.219L192.168 52.9439L200.051 21.0307H212.159Z" fill="white"/>
<path d="M28.877 29.0931C25.065 29.1549 21.6805 29.8616 18.7304 31.2133C15.7804 32.5651 13.6221 34.5687 12.2697 37.2241V65.9535H0V19.0615H11.3448V28.7295C13.0686 25.4771 15.2689 22.9177 17.9386 21.0513C20.6154 19.185 23.4253 18.1626 26.3824 17.9774C26.999 18.0391 27.4895 18.0528 27.8609 18.0254C28.2323 17.9979 28.5687 18.0391 28.877 18.1626V29.0931Z" fill="white"/>
<path d="M55.82 66.8524C51.9449 66.8524 48.4413 66.2142 45.302 64.9311C42.1628 63.648 39.493 61.8914 37.2787 59.6614C35.0644 57.4314 33.3686 54.8789 32.2054 52.0245C31.0352 49.1632 30.4536 46.0961 30.4536 42.8231C30.4536 38.418 31.4837 34.349 33.5438 30.6301C35.604 26.9042 38.526 23.9263 42.3099 21.6963C46.0939 19.4663 50.6276 18.3478 55.9181 18.3478C61.2085 18.3478 65.6371 19.4663 69.386 21.7032C73.1349 23.94 76.0289 26.8768 78.061 30.5134C80.0931 34.1501 81.1022 38.1161 81.1022 42.4114C81.1022 43.1868 81.0672 43.9141 81.0111 44.6002C80.948 45.2864 80.885 45.8696 80.8289 46.3431H43.5572C43.7394 48.8133 44.4331 50.9198 45.6314 52.6557C46.8296 54.3917 48.3642 55.7297 50.2422 56.6698C52.1201 57.6098 54.1032 58.0833 56.1913 58.0833C58.714 58.0833 61.0684 57.4932 63.2477 56.3198C65.4339 55.1465 66.9195 53.5615 67.7253 51.5785L78.2432 54.4672C77.1361 56.8756 75.5034 59.0164 73.3521 60.8828C71.2009 62.7491 68.6503 64.2106 65.6932 65.2673C62.7431 66.3172 59.4497 66.8455 55.82 66.8455V66.8524ZM43.1788 38.7542H68.4611C68.2158 36.4007 67.5221 34.3559 66.3869 32.6199C65.2447 30.8839 63.7592 29.5322 61.9093 28.5579C60.0593 27.5835 57.9992 27.1032 55.7289 27.1032C53.4585 27.1032 51.4965 27.5904 49.6886 28.5579C47.8737 29.5322 46.3952 30.8839 45.26 32.6199C44.1178 34.3559 43.4311 36.4007 43.1858 38.7542H43.1788Z" fill="white"/>
<path d="M83.4006 42.5487C83.4006 38.0818 84.3255 33.9991 86.1685 30.3076C88.0114 26.6161 90.562 23.6999 93.8274 21.5522C97.0858 19.4114 100.807 18.3341 104.99 18.3341C108.494 18.3341 111.696 19.1918 114.583 20.9072C117.47 22.6226 119.684 24.8046 121.226 27.46V0H133.678V52.395C133.678 53.6576 133.895 54.5633 134.322 55.1054C134.75 55.6474 135.493 55.9768 136.537 56.1003V65.9467C134.322 66.3652 132.571 66.5505 131.274 66.4887C129.06 66.5505 127.231 66.0359 125.788 64.9517C124.344 63.8676 123.524 62.4541 123.342 60.7044L123.16 57.7265C121.373 60.677 118.963 62.9344 115.914 64.4989C112.873 66.0633 109.685 66.8455 106.363 66.8455C103.042 66.8455 99.9798 66.2348 97.1839 65.0135C94.388 63.7921 91.9565 62.063 89.8963 59.833C87.8362 57.603 86.2385 55.0093 85.0963 52.0588C83.9542 49.1083 83.3866 45.9383 83.3866 42.5418L83.4006 42.5487ZM121.317 48.6623V37.6769C120.7 35.9615 119.719 34.4246 118.367 33.066C117.014 31.7074 115.508 30.6301 113.847 29.8342C112.186 29.0382 110.526 28.6402 108.865 28.6402C106.959 28.6402 105.235 29.0245 103.701 29.793C102.166 30.5615 100.828 31.5976 99.6855 32.8944C98.5433 34.1981 97.6884 35.6871 97.0998 37.3682C96.5112 39.0493 96.2239 40.8401 96.2239 42.7271C96.2239 44.614 96.5602 46.4941 97.24 48.1752C97.9127 49.8562 98.8376 51.3383 100.008 52.6077C101.178 53.8771 102.594 54.8515 104.254 55.5308C105.915 56.2101 107.702 56.5532 109.608 56.5532C110.841 56.5532 112.039 56.361 113.21 55.9768C114.38 55.5925 115.501 55.0436 116.58 54.3369C117.652 53.6301 118.626 52.7999 119.488 51.853C120.35 50.9061 120.967 49.8425 121.331 48.6623H121.317Z" fill="white"/>
<path d="M303.709 42.5487C303.709 38.0818 304.634 33.9991 306.477 30.3076C308.32 26.6161 310.871 23.6999 314.136 21.5522C317.395 19.4114 321.115 18.3341 325.299 18.3341C328.802 18.3341 332.005 19.1918 334.892 20.9072C337.779 22.6226 339.993 24.8046 341.535 27.46V0H353.987V52.395C353.987 53.6576 354.204 54.5633 354.631 55.1054C355.059 55.6474 355.801 55.9768 356.845 56.1003V65.9467C354.631 66.3652 352.879 66.5505 351.583 66.4887C349.369 66.5505 347.54 66.0359 346.096 64.9517C344.653 63.8676 343.833 62.4541 343.651 60.7044L343.469 57.7265C341.682 60.677 339.271 62.9344 336.223 64.4989C333.182 66.0633 329.994 66.8455 326.672 66.8455C323.351 66.8455 320.289 66.2348 317.493 65.0135C314.697 63.7921 312.265 62.063 310.205 59.833C308.145 57.603 306.547 55.0093 305.405 52.0588C304.263 49.1083 303.695 45.9383 303.695 42.5418L303.709 42.5487ZM341.626 48.6623V37.6769C341.009 35.9615 340.028 34.4246 338.676 33.066C337.323 31.7074 335.817 30.6301 334.156 29.8342C332.495 29.0382 330.834 28.6402 329.174 28.6402C327.268 28.6402 325.544 29.0245 324.009 29.793C322.475 30.5615 321.136 31.5976 319.994 32.8944C318.852 34.1981 317.997 35.6871 317.409 37.3682C316.82 39.0493 316.533 40.8401 316.533 42.7271C316.533 44.614 316.869 46.4941 317.549 48.1752C318.221 49.8562 319.146 51.3383 320.317 52.6077C321.487 53.8771 322.902 54.8515 324.563 55.5308C326.224 56.2101 328.011 56.5532 329.917 56.5532C331.15 56.5532 332.348 56.361 333.518 55.9768C334.688 55.5925 335.81 55.0436 336.889 54.3369C337.961 53.6301 338.935 52.7999 339.797 51.853C340.659 50.9061 341.275 49.8425 341.64 48.6623H341.626Z" fill="white"/>
<path d="M381.756 66.8524C377.636 66.8524 373.684 66.1868 369.9 64.8625C366.116 63.5382 362.9 61.5827 360.258 58.989L364.778 51.1325C367.609 53.4242 370.405 55.1053 373.172 56.1895C375.94 57.2736 378.645 57.8157 381.294 57.8157C383.69 57.8157 385.617 57.4108 387.061 56.5943C388.504 55.7846 389.226 54.5633 389.226 52.9371C389.226 51.75 388.827 50.8443 388.028 50.2199C387.229 49.5955 386.073 49.0603 384.566 48.6143C383.06 48.1683 381.231 47.6468 379.08 47.0567C375.513 45.9863 372.542 44.9022 370.18 43.8043C367.812 42.7064 366.011 41.3341 364.785 39.7011C363.551 38.068 362.942 35.9684 362.942 33.4159C362.942 30.3213 363.755 27.6659 365.387 25.4359C367.013 23.2058 369.29 21.4699 372.212 20.2211C375.134 18.9722 378.561 18.3478 382.499 18.3478C385.94 18.3478 389.205 18.8762 392.281 19.926C395.357 20.9827 398.153 22.6844 400.676 25.031L395.603 32.7983C393.206 30.8702 390.894 29.4705 388.687 28.599C386.472 27.7276 384.223 27.2885 381.953 27.2885C380.663 27.2885 379.444 27.4394 378.309 27.7345C377.167 28.0295 376.249 28.5236 375.541 29.2029C374.833 29.8822 374.483 30.8496 374.483 32.0916C374.483 33.162 374.805 34.0197 375.45 34.6715C376.094 35.3234 377.075 35.886 378.4 36.3595C379.724 36.8329 381.336 37.3681 383.242 37.9582C387.117 39.0218 390.375 40.1059 393.024 41.2038C395.666 42.3016 397.684 43.6808 399.064 45.3413C400.445 47.0018 401.138 49.2524 401.138 52.1C401.138 56.7247 399.387 60.3407 395.876 62.9481C392.372 65.5555 387.663 66.8592 381.763 66.8592L381.756 66.8524Z" fill="white"/>
<path d="M409.169 8.34364H407.214V13.2634H406.499V8.34364H404.544V7.71924H409.169V8.34364Z" fill="white"/>
<path d="M414.873 13.2635V9.02986L413.009 12.2823H412.567L410.696 9.02986V13.2635H409.982V7.7193H410.738L412.785 11.3148L414.845 7.7193H415.594V13.2635H414.88H414.873Z" fill="white"/>
<path d="M410.066 19.2399C405.14 19.2399 401.131 15.3151 401.131 10.4914C401.131 5.66768 405.14 1.74286 410.066 1.74286C414.992 1.74286 419 5.66768 419 10.4914C419 15.3151 414.992 19.2399 410.066 19.2399ZM410.066 2.5388C405.588 2.5388 401.944 6.10682 401.944 10.4914C401.944 14.8759 405.588 18.4439 410.066 18.4439C414.543 18.4439 418.187 14.8759 418.187 10.4914C418.187 6.10682 414.543 2.5388 410.066 2.5388Z" fill="white"/>
<path d="M299.092 42.5692V47.5782L299.035 47.8115C298.979 48.0036 298.916 48.1957 298.853 48.3879C298.741 48.7104 298.643 49.0054 298.615 49.2456C298.082 52.6489 296.709 55.8876 294.509 58.8929C292.07 62.2345 288.966 64.8145 285.28 66.5642C282.575 67.8542 279.716 68.6158 276.563 68.8971C271.63 69.3431 266.935 68.3345 262.605 65.9055C261.512 65.2948 260.523 64.5537 259.57 63.8401C259.395 63.7166 259.234 63.5863 259.059 63.4628C259.395 62.9824 259.718 62.5159 260.026 62.0699C260.404 61.5415 260.741 61.0269 261.063 60.5397C261.063 60.5397 261.063 60.526 261.084 60.5123C261.287 60.2515 262.948 58.1382 263.481 56.56C263.789 56.0042 264.069 55.4896 264.307 55.0093C264.616 54.4055 264.875 53.8565 265.085 53.3831C267.356 55.7092 269.955 57.0335 273.031 57.4108C276.458 57.8294 279.583 56.9168 282.617 54.5976C284.993 52.7793 286.471 50.412 287.039 47.5508C287.789 43.6945 286.983 40.2569 284.664 37.3201C282.68 34.8088 280.095 33.2444 276.97 32.6817C273.228 32.0093 269.878 32.7229 267.026 34.7951C264.363 36.7369 262.668 39.31 261.995 42.4526C261.806 43.324 261.764 44.2641 261.722 45.259L261.694 45.7599C261.42 51.1051 259.809 55.5788 256.761 59.435C254.133 62.7492 250.832 65.2879 246.964 66.969C244.316 68.1149 241.807 68.7256 239.312 68.8491C238.99 68.8628 238.668 68.8903 238.345 68.9177C237.757 68.9589 237.14 69 236.503 69H236.327C233.489 68.952 230.644 68.3345 227.61 67.0994C224.268 65.7408 221.318 63.6549 218.837 60.8965C216.048 57.7951 214.156 54.1379 213.231 50.0346C212.692 47.7154 212.538 45.259 212.769 42.7408C213.161 38.3356 214.738 34.2736 217.478 30.6713C220.014 27.3365 223.182 24.8115 226.903 23.1578C229.474 22.0188 231.646 21.4081 233.77 21.2435L234.036 21.2297C235.872 21.0788 237.764 20.9347 239.691 21.1062C243.951 21.5042 247.847 22.9245 251.281 25.3192C251.877 25.7309 252.437 26.1769 252.998 26.6092C252.998 26.6092 252.998 26.6092 252.984 26.6229C252.787 26.7739 249.985 29.0931 247.84 34.6235L247.567 35.1382C247.329 35.8449 247.147 36.4899 247.006 37.0594C245.086 34.7608 242.746 33.3679 239.873 32.7984C236.531 32.1465 233.609 32.5582 230.911 34.0609C227.596 35.9204 225.564 38.6444 224.709 42.3977C223.882 46.0412 224.688 49.4857 227.092 52.6352C228.949 55.071 231.52 56.6355 234.751 57.2805C238.577 58.0421 242.01 57.1707 245.269 54.625C247.742 52.6832 249.228 50.2817 249.676 47.4684C249.823 46.5284 249.928 45.4991 249.978 44.3258C250.216 39.31 251.799 34.7813 254.693 30.8634C257.16 27.5218 260.327 24.9556 264.083 23.2333C266.417 22.1629 268.848 21.4836 271.301 21.216C277.768 20.5024 283.612 21.8953 288.665 25.3535C291.65 27.3983 294.109 30.0606 295.966 33.2581C297.031 35.0833 297.844 37.1898 298.538 39.8932C298.699 40.4902 298.811 41.0803 298.937 41.6498C298.986 41.9037 299.035 42.1507 299.078 42.3977L299.113 42.5692H299.092Z" fill="#4CAF50"/>
</svg>
