<svg xmlns="http://www.w3.org/2000/svg" width="30" height="30" viewBox="0 0 30 30"><g transform="translate(0.221 0.076)"><rect width="30" height="30" rx="4" transform="translate(-0.221 -0.076)" fill="#0a93e2"/><path d="M22.369,4.012a8.56,8.56,0,0,1-2.459.673,4.267,4.267,0,0,0,1.879-2.37,8.613,8.613,0,0,1-2.714,1.039,4.289,4.289,0,0,0-7.3,3.9A12.162,12.162,0,0,1,2.946,2.785,4.28,4.28,0,0,0,4.272,8.506,4.259,4.259,0,0,1,2.33,7.968V8.02a4.285,4.285,0,0,0,3.435,4.2,4.265,4.265,0,0,1-1.931.073,4.291,4.291,0,0,0,4,2.975A8.592,8.592,0,0,1,1.49,17.045a12.105,12.105,0,0,0,6.566,1.921A12.1,12.1,0,0,0,20.245,6.778c0-.183,0-.365-.01-.553a8.715,8.715,0,0,0,2.14-2.213Z" transform="translate(3.185 5.213)" fill="#fff" fill-rule="evenodd"/></g></svg>