<svg xmlns="http://www.w3.org/2000/svg" width="66" height="66" viewBox="0 0 66 66">
  <g id="Network_Partners" data-name="Network Partners" transform="translate(176 -369)">
    <rect id="Rectangle_13" data-name="Rectangle 13" width="66" height="66" rx="14" transform="translate(-176 369)" fill="#d7edf3"/>
    <path id="network-wired-svgrepo-com" d="M3,18.8H34.594M18.8,11.776V18.8m-9.654,0v7.021M28.45,18.8v7.021M15.462,11.776h6.67a4.36,4.36,0,0,0,1.85-.191,1.755,1.755,0,0,0,.767-.767,4.36,4.36,0,0,0,.191-1.85V5.808a4.36,4.36,0,0,0-.191-1.85,1.755,1.755,0,0,0-.767-.767A4.361,4.361,0,0,0,22.132,3h-6.67a4.361,4.361,0,0,0-1.85.191,1.755,1.755,0,0,0-.767.767,4.361,4.361,0,0,0-.191,1.85V8.968a4.361,4.361,0,0,0,.191,1.85,1.755,1.755,0,0,0,.767.767A4.361,4.361,0,0,0,15.462,11.776Zm9.654,22.818h6.67a4.36,4.36,0,0,0,1.85-.191,1.755,1.755,0,0,0,.767-.767,4.36,4.36,0,0,0,.191-1.85V28.626a4.36,4.36,0,0,0-.191-1.85,1.755,1.755,0,0,0-.767-.767,4.36,4.36,0,0,0-1.85-.191h-6.67a4.36,4.36,0,0,0-1.85.191,1.755,1.755,0,0,0-.767.767,4.36,4.36,0,0,0-.191,1.85v3.159a4.36,4.36,0,0,0,.191,1.85,1.755,1.755,0,0,0,.767.767A4.36,4.36,0,0,0,25.116,34.594Zm-19.307,0h6.67a4.36,4.36,0,0,0,1.85-.191,1.755,1.755,0,0,0,.767-.767,4.361,4.361,0,0,0,.191-1.85V28.626a4.361,4.361,0,0,0-.191-1.85,1.755,1.755,0,0,0-.767-.767,4.36,4.36,0,0,0-1.85-.191H5.808a4.36,4.36,0,0,0-1.85.191,1.755,1.755,0,0,0-.767.767A4.361,4.361,0,0,0,3,28.626v3.159a4.361,4.361,0,0,0,.191,1.85,1.755,1.755,0,0,0,.767.767A4.36,4.36,0,0,0,5.808,34.594Z" transform="translate(-161.797 383.203)" fill="none" stroke="#4fc497" stroke-linecap="round" stroke-linejoin="round" stroke-width="3"/>
  </g>
</svg>
