<svg xmlns="http://www.w3.org/2000/svg" width="66" height="66" viewBox="0 0 66 66">
  <g id="Referral_Program" data-name="Referral Program" transform="translate(176 -669)">
    <rect id="Rectangle_16" data-name="Rectangle 16" width="66" height="66" rx="14" transform="translate(-176 669)" fill="#d7edf3"/>
    <g id="Group_12" data-name="Group 12" transform="translate(-299 -125.22)">
      <path id="Path_23" data-name="Path 23" d="M.021,16.12a8.54,8.54,0,0,1,.241-1.032,7.542,7.542,0,0,1,3.82-4.751c.077-.1-.709-.793-.824-.93a5.757,5.757,0,1,1,8.637.313c-.109.12-.657.519-.586.618a7.92,7.92,0,0,1,4.13,7.848H.021c.049-.663-.066-1.413,0-2.065M7.164,2.166c-4.463.538-3.921,7.721,1,7.2,4.576-.484,4.012-7.8-1-7.2m6,13.885a5.566,5.566,0,0,0-10.944,0Z" transform="translate(138 811.22)" fill="#57bc88"/>
      <path id="Path_24" data-name="Path 24" d="M.229,220.212H2.294v5.92H9.8l-1.238-1.273,1.479-1.479,3.819,3.819-3.819,3.819-1.479-1.479L9.8,228.266H.229Z" transform="translate(137.792 611.258)" fill="#57bc88"/>
      <path id="Path_25" data-name="Path 25" d="M182.642,115.252H162.336a10.284,10.284,0,0,1,6.057-10.326l-.724-.548c-6.71-5.878.414-16.281,8.205-12.4a7.516,7.516,0,0,1,.781,12.918,10.339,10.339,0,0,1,5.759,7.042,13.048,13.048,0,0,1,.228,3.317M172.1,93.315a5.367,5.367,0,1,0,4.523,8.791,5.387,5.387,0,0,0-4.523-8.791m8.343,19.8a7.953,7.953,0,0,0-5.592-6.626,8.054,8.054,0,0,0-10.309,6.626Z" transform="translate(-9.379 728.47)" fill="#57bc88" stroke="#57bc88" stroke-width="1"/>
    </g>
  </g>
</svg>
