<svg xmlns="http://www.w3.org/2000/svg" xmlns:xlink="http://www.w3.org/1999/xlink" width="66" height="66" viewBox="0 0 66 66">
  <defs>
    <clipPath id="clip-path">
      <rect id="Rectangle_9" data-name="Rectangle 9" width="46.49" height="19.026" fill="none"/>
    </clipPath>
  </defs>
  <g id="Reseller_and_Consulting_Partners" data-name="Reseller and Consulting Partners" transform="translate(154 -616)">
    <rect id="Rectangle_14" data-name="Rectangle 14" width="66" height="66" rx="14" transform="translate(-154 616)" fill="#d7edf3"/>
    <g id="Group_9" data-name="Group 9" transform="translate(-144.64 657.484) rotate(-42)">
      <g id="Group_6" data-name="Group 6" transform="translate(0 0)" clip-path="url(#clip-path)">
        <path id="Path_13" data-name="Path 13" d="M111.46,3.642h16.027a6.9,6.9,0,0,1,5.654,11.135c-2.076,2.614-5.36,2.644-8.443,2.587l-.083-3.411c.651-.021,1.309.028,1.96,0,2.765-.1,4.889-.823,4.535-4.121-.175-1.631-2-2.785-3.539-2.785H111.46v3.285c0,.152-.564.421-.707.124L105.877,5.6a.585.585,0,0,1-.042-.55,9.607,9.607,0,0,1,1.294-1.285c.77-.779,1.54-1.557,2.332-2.328.286-.278,1.244-1.471,1.611-1.438a.857.857,0,0,1,.387.273Z" transform="translate(-88.146 0)" fill="#58bc88"/>
        <path id="Path_14" data-name="Path 14" d="M15.737,21.529v3.41h-9.2a5.432,5.432,0,0,0-2.124.872,3.637,3.637,0,0,0,.173,5.068c1.233.932,2.965.92,4.446.965,4.7.144,9.419-.115,14.116,0v3.41c-4.7-.083-9.416.11-14.117,0-3.36-.075-7.12-.653-8.487-4.248-2-5.257,1.772-9.768,7.176-9.533Z" transform="translate(0 -17.887)" fill="#58bc88"/>
        <path id="Path_15" data-name="Path 15" d="M162.01,73.755c3.988-.387,5.082,5.517,1.239,6.559-4.774,1.295-6.027-6.1-1.239-6.559" transform="translate(-132.471 -61.44)" fill="#2c6749"/>
      </g>
    </g>
  </g>
</svg>
