<svg xmlns="http://www.w3.org/2000/svg" width="66" height="66" viewBox="0 0 66 66">
  <g id="Technology_integration_Partners" data-name="Technology integration Partners" transform="translate(176 -235)">
    <rect id="Rectangle_12" data-name="Rectangle 12" width="66" height="66" rx="14" transform="translate(-176 235)" fill="#d7edf3"/>
    <path id="Path_22" data-name="Path 22" d="M82.49,66.276a3.794,3.794,0,1,1-3.38,5.518h-.628c-3.718.041-5.029,1.173-7.112,5.063l-.117.228-.138.262a13.959,13.959,0,0,1-3.215,4.5,10.317,10.317,0,0,1-7.139,2.366h-.414a3.794,3.794,0,1,1,0-3.449h.628c3.787-.041,5.077-1.214,7.229-5.291l.145-.228a18.764,18.764,0,0,1,2.145-3.449H60.347a3.794,3.794,0,1,1,0-3.449H79.109a3.815,3.815,0,0,1,3.229-2.069Zm0-13.107a3.794,3.794,0,1,1-3.38,5.519H60.347a3.794,3.794,0,1,1,0-3.449H79.109a3.794,3.794,0,0,1,3.38-2.069" transform="translate(-211.744 198.26)" fill="#4fc497"/>
  </g>
</svg>
